EnclosedAlnum-Bold.sfdir
StartChar: uF1D84
Encoding: 990596 990596 2
Width: 1000
Flags: MW
LayerCount: 2
Fore
SplineSet
50 300 m 0
 50 584 236 760 501 760 c 0
 758 760 949 589 950 300 c 0
 950 21 769 -160 499 -160 c 0
 230 -160 50 24 50 300 c 0
112 299 m 0
 112 55 269 -97 498 -97 c 0
 724 -97 887 47 887 301 c 0
 887 547 729 697 502 697 c 0
 276 697 112 553 112 299 c 0
306.099609375 450.849609375 m 1
 325.700195312 499.149414062 366.299804688 550.950195312 488.099609375 550.950195312 c 0
 635.799804688 550.950195312 693.900390625 471.149414062 693.900390625 389.950195312 c 0
 693.900390625 318.549804688 641.400390625 282.149414062 518.200195312 209.349609375 c 2
 378.900390625 123.25 l 1
 693.900390625 124.649414062 l 1
 693.900390625 49.0498046875 l 1
 312.400390625 49.0498046875 l 1
 312.400390625 119.049804688 l 1
 434.200195312 226.849609375 l 2
 481.799804688 256.950195312 587.5 313.649414062 587.5 388.549804688 c 0
 587.5 435.450195312 548.299804688 480.950195312 471.299804688 480.950195312 c 0
 388.700195312 480.950195312 367 434.75 354.400390625 389.25 c 1
 306.099609375 450.849609375 l 1
EndSplineSet
EndChar
StartChar: uF1D8E
Encoding: 990606 990606 12
Width: 1000
Flags: MW
LayerCount: 2
Fore
SplineSet
50 300 m 0
 50 584 236 760 501 760 c 0
 758 760 949 589 950 300 c 0
 950 21 769 -160 499 -160 c 0
 230 -160 50 24 50 300 c 0
112 299 m 0
 112 55 269 -97 498 -97 c 0
 724 -97 887 47 887 301 c 0
 887 547 729 697 502 697 c 0
 276 697 112 553 112 299 c 0
525.200195312 450.849609375 m 1
 544.799804688 499.149414062 584.700195312 550.950195312 661 550.950195312 c 0
 752 550.950195312 810.099609375 471.149414062 810.099609375 389.950195312 c 0
 810.099609375 318.549804688 758.299804688 282.149414062 677.799804688 209.349609375 c 2
 598 123.25 l 1
 810.099609375 124.649414062 l 1
 810.099609375 49.0498046875 l 1
 531.5 49.0498046875 l 1
 531.5 119.049804688 l 1
 633 226.849609375 l 2
 658.200195312 256.950195312 714.200195312 313.649414062 714.200195312 388.549804688 c 0
 714.200195312 435.450195312 693.200195312 480.950195312 652.599609375 480.950195312 c 0
 607.799804688 480.950195312 586.099609375 434.75 573.5 389.25 c 1
 525.200195312 450.849609375 l 1
192.700195312 451.549804688 m 1
 192.700195312 502.649414062 l 1
 273.900390625 502.649414062 321.5 518.049804688 360.700195312 550.950195312 c 1
 385.200195312 550.950195312 l 1
 385.200195312 100.149414062 l 1
 467.799804688 100.149414062 l 1
 467.799804688 49.0498046875 l 1
 203.200195312 49.0498046875 l 1
 203.200195312 100.149414062 l 1
 288.599609375 100.149414062 l 1
 288.599609375 462.75 l 1
 259.200195312 454.349609375 226.299804688 451.549804688 192.700195312 451.549804688 c 1
EndSplineSet
EndChar
StartChar: uF1D8F
Encoding: 990607 990607 13
Width: 1000
Flags: MW
LayerCount: 2
Fore
SplineSet
50 300 m 0
 50 584 236 760 501 760 c 0
 758 760 949 589 950 300 c 0
 950 21 769 -160 499 -160 c 0
 230 -160 50 24 50 300 c 0
112 299 m 0
 112 55 269 -97 498 -97 c 0
 724 -97 887 47 887 301 c 0
 887 547 729 697 502 697 c 0
 276 697 112 553 112 299 c 0
525.200195312 97.349609375 m 1
 537.099609375 162.450195312 l 1
 559.5 143.549804688 583.299804688 128.150390625 610.599609375 118.349609375 c 0
 626 112.049804688 642.799804688 107.849609375 661 107.849609375 c 0
 680.599609375 107.849609375 693.200195312 114.849609375 701.599609375 126.049804688 c 0
 714.200195312 143.549804688 715.599609375 170.150390625 715.599609375 194.650390625 c 2
 715.599609375 207.950195312 l 2xe8
 715.599609375 239.450195312 710 259.049804688 703 271.650390625 c 0
 687.599609375 298.25 663.099609375 292.650390625 652.599609375 294.049804688 c 2
 619 294.049804688 l 1
 619 344.450195312 l 1
 639.299804688 346.549804688 646.299804688 346.549804688 653.299804688 348.650390625 c 0
 677.799804688 354.950195312 703 385.75 703 439.650390625 c 0
 703 457.150390625 700.900390625 473.950195312 692.5 484.450195312 c 0
 686.200195312 492.150390625 677.799804688 496.349609375 663.099609375 496.349609375 c 0xf0
 645.599609375 496.349609375 631.599609375 491.450195312 619.700195312 483.75 c 0
 607.099609375 476.049804688 595.900390625 465.549804688 587.5 456.450195312 c 0
 579.799804688 448.049804688 574.900390625 440.349609375 572.799804688 436.849609375 c 1
 535.700195312 490.049804688 l 1
 554.599609375 513.150390625 578.400390625 532.75 608.5 545.349609375 c 0
 624.599609375 553.75 643.5 558.650390625 664.5 558.650390625 c 0
 707.900390625 558.650390625 740.799804688 545.349609375 762.5 525.75 c 0
 791.200195312 500.549804688 797.5 464.849609375 797.5 437.549804688 c 0xf0
 797.5 407.450195312 787.700195312 384.349609375 774.400390625 366.849609375 c 0
 756.900390625 343.049804688 733.099609375 329.049804688 719.799804688 321.349609375 c 1
 733.799804688 317.849609375 768.799804688 309.450195312 793.299804688 280.049804688 c 0
 808.700195312 261.849609375 819.200195312 235.950195312 819.200195312 198.849609375 c 0
 819.200195312 149.849609375 805.900390625 100.150390625 762.5 70.0498046875 c 4
 737.299804688 52.5498046875 703.700195312 41.349609375 663.799804688 41.349609375 c 0
 641.400390625 41.349609375 621.799804688 45.5498046875 601.5 53.25 c 0
 573.5 63.0498046875 548.299804688 77.75 525.200195312 97.349609375 c 1
192.700195312 459.25 m 1
 192.700195312 510.349609375 l 1
 273.900390625 510.349609375 321.5 525.75 360.700195312 558.650390625 c 1
 385.200195312 558.650390625 l 1
 385.200195312 107.849609375 l 1
 467.799804688 107.849609375 l 1
 467.799804688 56.75 l 1
 203.200195312 56.75 l 1
 203.200195312 107.849609375 l 1
 288.599609375 107.849609375 l 1
 288.599609375 470.450195312 l 1
 259.200195312 462.049804688 226.299804688 459.25 192.700195312 459.25 c 1
EndSplineSet
EndChar
StartChar: uF1F89
Encoding: 991113 991113 995
Width: 1000
Flags: MW
LayerCount: 2
Fore
SplineSet
700 -184 m 1
 720 -160 743 -130 766 -88 c 0
 807 -12 864 104 864 303 c 0
 864 663 713 764 700 789 c 1
 753 789 l 1
 898 672 960 495 960 302 c 0
 960 109 898 -67 753 -184 c 1
 700 -184 l 1
40 302 m 0
 40 497 102 672 248 789 c 1
 300 789 l 1
 278 762 251 727 226 676 c 0
 189 600 137 486 137 303 c 0
 137 -59 287 -157 300 -184 c 1
 248 -184 l 1
 102 -66 40 111 40 302 c 0
306.799804688 140.599609375 m 1
 318 205.700195312 l 1
 340.400390625 186.799804688 364.200195312 171.400390625 393.599609375 161.599609375 c 0
 421.599609375 155.299804688 452.400390625 151.099609375 487.400390625 151.099609375 c 0
 523.799804688 151.099609375 548.299804688 158.099609375 563.700195312 169.299804688 c 0
 587.5 186.799804688 589.599609375 213.400390625 589.599609375 237.900390625 c 2
 589.599609375 251.200195312 l 2xe8
 589.599609375 282.700195312 581.200195312 302.299804688 567.200195312 314.900390625 c 0
 539.200195312 341.5 491.599609375 335.900390625 472 337.299804688 c 2
 409 337.299804688 l 1
 409 387.700195312 l 1
 446.799804688 389.799804688 460.799804688 389.799804688 473.400390625 391.900390625 c 0
 519.599609375 398.200195312 565.799804688 429 565.799804688 482.900390625 c 0
 565.799804688 500.400390625 562.299804688 517.200195312 546.900390625 527.700195312 c 0
 535.700195312 535.400390625 518.900390625 539.599609375 491.599609375 539.599609375 c 0xf0
 459.400390625 539.599609375 432.799804688 534.700195312 410.400390625 527 c 0
 388 519.299804688 376.799804688 508.799804688 368.400390625 499.700195312 c 0
 360.700195312 491.299804688 356.5 483.599609375 354.400390625 480.099609375 c 1
 316.599609375 533.299804688 l 1
 335.5 556.400390625 359.299804688 576 389.400390625 588.599609375 c 0
 419.5 597 454.5 601.900390625 494.400390625 601.900390625 c 0
 576.299804688 601.900390625 615.5 588.599609375 637.200195312 569 c 0
 665.900390625 543.799804688 672.200195312 508.099609375 672.200195312 480.799804688 c 0xf0
 672.200195312 450.700195312 661.700195312 427.599609375 648.400390625 410.099609375 c 0
 630.900390625 386.299804688 607.099609375 372.299804688 593.799804688 364.599609375 c 1
 607.799804688 361.099609375 643.5 352.700195312 668 323.299804688 c 0
 683.400390625 305.099609375 693.200195312 279.200195312 693.200195312 242.099609375 c 0
 693.200195312 193.099609375 680.599609375 143.400390625 637.200195312 113.299804688 c 4
 612 95.7998046875 567.200195312 84.599609375 493 84.599609375 c 0
 451 84.599609375 413.200195312 88.7998046875 382.400390625 96.5 c 0
 354.400390625 106.299804688 329.900390625 121 306.799804688 140.599609375 c 1
EndSplineSet
EndChar
StartChar: uF1F8B
Encoding: 991115 991115 997
Width: 1000
Flags: MW
LayerCount: 2
Fore
SplineSet
700 -184 m 1
 720 -160 743 -130 766 -88 c 0
 807 -12 864 104 864 303 c 0
 864 663 713 764 700 789 c 1
 753 789 l 1
 898 672 960 495 960 302 c 0
 960 109 898 -67 753 -184 c 1
 700 -184 l 1
40 302 m 0
 40 497 102 672 248 789 c 1
 300 789 l 1
 278 762 251 727 226 676 c 0
 189 600 137 486 137 303 c 0
 137 -59 287 -157 300 -184 c 1
 248 -184 l 1
 102 -66 40 111 40 302 c 0
306.799804688 157.400390625 m 1
 343.200195312 218.299804688 l 1
 347.400390625 211.299804688 350.900390625 205 355.799804688 198 c 0
 367 182.599609375 381.700195312 171.400390625 399.200195312 163.700195312 c 0
 425.799804688 154.599609375 453.799804688 150.400390625 480.400390625 150.400390625 c 0
 526.599609375 150.400390625 553.200195312 159.5 568.599609375 175.599609375 c 0
 587.5 194.5 598 222.5 598 254 c 2
 598 273.599609375 l 2
 598 301.599609375 587.5 330.299804688 572.099609375 347.799804688 c 0
 562.299804688 358.299804688 546.200195312 365.299804688 522.400390625 365.299804688 c 0
 446.799804688 365.299804688 421.599609375 307.200195312 420.200195312 307.200195312 c 2
 339 307.200195312 l 1
 339 586.5 l 1
 668 586.5 l 1
 668 515.799804688 l 1
 434.200195312 515.799804688 l 1
 434.200195312 404.5 l 1
 455.200195312 410.799804688 491.599609375 416.400390625 528 416.400390625 c 0
 588.900390625 416.400390625 623.200195312 406.599609375 648.400390625 384.200195312 c 0
 677.099609375 358.299804688 693.200195312 316.299804688 693.200195312 253.299804688 c 0
 693.200195312 193.799804688 676.400390625 154.599609375 649.799804688 128.700195312 c 0
 616.200195312 95.7998046875 556 84.599609375 484.599609375 84.599609375 c 0
 441.200195312 84.599609375 405.5 90.2001953125 381 98.599609375 c 0
 339.700195312 115.400390625 316.599609375 143.400390625 306.799804688 157.400390625 c 1
EndSplineSet
EndChar
StartChar: uF1F8D
Encoding: 991117 991117 999
Width: 1000
Flags: MW
LayerCount: 2
Fore
SplineSet
700 -184 m 1
 720 -160 743 -130 766 -88 c 0
 807 -12 864 104 864 303 c 0
 864 663 713 764 700 789 c 1
 753 789 l 1
 898 672 960 495 960 302 c 0
 960 109 898 -67 753 -184 c 1
 700 -184 l 1
40 302 m 0
 40 497 102 672 248 789 c 1
 300 789 l 1
 278 762 251 727 226 676 c 0
 189 600 137 486 137 303 c 0
 137 -59 287 -157 300 -184 c 1
 248 -184 l 1
 102 -66 40 111 40 302 c 0
301.200195312 510.900390625 m 1
 301.200195312 586.5 l 1
 698.799804688 586.5 l 1
 698.799804688 515.799804688 l 1
 588.200195312 395.400390625 469.200195312 240 469.200195312 92.2998046875 c 1
 369.799804688 92.2998046875 l 1
 369.799804688 249.799804688 483.200195312 399.599609375 626 511.599609375 c 1
 301.200195312 510.900390625 l 1
EndSplineSet
EndChar
StartChar: uF1F8F
Encoding: 991119 991119 1001
Width: 1000
Flags: MW
LayerCount: 2
Fore
SplineSet
700 -184 m 1
 720 -160 743 -130 766 -88 c 0
 807 -12 864 104 864 303 c 0
 864 663 713 764 700 789 c 1
 753 789 l 1
 898 672 960 495 960 302 c 0
 960 109 898 -67 753 -184 c 1
 700 -184 l 1
40 302 m 0
 40 497 102 672 248 789 c 1
 300 789 l 1
 278 762 251 727 226 676 c 0
 189 600 137 486 137 303 c 0
 137 -59 287 -157 300 -184 c 1
 248 -184 l 1
 102 -66 40 111 40 302 c 0
308.900390625 410.099609375 m 0
 308.900390625 459.099609375 308.900390625 501.099609375 339 542.400390625 c 0
 364.200195312 577.400390625 397.099609375 601.900390625 502.099609375 601.900390625 c 0
 571.400390625 601.900390625 612 586.5 635.099609375 563.400390625 c 0
 689 509.5 691.099609375 410.799804688 691.099609375 351.299804688 c 0
 691.099609375 278.5 684.799804688 186.799804688 627.400390625 131.5 c 0
 592.400390625 97.900390625 518.900390625 84.599609375 449.599609375 84.599609375 c 0
 392.200195312 84.599609375 364.200195312 96.5 332.700195312 118.200195312 c 1
 366.299804688 177 l 1
 387.299804688 160.900390625 403.400390625 151.099609375 449.599609375 151.099609375 c 0
 500 151.099609375 543.400390625 167.200195312 564.400390625 191.700195312 c 0
 579.799804688 211.299804688 592.400390625 249.099609375 592.400390625 307.200195312 c 2
 592.400390625 313.5 l 1
 575.599609375 284.799804688 536.400390625 241.400390625 451 241.400390625 c 0
 377.5 241.400390625 352.299804688 268.700195312 337.599609375 291.099609375 c 0
 311.700195312 329.599609375 308.900390625 366.700195312 308.900390625 410.099609375 c 0
406.900390625 415 m 2
 409 334.5 413.200195312 322.599609375 430 308.599609375 c 0
 445.400390625 296.700195312 468.5 292.5 491.599609375 292.5 c 0
 516.799804688 292.5 548.299804688 298.799804688 569.299804688 326.799804688 c 4
 583.299804688 345 592.400390625 372.299804688 592.400390625 413.599609375 c 0
 592.400390625 467.5 591 539.599609375 500 539.599609375 c 0
 476.200195312 539.599609375 457.299804688 536.099609375 444.700195312 529.799804688 c 0
 404.099609375 510.200195312 409.700195312 465.400390625 406.900390625 437.400390625 c 2
 406.900390625 415 l 2
EndSplineSet
EndChar
StartChar: uF1F95
Encoding: 991125 991125 1007
Width: 1000
Flags: MW
LayerCount: 2
Fore
SplineSet
700 -184 m 1
 720 -160 743 -130 766 -88 c 0
 807 -12 864 104 864 303 c 0
 864 663 713 764 700 789 c 1
 753 789 l 1
 898 672 960 495 960 302 c 0
 960 109 898 -67 753 -184 c 1
 700 -184 l 1
40 302 m 0
 40 497 102 672 248 789 c 1
 300 789 l 1
 278 762 251 727 226 676 c 0
 189 600 137 486 137 303 c 0
 137 -59 287 -157 300 -184 c 1
 248 -184 l 1
 102 -66 40 111 40 302 c 0
520.299804688 157.400390625 m 1
 557.400390625 218.299804688 l 1
 561.599609375 211.299804688 565.099609375 205 570 198 c 0
 581.200195312 182.599609375 595.200195312 171.400390625 608.5 163.700195312 c 0
 622.5 154.599609375 638.599609375 150.400390625 652.599609375 150.400390625 c 0
 677.099609375 150.400390625 691.099609375 159.5 699.5 175.599609375 c 0
 709.299804688 194.5 710.700195312 222.5 710.700195312 254 c 2
 710.700195312 273.599609375 l 2
 710.700195312 301.599609375 709.299804688 330.299804688 700.900390625 347.799804688 c 0
 696 358.299804688 687.599609375 365.299804688 675 365.299804688 c 0
 634.400390625 365.299804688 620.400390625 307.200195312 619.700195312 307.200195312 c 2
 552.5 307.200195312 l 1
 552.5 586.5 l 1
 788.400390625 586.5 l 1
 788.400390625 515.799804688 l 1
 635.799804688 515.799804688 l 1
 635.799804688 404.5 l 1
 647 410.799804688 658.200195312 416.400390625 677.799804688 416.400390625 c 0
 710 416.400390625 743.599609375 406.599609375 768.799804688 384.200195312 c 4
 797.5 358.299804688 814.299804688 316.299804688 814.299804688 253.299804688 c 0
 814.299804688 193.799804688 797.5 154.599609375 770.900390625 128.700195312 c 0
 737.299804688 95.7998046875 692.5 84.599609375 654.700195312 84.599609375 c 0
 631.599609375 84.599609375 612 90.2001953125 594.5 98.599609375 c 0
 553.200195312 115.400390625 530.099609375 143.400390625 520.299804688 157.400390625 c 1
192.700195312 502.5 m 1
 192.700195312 553.599609375 l 1
 273.900390625 553.599609375 321.5 569 360.700195312 601.900390625 c 1
 385.200195312 601.900390625 l 1
 385.200195312 151.099609375 l 1
 467.799804688 151.099609375 l 1
 467.799804688 100 l 1
 203.200195312 100 l 1
 203.200195312 151.099609375 l 1
 288.599609375 151.099609375 l 1
 288.599609375 513.700195312 l 1
 259.200195312 505.299804688 226.299804688 502.5 192.700195312 502.5 c 1
EndSplineSet
EndChar
StartChar: uF1F97
Encoding: 991127 991127 1009
Width: 1000
Flags: MW
LayerCount: 2
Fore
SplineSet
700 -184 m 1
 720 -160 743 -130 766 -88 c 0
 807 -12 864 104 864 303 c 0
 864 663 713 764 700 789 c 1
 753 789 l 1
 898 672 960 495 960 302 c 0
 960 109 898 -67 753 -184 c 1
 700 -184 l 1
40 302 m 0
 40 497 102 672 248 789 c 1
 300 789 l 1
 278 762 251 727 226 676 c 0
 189 600 137 486 137 303 c 0
 137 -59 287 -157 300 -184 c 1
 248 -184 l 1
 102 -66 40 111 40 302 c 0
525.200195312 510.900390625 m 1
 525.200195312 586.5 l 1
 831.799804688 586.5 l 1
 831.799804688 515.799804688 l 1
 731.700195312 395.400390625 692.5 240 692.5 92.2998046875 c 1
 593.099609375 92.2998046875 l 1
 593.099609375 249.799804688 655.400390625 403.099609375 776.5 511.599609375 c 1
 525.200195312 510.900390625 l 1
192.700195312 502.5 m 1
 192.700195312 553.599609375 l 1
 273.900390625 553.599609375 321.5 569 360.700195312 601.900390625 c 1
 385.200195312 601.900390625 l 1
 385.200195312 151.099609375 l 1
 467.799804688 151.099609375 l 1
 467.799804688 100 l 1
 203.200195312 100 l 1
 203.200195312 151.099609375 l 1
 288.599609375 151.099609375 l 1
 288.599609375 513.700195312 l 1
 259.200195312 505.299804688 226.299804688 502.5 192.700195312 502.5 c 1
EndSplineSet
EndChar
StartChar: uF1FA9
Encoding: 991145 991145 25
Width: 1000
Flags: MW
LayerCount: 2
Fore
SplineSet
50 300 m 0
 50 584 236 760 501 760 c 0
 758 760 949 589 950 300 c 0
 950 21 769 -160 499 -160 c 0
 230 -160 50 24 50 300 c 0
112 299 m 0
 112 55 269 -97 498 -97 c 0
 724 -97 887 47 887 301 c 0
 887 547 729 697 502 697 c 0
 276 697 112 553 112 299 c 0
520.299804688 114.150390625 m 1
 557.400390625 175.049804688 l 1
 561.599609375 168.049804688 565.099609375 161.75 570 154.75 c 0
 581.200195312 139.349609375 595.200195312 128.150390625 608.5 120.450195312 c 0
 622.5 111.349609375 638.599609375 107.150390625 652.599609375 107.150390625 c 0
 677.099609375 107.150390625 691.099609375 116.25 699.5 132.349609375 c 0
 709.299804688 151.25 710.700195312 179.25 710.700195312 210.75 c 2
 710.700195312 230.349609375 l 2
 710.700195312 258.349609375 709.299804688 287.049804688 700.900390625 304.549804688 c 0
 696 315.049804688 687.599609375 322.049804688 675 322.049804688 c 0
 634.400390625 322.049804688 620.400390625 263.950195312 619.700195312 263.950195312 c 2
 552.5 263.950195312 l 1
 552.5 543.25 l 1
 788.400390625 543.25 l 1
 788.400390625 472.549804688 l 1
 635.799804688 472.549804688 l 1
 635.799804688 361.25 l 1
 647 367.549804688 658.200195312 373.150390625 677.799804688 373.150390625 c 0
 710 373.150390625 743.599609375 363.349609375 768.799804688 340.950195312 c 4
 797.5 315.049804688 814.299804688 273.049804688 814.299804688 210.049804688 c 0
 814.299804688 150.549804688 797.5 111.349609375 770.900390625 85.4501953125 c 0
 737.299804688 52.5498046875 692.5 41.349609375 654.700195312 41.349609375 c 0
 631.599609375 41.349609375 612 46.9501953125 594.5 55.349609375 c 0
 553.200195312 72.150390625 530.099609375 100.150390625 520.299804688 114.150390625 c 1
175.200195312 458.549804688 m 1
 194.799804688 506.849609375 234.700195312 558.650390625 311 558.650390625 c 0
 402 558.650390625 460.099609375 478.849609375 460.099609375 397.650390625 c 0
 460.099609375 326.25 408.299804688 289.849609375 327.799804688 217.049804688 c 2
 248 130.950195312 l 1
 460.099609375 132.349609375 l 1
 460.099609375 56.75 l 1
 181.5 56.75 l 1
 181.5 126.75 l 1
 283 234.549804688 l 2
 308.200195312 264.650390625 364.200195312 321.349609375 364.200195312 396.25 c 0
 364.200195312 443.150390625 343.200195312 488.650390625 302.599609375 488.650390625 c 0
 257.799804688 488.650390625 236.099609375 442.450195312 223.5 396.950195312 c 1
 175.200195312 458.549804688 l 1
EndSplineSet
EndChar
StartChar: uF1FAB
Encoding: 991147 991147 27
Width: 1000
Flags: MW
LayerCount: 2
Fore
SplineSet
50 300 m 0
 50 584 236 760 501 760 c 0
 758 760 949 589 950 300 c 0
 950 21 769 -160 499 -160 c 0
 230 -160 50 24 50 300 c 0
112 299 m 0
 112 55 269 -97 498 -97 c 0
 724 -97 887 47 887 301 c 0
 887 547 729 697 502 697 c 0
 276 697 112 553 112 299 c 0
525.200195312 463.80078125 m 1
 525.200195312 539.400390625 l 1
 831.799804688 539.400390625 l 1
 831.799804688 468.69921875 l 1
 731.700195312 348.30078125 692.5 192.900390625 692.5 45.19921875 c 1
 593.099609375 45.19921875 l 1
 593.099609375 202.69921875 655.400390625 356 776.5 464.5 c 1
 525.200195312 463.80078125 l 1
175.200195312 454.69921875 m 1
 194.799804688 503 234.700195312 554.80078125 311 554.80078125 c 0
 402 554.80078125 460.099609375 475 460.099609375 393.80078125 c 0
 460.099609375 322.400390625 408.299804688 286 327.799804688 213.19921875 c 2
 248 127.099609375 l 1
 460.099609375 128.5 l 1
 460.099609375 52.900390625 l 1
 181.5 52.900390625 l 1
 181.5 122.900390625 l 1
 283 230.69921875 l 2
 308.200195312 260.80078125 364.200195312 317.5 364.200195312 392.400390625 c 0
 364.200195312 439.30078125 343.200195312 484.80078125 302.599609375 484.80078125 c 0
 257.799804688 484.80078125 236.099609375 438.599609375 223.5 393.099609375 c 1
 175.200195312 454.69921875 l 1
EndSplineSet
EndChar
StartChar: uF1FB2
Encoding: 991154 991154 1015
Width: 1000
Flags: MW
LayerCount: 2
Fore
SplineSet
700 -184 m 1
 720 -160 743 -130 766 -88 c 0
 807 -12 864 104 864 303 c 0
 864 663 713 764 700 789 c 1
 753 789 l 1
 898 672 960 495 960 302 c 0
 960 109 898 -67 753 -184 c 1
 700 -184 l 1
40 302 m 0
 40 497 102 672 248 789 c 1
 300 789 l 1
 278 762 251 727 226 676 c 0
 189 600 137 486 137 303 c 0
 137 -59 287 -157 300 -184 c 1
 248 -184 l 1
 102 -66 40 111 40 302 c 0
323.599609375 265.900390625 m 0
 323.599609375 407.299804688 402.700195312 442.299804688 530.799804688 442.299804688 c 0
 605 442.299804688 629.5 434.599609375 672.200195312 412.200195312 c 1
 661 345.700195312 l 1
 631.599609375 368.099609375 613.400390625 387.700195312 532.200195312 387.700195312 c 0
 425.799804688 387.700195312 421.599609375 328.200195312 420.200195312 279.900390625 c 2
 420.200195312 259.599609375 l 2
 420.200195312 192.400390625 439.099609375 146.900390625 530.099609375 146.900390625 c 0
 615.5 146.900390625 652.599609375 178.400390625 670.799804688 193.099609375 c 1
 676.400390625 124.5 l 1
 635.799804688 102.799804688 599.400390625 92.2998046875 526.599609375 92.2998046875 c 0
 357.200195312 92.2998046875 323.599609375 174.900390625 323.599609375 265.900390625 c 0
EndSplineSet
EndChar
StartChar: uF1FB4
Encoding: 991156 991156 1017
Width: 1000
Flags: MW
LayerCount: 2
Fore
SplineSet
700 -184 m 1
 720 -160 743 -130 766 -88 c 0
 807 -12 864 104 864 303 c 0
 864 663 713 764 700 789 c 1
 753 789 l 1
 898 672 960 495 960 302 c 0
 960 109 898 -67 753 -184 c 1
 700 -184 l 1
40 302 m 0
 40 497 102 672 248 789 c 1
 300 789 l 1
 278 762 251 727 226 676 c 0
 189 600 137 486 137 303 c 0
 137 -59 287 -157 300 -184 c 1
 248 -184 l 1
 102 -66 40 111 40 302 c 0
307.5 268 m 0
 307.5 357.599609375 341.799804688 442.299804688 514 442.299804688 c 0
 677.099609375 442.299804688 692.5 352 692.5 275 c 1
 692.5 275 l 1
 397.099609375 275 l 1
 397.099609375 241.400390625 399.200195312 204.299804688 430 175.599609375 c 0
 442.599609375 163.700195312 472 143.400390625 535 143.400390625 c 0
 619 143.400390625 660.299804688 172.099609375 683.400390625 190.299804688 c 1
 688.299804688 126.599609375 l 1
 665.200195312 113.299804688 621.099609375 92.2998046875 527.299804688 92.2998046875 c 0
 393.599609375 92.2998046875 307.5 127.299804688 307.5 268 c 0
401.299804688 312.799804688 m 1
 613.400390625 312.799804688 l 1
 605 377.900390625 554.599609375 391.200195312 514.700195312 391.200195312 c 0
 424.400390625 391.200195312 406.900390625 331.700195312 401.299804688 312.799804688 c 1
EndSplineSet
EndChar
StartChar: uF1FB5
Encoding: 991157 991157 1018
Width: 1000
Flags: MW
LayerCount: 2
Fore
SplineSet
700 -184 m 1
 720 -160 743 -130 766 -88 c 0
 807 -12 864 104 864 303 c 0
 864 663 713 764 700 789 c 1
 753 789 l 1
 898 672 960 495 960 302 c 0
 960 109 898 -67 753 -184 c 1
 700 -184 l 1
40 302 m 0
 40 497 102 672 248 789 c 1
 300 789 l 1
 278 762 251 727 226 676 c 0
 189 600 137 486 137 303 c 0
 137 -59 287 -157 300 -184 c 1
 248 -184 l 1
 102 -66 40 111 40 302 c 0
389.400390625 380 m 1
 389.400390625 430.400390625 l 1
 428.599609375 430.400390625 l 1
 428.599609375 478 l 2
 428.599609375 487.799804688 429.299804688 496.900390625 430.700195312 505.299804688 c 0
 435.599609375 533.299804688 447.5 552.900390625 465 566.900390625 c 0
 490.900390625 587.200195312 532.200195312 594.200195312 584.700195312 594.200195312 c 0
 608.5 594.200195312 623.900390625 592.099609375 649.799804688 586.5 c 1
 649.799804688 515.799804688 l 1
 630.900390625 532.599609375 615.5 543.099609375 584.700195312 543.099609375 c 0
 568.599609375 543.099609375 553.200195312 539.599609375 542 534 c 0
 521 524.200195312 519.599609375 508.099609375 519.599609375 496.900390625 c 2
 519.599609375 430.400390625 l 1
 603.599609375 430.400390625 l 1
 603.599609375 380 l 1
 521.700195312 380 l 1
 521.700195312 100 l 1
 428.599609375 100 l 1
 428.599609375 380 l 1
 389.400390625 380 l 1
EndSplineSet
EndChar
StartChar: uF1FBA
Encoding: 991162 991162 1023
Width: 1000
Flags: MW
LayerCount: 2
Fore
SplineSet
700 -184 m 1
 720 -160 743 -130 766 -88 c 0
 807 -12 864 104 864 303 c 0
 864 663 713 764 700 789 c 1
 753 789 l 1
 898 672 960 495 960 302 c 0
 960 109 898 -67 753 -184 c 1
 700 -184 l 1
40 302 m 0
 40 497 102 672 248 789 c 1
 300 789 l 1
 278 762 251 727 226 676 c 0
 189 600 137 486 137 303 c 0
 137 -59 287 -157 300 -184 c 1
 248 -184 l 1
 102 -66 40 111 40 302 c 0
311.700195312 100 m 1
 311.700195312 586.5 l 1
 394.299804688 586.5 l 1
 394.299804688 321.200195312 l 1
 550.400390625 430.400390625 l 1
 671.5 430.400390625 l 1
 529.400390625 305.099609375 l 1
 688.299804688 100 l 1
 593.799804688 100 l 1
 446.799804688 246.299804688 l 1
 392.200195312 208.5 l 1
 392.200195312 100 l 1
 311.700195312 100 l 1
EndSplineSet
EndChar
StartChar: uF1FBD
Encoding: 991165 991165 1026
Width: 1000
Flags: MW
LayerCount: 2
Fore
SplineSet
700 -184 m 1
 720 -160 743 -130 766 -88 c 0
 807 -12 864 104 864 303 c 0
 864 663 713 764 700 789 c 1
 753 789 l 1
 898 672 960 495 960 302 c 0
 960 109 898 -67 753 -184 c 1
 700 -184 l 1
40 302 m 0
 40 497 102 672 248 789 c 1
 300 789 l 1
 278 762 251 727 226 676 c 0
 189 600 137 486 137 303 c 0
 137 -59 287 -157 300 -184 c 1
 248 -184 l 1
 102 -66 40 111 40 302 c 0
315.900390625 100 m 1xd8
 315.900390625 434.599609375 l 1
 407.599609375 434.599609375 l 1
 407.599609375 390.5 l 1
 408.299804688 361.099609375 l 1
 425.099609375 390.5 474.799804688 438.099609375 577.700195312 438.099609375 c 0
 618.299804688 438.099609375 642.099609375 429.700195312 657.5 416.400390625 c 4
 682 394.700195312 684.099609375 359 684.099609375 320.5 c 0
 684.099609375 310.700195312 683.400390625 301.599609375 683.400390625 291.799804688 c 2
 683.400390625 100 l 1
 588.200195312 100 l 1
 588.200195312 328.900390625 l 2xe8
 588.200195312 361.799804688 578.400390625 387.700195312 516.799804688 387.700195312 c 0
 445.400390625 387.700195312 416 338.700195312 411.799804688 303.700195312 c 2
 411.799804688 100 l 1
 315.900390625 100 l 1xd8
EndSplineSet
EndChar
StartChar: uF1FBE
Encoding: 991166 991166 1027
Width: 1000
Flags: MW
LayerCount: 2
Fore
SplineSet
700 -184 m 1
 720 -160 743 -130 766 -88 c 0
 807 -12 864 104 864 303 c 0
 864 663 713 764 700 789 c 1
 753 789 l 1
 898 672 960 495 960 302 c 0
 960 109 898 -67 753 -184 c 1
 700 -184 l 1
40 302 m 0
 40 497 102 672 248 789 c 1
 300 789 l 1
 278 762 251 727 226 676 c 0
 189 600 137 486 137 303 c 0
 137 -59 287 -157 300 -184 c 1
 248 -184 l 1
 102 -66 40 111 40 302 c 0
291.400390625 267.299804688 m 0
 291.400390625 405.200195312 375.400390625 442.299804688 500 442.299804688 c 0
 624.599609375 442.299804688 708.599609375 405.200195312 708.599609375 267.299804688 c 0
 708.599609375 119.599609375 624.599609375 92.2998046875 500 92.2998046875 c 0
 375.400390625 92.2998046875 291.400390625 119.599609375 291.400390625 267.299804688 c 0
386.599609375 268.700195312 m 0
 386.599609375 214.799804688 388 146.900390625 501.400390625 146.900390625 c 0
 614.799804688 146.900390625 613.400390625 214.799804688 613.400390625 268.700195312 c 0
 613.400390625 326.099609375 613.400390625 391.200195312 500 391.200195312 c 0
 386.599609375 391.200195312 386.599609375 326.099609375 386.599609375 268.700195312 c 0
EndSplineSet
EndChar
StartChar: uF1FC0
Encoding: 991168 991168 1029
Width: 1000
Flags: MW
LayerCount: 2
Fore
SplineSet
700 -184 m 1
 720 -160 743 -130 766 -88 c 0
 807 -12 864 104 864 303 c 0
 864 663 713 764 700 789 c 1
 753 789 l 1
 898 672 960 495 960 302 c 0
 960 109 898 -67 753 -184 c 1
 700 -184 l 1
40 302 m 0
 40 497 102 672 248 789 c 1
 300 789 l 1
 278 762 251 727 226 676 c 0
 189 600 137 486 137 303 c 0
 137 -59 287 -157 300 -184 c 1
 248 -184 l 1
 102 -66 40 111 40 302 c 0
304 264.5 m 0
 304 389.099609375 359.299804688 438.099609375 464.299804688 438.099609375 c 0
 546.900390625 438.099609375 585.400390625 403.099609375 602.200195312 387.700195312 c 1
 602.200195312 438.099609375 l 1
 696 438.099609375 l 1xf4
 696 -16.900390625 l 1
 598.700195312 -16.900390625 l 1
 598.700195312 137.099609375 l 1xf8
 562.299804688 109.099609375 510.5 92.2998046875 451.700195312 92.2998046875 c 0
 403.400390625 92.2998046875 365.599609375 102.799804688 341.799804688 129.400390625 c 0
 308.200195312 167.200195312 304 223.200195312 304 264.5 c 0
400.599609375 264.5 m 0xf4
 400.599609375 226.700195312 406.900390625 188.900390625 434.200195312 165.799804688 c 4
 449.599609375 151.799804688 473.400390625 143.400390625 507 143.400390625 c 0
 550.400390625 143.400390625 579.099609375 158.099609375 602.200195312 175.599609375 c 1
 602.200195312 333.799804688 l 2
 602.200195312 359 564.400390625 383.5 516.799804688 383.5 c 0
 486 383.5 439.099609375 375.099609375 416 336.599609375 c 0
 401.299804688 314.200195312 400.599609375 289 400.599609375 264.5 c 0xf4
EndSplineSet
EndChar
StartChar: uF1FC3
Encoding: 991171 991171 1032
Width: 1000
Flags: MW
LayerCount: 2
Fore
SplineSet
700 -184 m 1
 720 -160 743 -130 766 -88 c 0
 807 -12 864 104 864 303 c 0
 864 663 713 764 700 789 c 1
 753 789 l 1
 898 672 960 495 960 302 c 0
 960 109 898 -67 753 -184 c 1
 700 -184 l 1
40 302 m 0
 40 497 102 672 248 789 c 1
 300 789 l 1
 278 762 251 727 226 676 c 0
 189 600 137 486 137 303 c 0
 137 -59 287 -157 300 -184 c 1
 248 -184 l 1
 102 -66 40 111 40 302 c 0
370.5 380 m 1
 370.5 430.400390625 l 1
 419.5 430.400390625 l 1
 419.5 524.900390625 l 1
 509.099609375 524.900390625 l 1
 509.099609375 430.400390625 l 1xd0
 616.900390625 430.400390625 l 1
 616.900390625 380 l 1
 509.099609375 380 l 1
 509.099609375 210.599609375 l 2
 509.099609375 188.200195312 511.900390625 171.400390625 522.400390625 160.200195312 c 4
 530.799804688 151.799804688 543.400390625 146.900390625 557.400390625 146.900390625 c 0xe0
 593.099609375 146.900390625 614.799804688 172.099609375 616.900390625 172.099609375 c 1
 629.5 123.099609375 l 1
 591 104.900390625 551.799804688 92.2998046875 487.400390625 92.2998046875 c 0
 465 92.2998046875 449.599609375 100 439.099609375 111.200195312 c 0
 418.099609375 134.299804688 417.400390625 174.200195312 417.400390625 199.400390625 c 2
 417.400390625 380 l 1xe0
 370.5 380 l 1
EndSplineSet
EndChar
StartChar: uF1FC4
Encoding: 991172 991172 1033
Width: 1000
Flags: MW
LayerCount: 2
Fore
SplineSet
700 -184 m 1
 720 -160 743 -130 766 -88 c 0
 807 -12 864 104 864 303 c 0
 864 663 713 764 700 789 c 1
 753 789 l 1
 898 672 960 495 960 302 c 0
 960 109 898 -67 753 -184 c 1
 700 -184 l 1
40 302 m 0
 40 497 102 672 248 789 c 1
 300 789 l 1
 278 762 251 727 226 676 c 0
 189 600 137 486 137 303 c 0
 137 -59 287 -157 300 -184 c 1
 248 -184 l 1
 102 -66 40 111 40 302 c 0
316.599609375 191 m 2
 316.599609375 430.400390625 l 1
 411.799804688 430.400390625 l 1
 411.799804688 191 l 2
 413.200195312 165.099609375 412.5 149.700195312 427.200195312 142 c 0
 437 137.099609375 451.700195312 135 478.299804688 135 c 0
 501.400390625 135 528 139.900390625 549 152.5 c 0
 565.799804688 162.299804688 579.099609375 177 585.400390625 198 c 0
 587.5 205.700195312 588.200195312 213.400390625 588.200195312 222.5 c 2
 588.200195312 430.400390625 l 1
 683.400390625 430.400390625 l 1
 683.400390625 100 l 1
 591 100 l 1
 591 132.200195312 l 1
 590.299804688 146.900390625 l 1
 580.5 134.299804688 575.599609375 123.099609375 553.200195312 113.299804688 c 0
 527.299804688 102.099609375 486 92.2998046875 423 92.2998046875 c 0
 385.900390625 92.2998046875 362.799804688 97.2001953125 347.400390625 107 c 0
 320.099609375 123.799804688 316.599609375 153.900390625 316.599609375 191 c 2
EndSplineSet
EndChar
StartChar: uF2023
Encoding: 991267 991267 1039
Width: 1000
Flags: MW
LayerCount: 2
Fore
SplineSet
700 -184 m 1
 720 -160 743 -130 766 -88 c 0
 807 -12 864 104 864 303 c 0
 864 663 713 764 700 789 c 1
 753 789 l 1
 898 672 960 495 960 302 c 0
 960 109 898 -67 753 -184 c 1
 700 -184 l 1
40 302 m 0
 40 497 102 672 248 789 c 1
 300 789 l 1
 278 762 251 727 226 676 c 0
 189 600 137 486 137 303 c 0
 137 -59 287 -157 300 -184 c 1
 248 -184 l 1
 102 -66 40 111 40 302 c 0
298.400390625 340.799804688 m 0
 298.400390625 349.200195312 298.400390625 357.599609375 298.400390625 366 c 0
 299.799804688 456.299804688 311 564.799804688 417.400390625 594.200195312 c 0
 441.200195312 599.099609375 468.5 601.900390625 500 601.900390625 c 0
 560.200195312 601.900390625 622.5 590 651.900390625 557.799804688 c 0
 701.599609375 503.200195312 701.599609375 401.700195312 701.599609375 353.400390625 c 2
 701.599609375 346.400390625 l 2
 701.599609375 249.099609375 700.200195312 122.400390625 581.200195312 91.599609375 c 4
 557.400390625 87.400390625 530.099609375 84.599609375 498.599609375 84.599609375 c 0
 305.400390625 84.599609375 298.400390625 226 298.400390625 340.799804688 c 0
400.599609375 346.400390625 m 0
 400.599609375 208.5 407.599609375 163.700195312 462.200195312 142 c 0
 472.700195312 138.5 485.299804688 135 500 135 c 0
 506.299804688 135 533.599609375 135.700195312 557.400390625 153.200195312 c 0
 600.799804688 184 597.299804688 240 599.400390625 349.900390625 c 0
 599.400390625 357.599609375 600.799804688 366 600.799804688 375.099609375 c 0
 600.799804688 427.599609375 596.599609375 491.299804688 577.700195312 516.5 c 0
 563 536.099609375 533.599609375 550.799804688 500 550.799804688 c 0
 401.299804688 550.799804688 400.599609375 461.200195312 400.599609375 377.200195312 c 0
 400.599609375 366.700195312 400.599609375 356.200195312 400.599609375 346.400390625 c 0
EndSplineSet
EndChar
StartChar: uF205E
Encoding: 991326 991326 165
Width: 1000
Flags: MW
LayerCount: 2
Fore
SplineSet
50 300 m 0
 50 584 236 760 501 760 c 0
 758 760 949 589 950 300 c 0
 950 21 769 -160 499 -160 c 0
 230 -160 50 24 50 300 c 0
357.200195312 451.549804688 m 1
 390.799804688 451.549804688 424.400390625 454.349609375 463.599609375 462.75 c 1
 463.599609375 100.149414062 l 1
 367.700195312 100.149414062 l 1
 367.700195312 49.0498046875 l 1
 642.799804688 49.0498046875 l 1
 642.799804688 100.149414062 l 1
 560.200195312 100.149414062 l 1
 560.200195312 550.950195312 l 1
 535.700195312 550.950195312 l 1
 496.5 518.049804688 438.400390625 502.649414062 357.200195312 502.649414062 c 1
 357.200195312 451.549804688 l 1
EndSplineSet
EndChar
StartChar: uF205F
Encoding: 991327 991327 166
Width: 1000
Flags: MW
LayerCount: 2
Fore
SplineSet
50 300 m 0
 50 584 236 760 501 760 c 0
 758 760 949 589 950 300 c 0
 950 21 769 -160 499 -160 c 0
 230 -160 50 24 50 300 c 0
306.099609375 450.849609375 m 1
 354.400390625 389.25 l 1
 367 434.75 388.700195312 480.950195312 471.299804688 480.950195312 c 0
 548.299804688 480.950195312 587.5 435.450195312 587.5 388.549804688 c 0
 587.5 313.649414062 481.799804688 256.950195312 434.200195312 226.849609375 c 2
 312.400390625 119.049804688 l 1
 312.400390625 49.0498046875 l 1
 693.900390625 49.0498046875 l 1
 693.900390625 124.649414062 l 1
 378.900390625 123.25 l 1
 518.200195312 209.349609375 l 2
 641.400390625 282.149414062 693.900390625 318.549804688 693.900390625 389.950195312 c 0
 693.900390625 471.149414062 635.799804688 550.950195312 488.099609375 550.950195312 c 0
 366.299804688 550.950195312 325.700195312 499.149414062 306.099609375 450.849609375 c 1
EndSplineSet
EndChar
StartChar: uF2060
Encoding: 991328 991328 167
Width: 1000
Flags: MW
LayerCount: 2
Fore
SplineSet
50 300 m 0
 50 584 236 760 501 760 c 0
 758 760 949 589 950 300 c 0
 950 21 769 -160 499 -160 c 0
 230 -160 50 24 50 300 c 0
306.799804688 97.349609375 m 1
 329.900390625 77.75 354.400390625 63.0498046875 382.400390625 53.25 c 0
 413.200195312 45.5498046875 451 41.349609375 493 41.349609375 c 0
 567.200195312 41.349609375 612 52.5498046875 637.200195312 70.0498046875 c 4
 680.599609375 100.150390625 693.200195312 149.849609375 693.200195312 198.849609375 c 0
 693.200195312 235.950195312 683.400390625 261.849609375 668 280.049804688 c 0
 643.5 309.450195312 607.799804688 317.849609375 593.799804688 321.349609375 c 1
 607.099609375 329.049804688 630.900390625 343.049804688 648.400390625 366.849609375 c 0
 661.700195312 384.349609375 672.200195312 407.450195312 672.200195312 437.549804688 c 0xf0
 672.200195312 464.849609375 665.900390625 500.549804688 637.200195312 525.75 c 0
 615.5 545.349609375 576.299804688 558.650390625 494.400390625 558.650390625 c 0
 454.5 558.650390625 419.5 553.75 389.400390625 545.349609375 c 0
 359.299804688 532.75 335.5 513.150390625 316.599609375 490.049804688 c 1
 354.400390625 436.849609375 l 1
 356.5 440.349609375 360.700195312 448.049804688 368.400390625 456.450195312 c 0
 376.799804688 465.549804688 388 476.049804688 410.400390625 483.75 c 0
 432.799804688 491.450195312 459.400390625 496.349609375 491.599609375 496.349609375 c 0xf0
 518.900390625 496.349609375 535.700195312 492.150390625 546.900390625 484.450195312 c 0
 562.299804688 473.950195312 565.799804688 457.150390625 565.799804688 439.650390625 c 0
 565.799804688 385.75 519.599609375 354.950195312 473.400390625 348.650390625 c 0
 460.799804688 346.549804688 446.799804688 346.549804688 409 344.450195312 c 1
 409 294.049804688 l 1
 472 294.049804688 l 2
 491.599609375 292.650390625 539.200195312 298.25 567.200195312 271.650390625 c 0
 581.200195312 259.049804688 589.599609375 239.450195312 589.599609375 207.950195312 c 2xe8
 589.599609375 194.650390625 l 2
 589.599609375 170.150390625 587.5 143.549804688 563.700195312 126.049804688 c 0
 548.299804688 114.849609375 523.799804688 107.849609375 487.400390625 107.849609375 c 0
 452.400390625 107.849609375 421.599609375 112.049804688 393.599609375 118.349609375 c 0
 364.200195312 128.150390625 340.400390625 143.549804688 318 162.450195312 c 1
 306.799804688 97.349609375 l 1
EndSplineSet
EndChar
StartChar: uF2061
Encoding: 991329 991329 168
Width: 1000
Flags: MW
LayerCount: 2
Fore
SplineSet
50 300 m 0
 50 584 236 760 501 760 c 0
 758 760 949 589 950 300 c 0
 950 21 769 -160 499 -160 c 0
 230 -160 50 24 50 300 c 0
301.200195312 163.150390625 m 1
 546.900390625 163.150390625 l 1
 546.900390625 56.75 l 1
 635.799804688 56.75 l 1
 635.799804688 163.150390625 l 1
 698.799804688 163.150390625 l 1
 698.799804688 229.650390625 l 1
 635.799804688 229.650390625 l 1
 635.799804688 543.25 l 1
 514.700195312 543.25 l 1
 301.200195312 229.650390625 l 1
 301.200195312 229.650390625 l 1
 301.200195312 163.150390625 l 1
374.700195312 229.650390625 m 1
 494.400390625 382.950195312 533.599609375 426.349609375 552.5 471.150390625 c 1
 552.5 229.650390625 l 1
 374.700195312 229.650390625 l 1
EndSplineSet
EndChar
StartChar: uF2064
Encoding: 991332 991332 171
Width: 1000
Flags: MW
LayerCount: 2
Fore
SplineSet
50 300 m 0
 50 584 236 760 501 760 c 0
 758 760 949 589 950 300 c 0
 950 21 769 -160 499 -160 c 0
 230 -160 50 24 50 300 c 0
301.200195312 471.5 m 1
 626 472.19921875 l 1
 483.200195312 360.19921875 369.799804688 210.400390625 369.799804688 52.900390625 c 1
 469.200195312 52.900390625 l 1
 469.200195312 200.599609375 588.200195312 356 698.799804688 476.400390625 c 1
 698.799804688 547.099609375 l 1
 301.200195312 547.099609375 l 1
 301.200195312 471.5 l 1
EndSplineSet
EndChar
StartChar: uF269C
Encoding: 992924 992924 1040
Width: 1000
Flags: MW
LayerCount: 2
Fore
SplineSet
700 -184 m 1
 720 -160 743 -130 766 -88 c 0
 807 -12 864 104 864 303 c 0
 864 663 713 764 700 789 c 1
 753 789 l 1
 898 672 960 495 960 302 c 0
 960 109 898 -67 753 -184 c 1
 700 -184 l 1
40 302 m 0
 40 497 102 672 248 789 c 1
 300 789 l 1
 278 762 251 727 226 676 c 0
 189 600 137 486 137 303 c 0
 137 -59 287 -157 300 -184 c 1
 248 -184 l 1
 102 -66 40 111 40 302 c 0
523.799804688 340.799804688 m 0
 523.799804688 349.200195312 523.799804688 357.599609375 523.799804688 366 c 0
 525.200195312 456.299804688 536.400390625 564.799804688 626 594.200195312 c 0
 638.599609375 599.099609375 653.299804688 601.900390625 670.099609375 601.900390625 c 0
 702.299804688 601.900390625 738 590 767.400390625 557.799804688 c 0
 817.099609375 503.200195312 817.099609375 401.700195312 817.099609375 353.400390625 c 2
 817.099609375 346.400390625 l 2
 817.099609375 249.099609375 815.700195312 122.400390625 713.5 91.599609375 c 4
 700.900390625 87.400390625 686.200195312 84.599609375 669.400390625 84.599609375 c 0
 530.099609375 84.599609375 523.799804688 226 523.799804688 340.799804688 c 0
616.900390625 346.400390625 m 0
 616.900390625 208.5 620.400390625 163.700195312 649.799804688 142 c 0
 655.400390625 138.5 662.400390625 135 670.099609375 135 c 0
 673.599609375 135 688.299804688 135.700195312 700.900390625 153.200195312 c 0
 724 184 721.900390625 240 723.299804688 349.900390625 c 0
 723.299804688 357.599609375 724 366 724 375.099609375 c 0
 724 427.599609375 721.200195312 491.299804688 711.400390625 516.5 c 0
 703.700195312 536.099609375 688.299804688 550.799804688 670.099609375 550.799804688 c 0
 617.599609375 550.799804688 616.900390625 461.200195312 616.900390625 377.200195312 c 0
 616.900390625 366.700195312 616.900390625 356.200195312 616.900390625 346.400390625 c 0
173.799804688 340.799804688 m 0
 173.799804688 349.200195312 173.799804688 357.599609375 173.799804688 366 c 0
 175.200195312 456.299804688 186.400390625 564.799804688 276 594.200195312 c 0
 288.599609375 599.099609375 303.299804688 601.900390625 320.099609375 601.900390625 c 0
 352.299804688 601.900390625 388 590 417.400390625 557.799804688 c 0
 467.099609375 503.200195312 467.099609375 401.700195312 467.099609375 353.400390625 c 2
 467.099609375 346.400390625 l 2
 467.099609375 249.099609375 465.700195312 122.400390625 363.5 91.599609375 c 4
 350.900390625 87.400390625 336.200195312 84.599609375 319.400390625 84.599609375 c 0
 180.099609375 84.599609375 173.799804688 226 173.799804688 340.799804688 c 0
266.900390625 346.400390625 m 0
 266.900390625 208.5 270.400390625 163.700195312 299.799804688 142 c 0
 305.400390625 138.5 312.400390625 135 320.099609375 135 c 0
 323.599609375 135 338.299804688 135.700195312 350.900390625 153.200195312 c 0
 374 184 371.900390625 240 373.299804688 349.900390625 c 0
 373.299804688 357.599609375 374 366 374 375.099609375 c 0
 374 427.599609375 371.200195312 491.299804688 361.400390625 516.5 c 0
 353.700195312 536.099609375 338.299804688 550.799804688 320.099609375 550.799804688 c 0
 267.599609375 550.799804688 266.900390625 461.200195312 266.900390625 377.200195312 c 0
 266.900390625 366.700195312 266.900390625 356.200195312 266.900390625 346.400390625 c 0
EndSplineSet
EndChar
StartChar: uF269D
Encoding: 992925 992925 1041
Width: 1000
Flags: MW
LayerCount: 2
Fore
SplineSet
700 -184 m 1
 720 -160 743 -130 766 -88 c 0
 807 -12 864 104 864 303 c 0
 864 663 713 764 700 789 c 1
 753 789 l 1
 898 672 960 495 960 302 c 0
 960 109 898 -67 753 -184 c 1
 700 -184 l 1
40 302 m 0
 40 497 102 672 248 789 c 1
 300 789 l 1
 278 762 251 727 226 676 c 0
 189 600 137 486 137 303 c 0
 137 -59 287 -157 300 -184 c 1
 248 -184 l 1
 102 -66 40 111 40 302 c 0
542.700195312 502.5 m 1
 542.700195312 553.599609375 l 1
 623.900390625 553.599609375 671.5 569 710.700195312 601.900390625 c 1
 735.200195312 601.900390625 l 1
 735.200195312 151.099609375 l 1
 817.799804688 151.099609375 l 1
 817.799804688 100 l 1
 553.200195312 100 l 1
 553.200195312 151.099609375 l 1
 638.599609375 151.099609375 l 1
 638.599609375 513.700195312 l 1
 609.200195312 505.299804688 576.299804688 502.5 542.700195312 502.5 c 1
173.799804688 340.799804688 m 0
 173.799804688 349.200195312 173.799804688 357.599609375 173.799804688 366 c 0
 175.200195312 456.299804688 186.400390625 564.799804688 276 594.200195312 c 0
 288.599609375 599.099609375 303.299804688 601.900390625 320.099609375 601.900390625 c 0
 352.299804688 601.900390625 388 590 417.400390625 557.799804688 c 0
 467.099609375 503.200195312 467.099609375 401.700195312 467.099609375 353.400390625 c 2
 467.099609375 346.400390625 l 2
 467.099609375 249.099609375 465.700195312 122.400390625 363.5 91.599609375 c 4
 350.900390625 87.400390625 336.200195312 84.599609375 319.400390625 84.599609375 c 0
 180.099609375 84.599609375 173.799804688 226 173.799804688 340.799804688 c 0
266.900390625 346.400390625 m 0
 266.900390625 208.5 270.400390625 163.700195312 299.799804688 142 c 0
 305.400390625 138.5 312.400390625 135 320.099609375 135 c 0
 323.599609375 135 338.299804688 135.700195312 350.900390625 153.200195312 c 0
 374 184 371.900390625 240 373.299804688 349.900390625 c 0
 373.299804688 357.599609375 374 366 374 375.099609375 c 0
 374 427.599609375 371.200195312 491.299804688 361.400390625 516.5 c 0
 353.700195312 536.099609375 338.299804688 550.799804688 320.099609375 550.799804688 c 0
 267.599609375 550.799804688 266.900390625 461.200195312 266.900390625 377.200195312 c 0
 266.900390625 366.700195312 266.900390625 356.200195312 266.900390625 346.400390625 c 0
EndSplineSet
EndChar
StartChar: uF269E
Encoding: 992926 992926 1042
Width: 1000
Flags: MW
LayerCount: 2
Fore
SplineSet
700 -184 m 1
 720 -160 743 -130 766 -88 c 0
 807 -12 864 104 864 303 c 0
 864 663 713 764 700 789 c 1
 753 789 l 1
 898 672 960 495 960 302 c 0
 960 109 898 -67 753 -184 c 1
 700 -184 l 1
40 302 m 0
 40 497 102 672 248 789 c 1
 300 789 l 1
 278 762 251 727 226 676 c 0
 189 600 137 486 137 303 c 0
 137 -59 287 -157 300 -184 c 1
 248 -184 l 1
 102 -66 40 111 40 302 c 0
525.200195312 501.799804688 m 1
 544.799804688 550.099609375 584.700195312 601.900390625 661 601.900390625 c 0
 752 601.900390625 810.099609375 522.099609375 810.099609375 440.900390625 c 0
 810.099609375 369.5 758.299804688 333.099609375 677.799804688 260.299804688 c 2
 598 174.200195312 l 1
 810.099609375 175.599609375 l 1
 810.099609375 100 l 1
 531.5 100 l 1
 531.5 170 l 1
 633 277.799804688 l 2
 658.200195312 307.900390625 714.200195312 364.599609375 714.200195312 439.5 c 0
 714.200195312 486.400390625 693.200195312 531.900390625 652.599609375 531.900390625 c 0
 607.799804688 531.900390625 586.099609375 485.700195312 573.5 440.200195312 c 1
 525.200195312 501.799804688 l 1
173.799804688 340.799804688 m 0
 173.799804688 349.200195312 173.799804688 357.599609375 173.799804688 366 c 0
 175.200195312 456.299804688 186.400390625 564.799804688 276 594.200195312 c 0
 288.599609375 599.099609375 303.299804688 601.900390625 320.099609375 601.900390625 c 0
 352.299804688 601.900390625 388 590 417.400390625 557.799804688 c 0
 467.099609375 503.200195312 467.099609375 401.700195312 467.099609375 353.400390625 c 2
 467.099609375 346.400390625 l 2
 467.099609375 249.099609375 465.700195312 122.400390625 363.5 91.599609375 c 4
 350.900390625 87.400390625 336.200195312 84.599609375 319.400390625 84.599609375 c 0
 180.099609375 84.599609375 173.799804688 226 173.799804688 340.799804688 c 0
266.900390625 346.400390625 m 0
 266.900390625 208.5 270.400390625 163.700195312 299.799804688 142 c 0
 305.400390625 138.5 312.400390625 135 320.099609375 135 c 0
 323.599609375 135 338.299804688 135.700195312 350.900390625 153.200195312 c 0
 374 184 371.900390625 240 373.299804688 349.900390625 c 0
 373.299804688 357.599609375 374 366 374 375.099609375 c 0
 374 427.599609375 371.200195312 491.299804688 361.400390625 516.5 c 0
 353.700195312 536.099609375 338.299804688 550.799804688 320.099609375 550.799804688 c 0
 267.599609375 550.799804688 266.900390625 461.200195312 266.900390625 377.200195312 c 0
 266.900390625 366.700195312 266.900390625 356.200195312 266.900390625 346.400390625 c 0
EndSplineSet
EndChar
StartChar: uF26A0
Encoding: 992928 992928 1044
Width: 1000
Flags: MW
LayerCount: 2
Fore
SplineSet
700 -184 m 1
 720 -160 743 -130 766 -88 c 0
 807 -12 864 104 864 303 c 0
 864 663 713 764 700 789 c 1
 753 789 l 1
 898 672 960 495 960 302 c 0
 960 109 898 -67 753 -184 c 1
 700 -184 l 1
40 302 m 0
 40 497 102 672 248 789 c 1
 300 789 l 1
 278 762 251 727 226 676 c 0
 189 600 137 486 137 303 c 0
 137 -59 287 -157 300 -184 c 1
 248 -184 l 1
 102 -66 40 111 40 302 c 0
516.799804688 206.400390625 m 1
 516.799804688 272.900390625 l 1
 516.799804688 272.900390625 l 1
 669.400390625 586.5 l 1
 773 586.5 l 1
 773 272.900390625 l 1
 836 272.900390625 l 1
 836 206.400390625 l 1
 773 206.400390625 l 1
 773 100 l 1
 686.900390625 100 l 1
 686.900390625 206.400390625 l 1
 516.799804688 206.400390625 l 1
590.299804688 272.900390625 m 1
 689.700195312 272.900390625 l 1
 689.700195312 514.400390625 l 1
 679.900390625 469.599609375 658.900390625 426.200195312 590.299804688 272.900390625 c 1
173.799804688 340.799804688 m 0
 173.799804688 349.200195312 173.799804688 357.599609375 173.799804688 366 c 0
 175.200195312 456.299804688 186.400390625 564.799804688 276 594.200195312 c 0
 288.599609375 599.099609375 303.299804688 601.900390625 320.099609375 601.900390625 c 0
 352.299804688 601.900390625 388 590 417.400390625 557.799804688 c 0
 467.099609375 503.200195312 467.099609375 401.700195312 467.099609375 353.400390625 c 2
 467.099609375 346.400390625 l 2
 467.099609375 249.099609375 465.700195312 122.400390625 363.5 91.599609375 c 4
 350.900390625 87.400390625 336.200195312 84.599609375 319.400390625 84.599609375 c 0
 180.099609375 84.599609375 173.799804688 226 173.799804688 340.799804688 c 0
266.900390625 346.400390625 m 0
 266.900390625 208.5 270.400390625 163.700195312 299.799804688 142 c 0
 305.400390625 138.5 312.400390625 135 320.099609375 135 c 0
 323.599609375 135 338.299804688 135.700195312 350.900390625 153.200195312 c 0
 374 184 371.900390625 240 373.299804688 349.900390625 c 0
 373.299804688 357.599609375 374 366 374 375.099609375 c 0
 374 427.599609375 371.200195312 491.299804688 361.400390625 516.5 c 0
 353.700195312 536.099609375 338.299804688 550.799804688 320.099609375 550.799804688 c 0
 267.599609375 550.799804688 266.900390625 461.200195312 266.900390625 377.200195312 c 0
 266.900390625 366.700195312 266.900390625 356.200195312 266.900390625 346.400390625 c 0
EndSplineSet
EndChar
StartChar: uF26A1
Encoding: 992929 992929 1045
Width: 1000
Flags: MW
LayerCount: 2
Fore
SplineSet
700 -184 m 1
 720 -160 743 -130 766 -88 c 0
 807 -12 864 104 864 303 c 0
 864 663 713 764 700 789 c 1
 753 789 l 1
 898 672 960 495 960 302 c 0
 960 109 898 -67 753 -184 c 1
 700 -184 l 1
40 302 m 0
 40 497 102 672 248 789 c 1
 300 789 l 1
 278 762 251 727 226 676 c 0
 189 600 137 486 137 303 c 0
 137 -59 287 -157 300 -184 c 1
 248 -184 l 1
 102 -66 40 111 40 302 c 0
520.299804688 157.400390625 m 1
 557.400390625 218.299804688 l 1
 561.599609375 211.299804688 565.099609375 205 570 198 c 0
 581.200195312 182.599609375 595.200195312 171.400390625 608.5 163.700195312 c 0
 622.5 154.599609375 638.599609375 150.400390625 652.599609375 150.400390625 c 0
 677.099609375 150.400390625 691.099609375 159.5 699.5 175.599609375 c 0
 709.299804688 194.5 710.700195312 222.5 710.700195312 254 c 2
 710.700195312 273.599609375 l 2
 710.700195312 301.599609375 709.299804688 330.299804688 700.900390625 347.799804688 c 0
 696 358.299804688 687.599609375 365.299804688 675 365.299804688 c 0
 634.400390625 365.299804688 620.400390625 307.200195312 619.700195312 307.200195312 c 2
 552.5 307.200195312 l 1
 552.5 586.5 l 1
 788.400390625 586.5 l 1
 788.400390625 515.799804688 l 1
 635.799804688 515.799804688 l 1
 635.799804688 404.5 l 1
 647 410.799804688 658.200195312 416.400390625 677.799804688 416.400390625 c 0
 710 416.400390625 743.599609375 406.599609375 768.799804688 384.200195312 c 4
 797.5 358.299804688 814.299804688 316.299804688 814.299804688 253.299804688 c 0
 814.299804688 193.799804688 797.5 154.599609375 770.900390625 128.700195312 c 0
 737.299804688 95.7998046875 692.5 84.599609375 654.700195312 84.599609375 c 0
 631.599609375 84.599609375 612 90.2001953125 594.5 98.599609375 c 0
 553.200195312 115.400390625 530.099609375 143.400390625 520.299804688 157.400390625 c 1
173.799804688 340.799804688 m 0
 173.799804688 349.200195312 173.799804688 357.599609375 173.799804688 366 c 0
 175.200195312 456.299804688 186.400390625 564.799804688 276 594.200195312 c 0
 288.599609375 599.099609375 303.299804688 601.900390625 320.099609375 601.900390625 c 0
 352.299804688 601.900390625 388 590 417.400390625 557.799804688 c 0
 467.099609375 503.200195312 467.099609375 401.700195312 467.099609375 353.400390625 c 2
 467.099609375 346.400390625 l 2
 467.099609375 249.099609375 465.700195312 122.400390625 363.5 91.599609375 c 4
 350.900390625 87.400390625 336.200195312 84.599609375 319.400390625 84.599609375 c 0
 180.099609375 84.599609375 173.799804688 226 173.799804688 340.799804688 c 0
266.900390625 346.400390625 m 0
 266.900390625 208.5 270.400390625 163.700195312 299.799804688 142 c 0
 305.400390625 138.5 312.400390625 135 320.099609375 135 c 0
 323.599609375 135 338.299804688 135.700195312 350.900390625 153.200195312 c 0
 374 184 371.900390625 240 373.299804688 349.900390625 c 0
 373.299804688 357.599609375 374 366 374 375.099609375 c 0
 374 427.599609375 371.200195312 491.299804688 361.400390625 516.5 c 0
 353.700195312 536.099609375 338.299804688 550.799804688 320.099609375 550.799804688 c 0
 267.599609375 550.799804688 266.900390625 461.200195312 266.900390625 377.200195312 c 0
 266.900390625 366.700195312 266.900390625 356.200195312 266.900390625 346.400390625 c 0
EndSplineSet
EndChar
StartChar: uF26A4
Encoding: 992932 992932 1048
Width: 1000
Flags: MW
LayerCount: 2
Fore
SplineSet
700 -184 m 1
 720 -160 743 -130 766 -88 c 0
 807 -12 864 104 864 303 c 0
 864 663 713 764 700 789 c 1
 753 789 l 1
 898 672 960 495 960 302 c 0
 960 109 898 -67 753 -184 c 1
 700 -184 l 1
40 302 m 0
 40 497 102 672 248 789 c 1
 300 789 l 1
 278 762 251 727 226 676 c 0
 189 600 137 486 137 303 c 0
 137 -59 287 -157 300 -184 c 1
 248 -184 l 1
 102 -66 40 111 40 302 c 0
525.200195312 240.700195312 m 0xf2
 525.200195312 300.900390625 551.099609375 345.700195312 612 362.5 c 1
 596.599609375 368.799804688 535.700195312 384.200195312 535.700195312 466.099609375 c 0
 535.700195312 534 565.799804688 601.900390625 672.900390625 601.900390625 c 2
 673.599609375 601.900390625 l 2
 780.700195312 601.900390625 810.099609375 534 810.099609375 465.400390625 c 0xec
 810.099609375 375.799804688 734.5 365.299804688 733.799804688 362.5 c 1
 794.700195312 345.700195312 820.599609375 300.900390625 820.599609375 240.700195312 c 0
 820.599609375 162.299804688 788.400390625 84.599609375 672.900390625 84.599609375 c 0
 557.400390625 84.599609375 525.200195312 163 525.200195312 240.700195312 c 0xf2
623.200195312 233 m 2
 623.900390625 206.400390625 623.900390625 181.200195312 635.799804688 165.799804688 c 0
 642.799804688 156.700195312 654 151.099609375 672.200195312 151.099609375 c 0
 687.599609375 151.099609375 699.5 156 706.5 163 c 4
 725.400390625 181.200195312 722.599609375 216.200195312 723.299804688 238.599609375 c 2
 723.299804688 253.299804688 l 2xf2
 722.599609375 282 720.5 306.5 710 321.200195312 c 0
 703 331.700195312 691.099609375 337.299804688 672.900390625 337.299804688 c 0
 654.700195312 337.299804688 643.5 331 636.5 321.200195312 c 0
 621.099609375 300.900390625 623.900390625 267.299804688 623.200195312 249.099609375 c 2
 623.200195312 233 l 2
624.599609375 457.700195312 m 2xec
 624.599609375 432.5 627.400390625 414.299804688 635.799804688 402.400390625 c 0
 642.799804688 392.599609375 654.700195312 387.700195312 672.200195312 387.700195312 c 0
 690.400390625 387.700195312 702.299804688 393.299804688 709.299804688 402.400390625 c 0
 719.799804688 416.400390625 721.200195312 437.400390625 721.200195312 458.400390625 c 2
 721.200195312 471 l 2
 721.200195312 493.400390625 719.099609375 510.200195312 712.799804688 521.400390625 c 0
 705.799804688 534 693.900390625 539.599609375 673.599609375 539.599609375 c 0
 655.400390625 539.599609375 644.200195312 534.700195312 637.200195312 527 c 0
 624.599609375 513 625.299804688 489.900390625 624.599609375 470.299804688 c 2
 624.599609375 457.700195312 l 2xec
173.799804688 340.799804688 m 0
 173.799804688 349.200195312 173.799804688 357.599609375 173.799804688 366 c 0
 175.200195312 456.299804688 186.400390625 564.799804688 276 594.200195312 c 0
 288.599609375 599.099609375 303.299804688 601.900390625 320.099609375 601.900390625 c 0
 352.299804688 601.900390625 388 590 417.400390625 557.799804688 c 0
 467.099609375 503.200195312 467.099609375 401.700195312 467.099609375 353.400390625 c 2
 467.099609375 346.400390625 l 2
 467.099609375 249.099609375 465.700195312 122.400390625 363.5 91.599609375 c 4
 350.900390625 87.400390625 336.200195312 84.599609375 319.400390625 84.599609375 c 0
 180.099609375 84.599609375 173.799804688 226 173.799804688 340.799804688 c 0
266.900390625 346.400390625 m 0
 266.900390625 208.5 270.400390625 163.700195312 299.799804688 142 c 0
 305.400390625 138.5 312.400390625 135 320.099609375 135 c 0
 323.599609375 135 338.299804688 135.700195312 350.900390625 153.200195312 c 0
 374 184 371.900390625 240 373.299804688 349.900390625 c 0
 373.299804688 357.599609375 374 366 374 375.099609375 c 0
 374 427.599609375 371.200195312 491.299804688 361.400390625 516.5 c 0
 353.700195312 536.099609375 338.299804688 550.799804688 320.099609375 550.799804688 c 0
 267.599609375 550.799804688 266.900390625 461.200195312 266.900390625 377.200195312 c 0
 266.900390625 366.700195312 266.900390625 356.200195312 266.900390625 346.400390625 c 0
EndSplineSet
EndChar
StartChar: uF26A5
Encoding: 992933 992933 1049
Width: 1000
Flags: MW
LayerCount: 2
Fore
SplineSet
700 -184 m 1
 720 -160 743 -130 766 -88 c 0
 807 -12 864 104 864 303 c 0
 864 663 713 764 700 789 c 1
 753 789 l 1
 898 672 960 495 960 302 c 0
 960 109 898 -67 753 -184 c 1
 700 -184 l 1
40 302 m 0
 40 497 102 672 248 789 c 1
 300 789 l 1
 278 762 251 727 226 676 c 0
 189 600 137 486 137 303 c 0
 137 -59 287 -157 300 -184 c 1
 248 -184 l 1
 102 -66 40 111 40 302 c 0
520.299804688 410.099609375 m 0
 520.299804688 459.099609375 520.299804688 501.099609375 550.400390625 542.400390625 c 0
 575.599609375 577.400390625 607.799804688 601.900390625 676.400390625 601.900390625 c 0
 720.5 601.900390625 750.599609375 586.5 773.700195312 563.400390625 c 0
 827.599609375 509.5 829.700195312 410.799804688 829.700195312 351.299804688 c 0
 829.700195312 278.5 823.400390625 186.799804688 766 131.5 c 0
 733.799804688 97.900390625 686.900390625 84.599609375 642.799804688 84.599609375 c 0
 603.599609375 84.599609375 575.599609375 96.5 544.099609375 118.200195312 c 1
 577.700195312 177 l 1
 598.700195312 160.900390625 613.400390625 151.099609375 642.799804688 151.099609375 c 0
 675 151.099609375 703 167.200195312 716.299804688 191.700195312 c 0
 726.099609375 211.299804688 733.799804688 249.099609375 733.799804688 307.200195312 c 2
 733.799804688 313.5 l 1
 723.299804688 284.799804688 698.099609375 241.400390625 643.5 241.400390625 c 0
 588.900390625 241.400390625 563.700195312 268.700195312 549 291.099609375 c 0
 523.099609375 329.599609375 520.299804688 366.700195312 520.299804688 410.099609375 c 0
615.5 415 m 2
 616.900390625 334.5 619.700195312 322.599609375 630.200195312 308.599609375 c 0
 640 296.700195312 654.700195312 292.5 669.400390625 292.5 c 0
 685.5 292.5 706.5 298.799804688 719.799804688 326.799804688 c 0
 728.900390625 345 733.799804688 372.299804688 733.799804688 413.599609375 c 0
 733.799804688 467.5 733.099609375 539.599609375 675 539.599609375 c 0
 659.599609375 539.599609375 647 536.099609375 639.299804688 529.799804688 c 0
 612.700195312 510.200195312 617.599609375 465.400390625 615.5 437.400390625 c 2
 615.5 415 l 2
173.799804688 340.799804688 m 0
 173.799804688 349.200195312 173.799804688 357.599609375 173.799804688 366 c 0
 175.200195312 456.299804688 186.400390625 564.799804688 276 594.200195312 c 0
 288.599609375 599.099609375 303.299804688 601.900390625 320.099609375 601.900390625 c 0
 352.299804688 601.900390625 388 590 417.400390625 557.799804688 c 0
 467.099609375 503.200195312 467.099609375 401.700195312 467.099609375 353.400390625 c 2
 467.099609375 346.400390625 l 2
 467.099609375 249.099609375 465.700195312 122.400390625 363.5 91.599609375 c 4
 350.900390625 87.400390625 336.200195312 84.599609375 319.400390625 84.599609375 c 0
 180.099609375 84.599609375 173.799804688 226 173.799804688 340.799804688 c 0
266.900390625 346.400390625 m 0
 266.900390625 208.5 270.400390625 163.700195312 299.799804688 142 c 0
 305.400390625 138.5 312.400390625 135 320.099609375 135 c 0
 323.599609375 135 338.299804688 135.700195312 350.900390625 153.200195312 c 0
 374 184 371.900390625 240 373.299804688 349.900390625 c 0
 373.299804688 357.599609375 374 366 374 375.099609375 c 0
 374 427.599609375 371.200195312 491.299804688 361.400390625 516.5 c 0
 353.700195312 536.099609375 338.299804688 550.799804688 320.099609375 550.799804688 c 0
 267.599609375 550.799804688 266.900390625 461.200195312 266.900390625 377.200195312 c 0
 266.900390625 366.700195312 266.900390625 356.200195312 266.900390625 346.400390625 c 0
EndSplineSet
EndChar
StartChar: uF26A6
Encoding: 992934 992934 1050
Width: 1000
Flags: MW
LayerCount: 2
Fore
SplineSet
700 -184 m 1
 720 -160 743 -130 766 -88 c 0
 807 -12 864 104 864 303 c 0
 864 663 713 764 700 789 c 1
 753 789 l 1
 898 672 960 495 960 302 c 0
 960 109 898 -67 753 -184 c 1
 700 -184 l 1
40 302 m 0
 40 497 102 672 248 789 c 1
 300 789 l 1
 278 762 251 727 226 676 c 0
 189 600 137 486 137 303 c 0
 137 -59 287 -157 300 -184 c 1
 248 -184 l 1
 102 -66 40 111 40 302 c 0
542.700195312 502.5 m 1
 542.700195312 553.599609375 l 1
 623.900390625 553.599609375 671.5 569 710.700195312 601.900390625 c 1
 735.200195312 601.900390625 l 1
 735.200195312 151.099609375 l 1
 817.799804688 151.099609375 l 1
 817.799804688 100 l 1
 553.200195312 100 l 1
 553.200195312 151.099609375 l 1
 638.599609375 151.099609375 l 1
 638.599609375 513.700195312 l 1
 609.200195312 505.299804688 576.299804688 502.5 542.700195312 502.5 c 1
175.200195312 501.799804688 m 1
 194.799804688 550.099609375 234.700195312 601.900390625 311 601.900390625 c 0
 402 601.900390625 460.099609375 522.099609375 460.099609375 440.900390625 c 0
 460.099609375 369.5 408.299804688 333.099609375 327.799804688 260.299804688 c 2
 248 174.200195312 l 1
 460.099609375 175.599609375 l 1
 460.099609375 100 l 1
 181.5 100 l 1
 181.5 170 l 1
 283 277.799804688 l 2
 308.200195312 307.900390625 364.200195312 364.599609375 364.200195312 439.5 c 0
 364.200195312 486.400390625 343.200195312 531.900390625 302.599609375 531.900390625 c 0
 257.799804688 531.900390625 236.099609375 485.700195312 223.5 440.200195312 c 1
 175.200195312 501.799804688 l 1
EndSplineSet
EndChar
StartChar: uF26A9
Encoding: 992937 992937 1053
Width: 1000
Flags: MW
LayerCount: 2
Fore
SplineSet
700 -184 m 1
 720 -160 743 -130 766 -88 c 0
 807 -12 864 104 864 303 c 0
 864 663 713 764 700 789 c 1
 753 789 l 1
 898 672 960 495 960 302 c 0
 960 109 898 -67 753 -184 c 1
 700 -184 l 1
40 302 m 0
 40 497 102 672 248 789 c 1
 300 789 l 1
 278 762 251 727 226 676 c 0
 189 600 137 486 137 303 c 0
 137 -59 287 -157 300 -184 c 1
 248 -184 l 1
 102 -66 40 111 40 302 c 0
516.799804688 206.400390625 m 1
 516.799804688 272.900390625 l 1
 516.799804688 272.900390625 l 1
 669.400390625 586.5 l 1
 773 586.5 l 1
 773 272.900390625 l 1
 836 272.900390625 l 1
 836 206.400390625 l 1
 773 206.400390625 l 1
 773 100 l 1
 686.900390625 100 l 1
 686.900390625 206.400390625 l 1
 516.799804688 206.400390625 l 1
590.299804688 272.900390625 m 1
 689.700195312 272.900390625 l 1
 689.700195312 514.400390625 l 1
 679.900390625 469.599609375 658.900390625 426.200195312 590.299804688 272.900390625 c 1
175.200195312 501.799804688 m 1
 194.799804688 550.099609375 234.700195312 601.900390625 311 601.900390625 c 0
 402 601.900390625 460.099609375 522.099609375 460.099609375 440.900390625 c 0
 460.099609375 369.5 408.299804688 333.099609375 327.799804688 260.299804688 c 2
 248 174.200195312 l 1
 460.099609375 175.599609375 l 1
 460.099609375 100 l 1
 181.5 100 l 1
 181.5 170 l 1
 283 277.799804688 l 2
 308.200195312 307.900390625 364.200195312 364.599609375 364.200195312 439.5 c 0
 364.200195312 486.400390625 343.200195312 531.900390625 302.599609375 531.900390625 c 0
 257.799804688 531.900390625 236.099609375 485.700195312 223.5 440.200195312 c 1
 175.200195312 501.799804688 l 1
EndSplineSet
EndChar
StartChar: uF26AD
Encoding: 992941 992941 1057
Width: 1000
Flags: MW
LayerCount: 2
Fore
SplineSet
700 -184 m 1
 720 -160 743 -130 766 -88 c 0
 807 -12 864 104 864 303 c 0
 864 663 713 764 700 789 c 1
 753 789 l 1
 898 672 960 495 960 302 c 0
 960 109 898 -67 753 -184 c 1
 700 -184 l 1
40 302 m 0
 40 497 102 672 248 789 c 1
 300 789 l 1
 278 762 251 727 226 676 c 0
 189 600 137 486 137 303 c 0
 137 -59 287 -157 300 -184 c 1
 248 -184 l 1
 102 -66 40 111 40 302 c 0
525.200195312 240.700195312 m 0xf2
 525.200195312 300.900390625 551.099609375 345.700195312 612 362.5 c 1
 596.599609375 368.799804688 535.700195312 384.200195312 535.700195312 466.099609375 c 0
 535.700195312 534 565.799804688 601.900390625 672.900390625 601.900390625 c 2
 673.599609375 601.900390625 l 2
 780.700195312 601.900390625 810.099609375 534 810.099609375 465.400390625 c 0xec
 810.099609375 375.799804688 734.5 365.299804688 733.799804688 362.5 c 1
 794.700195312 345.700195312 820.599609375 300.900390625 820.599609375 240.700195312 c 0
 820.599609375 162.299804688 788.400390625 84.599609375 672.900390625 84.599609375 c 0
 557.400390625 84.599609375 525.200195312 163 525.200195312 240.700195312 c 0xf2
623.200195312 233 m 2
 623.900390625 206.400390625 623.900390625 181.200195312 635.799804688 165.799804688 c 0
 642.799804688 156.700195312 654 151.099609375 672.200195312 151.099609375 c 0
 687.599609375 151.099609375 699.5 156 706.5 163 c 4
 725.400390625 181.200195312 722.599609375 216.200195312 723.299804688 238.599609375 c 2
 723.299804688 253.299804688 l 2xf2
 722.599609375 282 720.5 306.5 710 321.200195312 c 0
 703 331.700195312 691.099609375 337.299804688 672.900390625 337.299804688 c 0
 654.700195312 337.299804688 643.5 331 636.5 321.200195312 c 0
 621.099609375 300.900390625 623.900390625 267.299804688 623.200195312 249.099609375 c 2
 623.200195312 233 l 2
624.599609375 457.700195312 m 2xec
 624.599609375 432.5 627.400390625 414.299804688 635.799804688 402.400390625 c 0
 642.799804688 392.599609375 654.700195312 387.700195312 672.200195312 387.700195312 c 0
 690.400390625 387.700195312 702.299804688 393.299804688 709.299804688 402.400390625 c 0
 719.799804688 416.400390625 721.200195312 437.400390625 721.200195312 458.400390625 c 2
 721.200195312 471 l 2
 721.200195312 493.400390625 719.099609375 510.200195312 712.799804688 521.400390625 c 0
 705.799804688 534 693.900390625 539.599609375 673.599609375 539.599609375 c 0
 655.400390625 539.599609375 644.200195312 534.700195312 637.200195312 527 c 0
 624.599609375 513 625.299804688 489.900390625 624.599609375 470.299804688 c 2
 624.599609375 457.700195312 l 2xec
175.200195312 501.799804688 m 1
 194.799804688 550.099609375 234.700195312 601.900390625 311 601.900390625 c 0
 402 601.900390625 460.099609375 522.099609375 460.099609375 440.900390625 c 0
 460.099609375 369.5 408.299804688 333.099609375 327.799804688 260.299804688 c 2
 248 174.200195312 l 1
 460.099609375 175.599609375 l 1
 460.099609375 100 l 1
 181.5 100 l 1
 181.5 170 l 1
 283 277.799804688 l 2
 308.200195312 307.900390625 364.200195312 364.599609375 364.200195312 439.5 c 0
 364.200195312 486.400390625 343.200195312 531.900390625 302.599609375 531.900390625 c 0
 257.799804688 531.900390625 236.099609375 485.700195312 223.5 440.200195312 c 1
 175.200195312 501.799804688 l 1
EndSplineSet
EndChar
StartChar: uF26B3
Encoding: 992947 992947 1063
Width: 1000
Flags: MW
LayerCount: 2
Fore
SplineSet
700 -184 m 1
 720 -160 743 -130 766 -88 c 0
 807 -12 864 104 864 303 c 0
 864 663 713 764 700 789 c 1
 753 789 l 1
 898 672 960 495 960 302 c 0
 960 109 898 -67 753 -184 c 1
 700 -184 l 1
40 302 m 0
 40 497 102 672 248 789 c 1
 300 789 l 1
 278 762 251 727 226 676 c 0
 189 600 137 486 137 303 c 0
 137 -59 287 -157 300 -184 c 1
 248 -184 l 1
 102 -66 40 111 40 302 c 0
516.799804688 206.400390625 m 1
 516.799804688 272.900390625 l 1
 516.799804688 272.900390625 l 1
 669.400390625 586.5 l 1
 773 586.5 l 1
 773 272.900390625 l 1
 836 272.900390625 l 1
 836 206.400390625 l 1
 773 206.400390625 l 1
 773 100 l 1
 686.900390625 100 l 1
 686.900390625 206.400390625 l 1
 516.799804688 206.400390625 l 1
590.299804688 272.900390625 m 1
 689.700195312 272.900390625 l 1
 689.700195312 514.400390625 l 1
 679.900390625 469.599609375 658.900390625 426.200195312 590.299804688 272.900390625 c 1
175.200195312 140.599609375 m 1
 187.099609375 205.700195312 l 1
 209.5 186.799804688 233.299804688 171.400390625 260.599609375 161.599609375 c 0
 276 155.299804688 292.799804688 151.099609375 311 151.099609375 c 0
 330.599609375 151.099609375 343.200195312 158.099609375 351.599609375 169.299804688 c 0
 364.200195312 186.799804688 365.599609375 213.400390625 365.599609375 237.900390625 c 2
 365.599609375 251.200195312 l 2xe8
 365.599609375 282.700195312 360 302.299804688 353 314.900390625 c 0
 337.599609375 341.5 313.099609375 335.900390625 302.599609375 337.299804688 c 2
 269 337.299804688 l 1
 269 387.700195312 l 1
 289.299804688 389.799804688 296.299804688 389.799804688 303.299804688 391.900390625 c 0
 327.799804688 398.200195312 353 429 353 482.900390625 c 0
 353 500.400390625 350.900390625 517.200195312 342.5 527.700195312 c 0
 336.200195312 535.400390625 327.799804688 539.599609375 313.099609375 539.599609375 c 0xf0
 295.599609375 539.599609375 281.599609375 534.700195312 269.700195312 527 c 0
 257.099609375 519.299804688 245.900390625 508.799804688 237.5 499.700195312 c 0
 229.799804688 491.299804688 224.900390625 483.599609375 222.799804688 480.099609375 c 1
 185.700195312 533.299804688 l 1
 204.599609375 556.400390625 228.400390625 576 258.5 588.599609375 c 0
 274.599609375 597 293.5 601.900390625 314.5 601.900390625 c 0
 357.900390625 601.900390625 390.799804688 588.599609375 412.5 569 c 0
 441.200195312 543.799804688 447.5 508.099609375 447.5 480.799804688 c 0xf0
 447.5 450.700195312 437.700195312 427.599609375 424.400390625 410.099609375 c 0
 406.900390625 386.299804688 383.099609375 372.299804688 369.799804688 364.599609375 c 1
 383.799804688 361.099609375 418.799804688 352.700195312 443.299804688 323.299804688 c 0
 458.700195312 305.099609375 469.200195312 279.200195312 469.200195312 242.099609375 c 0
 469.200195312 193.099609375 455.900390625 143.400390625 412.5 113.299804688 c 4
 387.299804688 95.7998046875 353.700195312 84.599609375 313.799804688 84.599609375 c 0
 291.400390625 84.599609375 271.799804688 88.7998046875 251.5 96.5 c 0
 223.5 106.299804688 198.299804688 121 175.200195312 140.599609375 c 1
EndSplineSet
EndChar
StartChar: uF26B4
Encoding: 992948 992948 1064
Width: 1000
Flags: MW
LayerCount: 2
Fore
SplineSet
700 -184 m 1
 720 -160 743 -130 766 -88 c 0
 807 -12 864 104 864 303 c 0
 864 663 713 764 700 789 c 1
 753 789 l 1
 898 672 960 495 960 302 c 0
 960 109 898 -67 753 -184 c 1
 700 -184 l 1
40 302 m 0
 40 497 102 672 248 789 c 1
 300 789 l 1
 278 762 251 727 226 676 c 0
 189 600 137 486 137 303 c 0
 137 -59 287 -157 300 -184 c 1
 248 -184 l 1
 102 -66 40 111 40 302 c 0
520.299804688 157.400390625 m 1
 557.400390625 218.299804688 l 1
 561.599609375 211.299804688 565.099609375 205 570 198 c 0
 581.200195312 182.599609375 595.200195312 171.400390625 608.5 163.700195312 c 0
 622.5 154.599609375 638.599609375 150.400390625 652.599609375 150.400390625 c 0
 677.099609375 150.400390625 691.099609375 159.5 699.5 175.599609375 c 0
 709.299804688 194.5 710.700195312 222.5 710.700195312 254 c 2
 710.700195312 273.599609375 l 2
 710.700195312 301.599609375 709.299804688 330.299804688 700.900390625 347.799804688 c 0
 696 358.299804688 687.599609375 365.299804688 675 365.299804688 c 0
 634.400390625 365.299804688 620.400390625 307.200195312 619.700195312 307.200195312 c 2
 552.5 307.200195312 l 1
 552.5 586.5 l 1
 788.400390625 586.5 l 1
 788.400390625 515.799804688 l 1
 635.799804688 515.799804688 l 1
 635.799804688 404.5 l 1
 647 410.799804688 658.200195312 416.400390625 677.799804688 416.400390625 c 0
 710 416.400390625 743.599609375 406.599609375 768.799804688 384.200195312 c 4
 797.5 358.299804688 814.299804688 316.299804688 814.299804688 253.299804688 c 0
 814.299804688 193.799804688 797.5 154.599609375 770.900390625 128.700195312 c 0
 737.299804688 95.7998046875 692.5 84.599609375 654.700195312 84.599609375 c 0
 631.599609375 84.599609375 612 90.2001953125 594.5 98.599609375 c 0
 553.200195312 115.400390625 530.099609375 143.400390625 520.299804688 157.400390625 c 1
175.200195312 140.599609375 m 1
 187.099609375 205.700195312 l 1
 209.5 186.799804688 233.299804688 171.400390625 260.599609375 161.599609375 c 0
 276 155.299804688 292.799804688 151.099609375 311 151.099609375 c 0
 330.599609375 151.099609375 343.200195312 158.099609375 351.599609375 169.299804688 c 0
 364.200195312 186.799804688 365.599609375 213.400390625 365.599609375 237.900390625 c 2
 365.599609375 251.200195312 l 2xe8
 365.599609375 282.700195312 360 302.299804688 353 314.900390625 c 0
 337.599609375 341.5 313.099609375 335.900390625 302.599609375 337.299804688 c 2
 269 337.299804688 l 1
 269 387.700195312 l 1
 289.299804688 389.799804688 296.299804688 389.799804688 303.299804688 391.900390625 c 0
 327.799804688 398.200195312 353 429 353 482.900390625 c 0
 353 500.400390625 350.900390625 517.200195312 342.5 527.700195312 c 0
 336.200195312 535.400390625 327.799804688 539.599609375 313.099609375 539.599609375 c 0xf0
 295.599609375 539.599609375 281.599609375 534.700195312 269.700195312 527 c 0
 257.099609375 519.299804688 245.900390625 508.799804688 237.5 499.700195312 c 0
 229.799804688 491.299804688 224.900390625 483.599609375 222.799804688 480.099609375 c 1
 185.700195312 533.299804688 l 1
 204.599609375 556.400390625 228.400390625 576 258.5 588.599609375 c 0
 274.599609375 597 293.5 601.900390625 314.5 601.900390625 c 0
 357.900390625 601.900390625 390.799804688 588.599609375 412.5 569 c 0
 441.200195312 543.799804688 447.5 508.099609375 447.5 480.799804688 c 0xf0
 447.5 450.700195312 437.700195312 427.599609375 424.400390625 410.099609375 c 0
 406.900390625 386.299804688 383.099609375 372.299804688 369.799804688 364.599609375 c 1
 383.799804688 361.099609375 418.799804688 352.700195312 443.299804688 323.299804688 c 0
 458.700195312 305.099609375 469.200195312 279.200195312 469.200195312 242.099609375 c 0
 469.200195312 193.099609375 455.900390625 143.400390625 412.5 113.299804688 c 4
 387.299804688 95.7998046875 353.700195312 84.599609375 313.799804688 84.599609375 c 0
 291.400390625 84.599609375 271.799804688 88.7998046875 251.5 96.5 c 0
 223.5 106.299804688 198.299804688 121 175.200195312 140.599609375 c 1
EndSplineSet
EndChar
StartChar: uF26BA
Encoding: 992954 992954 1070
Width: 1000
Flags: MW
LayerCount: 2
Fore
SplineSet
700 -184 m 1
 720 -160 743 -130 766 -88 c 0
 807 -12 864 104 864 303 c 0
 864 663 713 764 700 789 c 1
 753 789 l 1
 898 672 960 495 960 302 c 0
 960 109 898 -67 753 -184 c 1
 700 -184 l 1
40 302 m 0
 40 497 102 672 248 789 c 1
 300 789 l 1
 278 762 251 727 226 676 c 0
 189 600 137 486 137 303 c 0
 137 -59 287 -157 300 -184 c 1
 248 -184 l 1
 102 -66 40 111 40 302 c 0
542.700195312 502.5 m 1
 542.700195312 553.599609375 l 1
 623.900390625 553.599609375 671.5 569 710.700195312 601.900390625 c 1
 735.200195312 601.900390625 l 1
 735.200195312 151.099609375 l 1
 817.799804688 151.099609375 l 1
 817.799804688 100 l 1
 553.200195312 100 l 1
 553.200195312 151.099609375 l 1
 638.599609375 151.099609375 l 1
 638.599609375 513.700195312 l 1
 609.200195312 505.299804688 576.299804688 502.5 542.700195312 502.5 c 1
166.799804688 206.400390625 m 1
 166.799804688 272.900390625 l 1
 166.799804688 272.900390625 l 1
 319.400390625 586.5 l 1
 423 586.5 l 1
 423 272.900390625 l 1
 486 272.900390625 l 1
 486 206.400390625 l 1
 423 206.400390625 l 1
 423 100 l 1
 336.900390625 100 l 1
 336.900390625 206.400390625 l 1
 166.799804688 206.400390625 l 1
240.299804688 272.900390625 m 1
 339.700195312 272.900390625 l 1
 339.700195312 514.400390625 l 1
 329.900390625 469.599609375 308.900390625 426.200195312 240.299804688 272.900390625 c 1
EndSplineSet
EndChar
StartChar: uF26BB
Encoding: 992955 992955 1071
Width: 1000
Flags: MW
LayerCount: 2
Fore
SplineSet
700 -184 m 1
 720 -160 743 -130 766 -88 c 0
 807 -12 864 104 864 303 c 0
 864 663 713 764 700 789 c 1
 753 789 l 1
 898 672 960 495 960 302 c 0
 960 109 898 -67 753 -184 c 1
 700 -184 l 1
40 302 m 0
 40 497 102 672 248 789 c 1
 300 789 l 1
 278 762 251 727 226 676 c 0
 189 600 137 486 137 303 c 0
 137 -59 287 -157 300 -184 c 1
 248 -184 l 1
 102 -66 40 111 40 302 c 0
525.200195312 501.799804688 m 1
 544.799804688 550.099609375 584.700195312 601.900390625 661 601.900390625 c 0
 752 601.900390625 810.099609375 522.099609375 810.099609375 440.900390625 c 0
 810.099609375 369.5 758.299804688 333.099609375 677.799804688 260.299804688 c 2
 598 174.200195312 l 1
 810.099609375 175.599609375 l 1
 810.099609375 100 l 1
 531.5 100 l 1
 531.5 170 l 1
 633 277.799804688 l 2
 658.200195312 307.900390625 714.200195312 364.599609375 714.200195312 439.5 c 0
 714.200195312 486.400390625 693.200195312 531.900390625 652.599609375 531.900390625 c 0
 607.799804688 531.900390625 586.099609375 485.700195312 573.5 440.200195312 c 1
 525.200195312 501.799804688 l 1
166.799804688 206.400390625 m 1
 166.799804688 272.900390625 l 1
 166.799804688 272.900390625 l 1
 319.400390625 586.5 l 1
 423 586.5 l 1
 423 272.900390625 l 1
 486 272.900390625 l 1
 486 206.400390625 l 1
 423 206.400390625 l 1
 423 100 l 1
 336.900390625 100 l 1
 336.900390625 206.400390625 l 1
 166.799804688 206.400390625 l 1
240.299804688 272.900390625 m 1
 339.700195312 272.900390625 l 1
 339.700195312 514.400390625 l 1
 329.900390625 469.599609375 308.900390625 426.200195312 240.299804688 272.900390625 c 1
EndSplineSet
EndChar
StartChar: uF26BC
Encoding: 992956 992956 1072
Width: 1000
Flags: MW
LayerCount: 2
Fore
SplineSet
700 -184 m 1
 720 -160 743 -130 766 -88 c 0
 807 -12 864 104 864 303 c 0
 864 663 713 764 700 789 c 1
 753 789 l 1
 898 672 960 495 960 302 c 0
 960 109 898 -67 753 -184 c 1
 700 -184 l 1
40 302 m 0
 40 497 102 672 248 789 c 1
 300 789 l 1
 278 762 251 727 226 676 c 0
 189 600 137 486 137 303 c 0
 137 -59 287 -157 300 -184 c 1
 248 -184 l 1
 102 -66 40 111 40 302 c 0
525.200195312 140.599609375 m 1
 537.099609375 205.700195312 l 1
 559.5 186.799804688 583.299804688 171.400390625 610.599609375 161.599609375 c 0
 626 155.299804688 642.799804688 151.099609375 661 151.099609375 c 0
 680.599609375 151.099609375 693.200195312 158.099609375 701.599609375 169.299804688 c 0
 714.200195312 186.799804688 715.599609375 213.400390625 715.599609375 237.900390625 c 2
 715.599609375 251.200195312 l 2xe8
 715.599609375 282.700195312 710 302.299804688 703 314.900390625 c 0
 687.599609375 341.5 663.099609375 335.900390625 652.599609375 337.299804688 c 2
 619 337.299804688 l 1
 619 387.700195312 l 1
 639.299804688 389.799804688 646.299804688 389.799804688 653.299804688 391.900390625 c 0
 677.799804688 398.200195312 703 429 703 482.900390625 c 0
 703 500.400390625 700.900390625 517.200195312 692.5 527.700195312 c 0
 686.200195312 535.400390625 677.799804688 539.599609375 663.099609375 539.599609375 c 0xf0
 645.599609375 539.599609375 631.599609375 534.700195312 619.700195312 527 c 0
 607.099609375 519.299804688 595.900390625 508.799804688 587.5 499.700195312 c 0
 579.799804688 491.299804688 574.900390625 483.599609375 572.799804688 480.099609375 c 1
 535.700195312 533.299804688 l 1
 554.599609375 556.400390625 578.400390625 576 608.5 588.599609375 c 0
 624.599609375 597 643.5 601.900390625 664.5 601.900390625 c 0
 707.900390625 601.900390625 740.799804688 588.599609375 762.5 569 c 0
 791.200195312 543.799804688 797.5 508.099609375 797.5 480.799804688 c 0xf0
 797.5 450.700195312 787.700195312 427.599609375 774.400390625 410.099609375 c 0
 756.900390625 386.299804688 733.099609375 372.299804688 719.799804688 364.599609375 c 1
 733.799804688 361.099609375 768.799804688 352.700195312 793.299804688 323.299804688 c 0
 808.700195312 305.099609375 819.200195312 279.200195312 819.200195312 242.099609375 c 0
 819.200195312 193.099609375 805.900390625 143.400390625 762.5 113.299804688 c 4
 737.299804688 95.7998046875 703.700195312 84.599609375 663.799804688 84.599609375 c 0
 641.400390625 84.599609375 621.799804688 88.7998046875 601.5 96.5 c 0
 573.5 106.299804688 548.299804688 121 525.200195312 140.599609375 c 1
166.799804688 206.400390625 m 1
 166.799804688 272.900390625 l 1
 166.799804688 272.900390625 l 1
 319.400390625 586.5 l 1
 423 586.5 l 1
 423 272.900390625 l 1
 486 272.900390625 l 1
 486 206.400390625 l 1
 423 206.400390625 l 1
 423 100 l 1
 336.900390625 100 l 1
 336.900390625 206.400390625 l 1
 166.799804688 206.400390625 l 1
240.299804688 272.900390625 m 1
 339.700195312 272.900390625 l 1
 339.700195312 514.400390625 l 1
 329.900390625 469.599609375 308.900390625 426.200195312 240.299804688 272.900390625 c 1
EndSplineSet
EndChar
StartChar: uF26BD
Encoding: 992957 992957 1073
Width: 1000
Flags: MW
LayerCount: 2
Fore
SplineSet
700 -184 m 1
 720 -160 743 -130 766 -88 c 0
 807 -12 864 104 864 303 c 0
 864 663 713 764 700 789 c 1
 753 789 l 1
 898 672 960 495 960 302 c 0
 960 109 898 -67 753 -184 c 1
 700 -184 l 1
40 302 m 0
 40 497 102 672 248 789 c 1
 300 789 l 1
 278 762 251 727 226 676 c 0
 189 600 137 486 137 303 c 0
 137 -59 287 -157 300 -184 c 1
 248 -184 l 1
 102 -66 40 111 40 302 c 0
516.799804688 206.400390625 m 1
 516.799804688 272.900390625 l 1
 516.799804688 272.900390625 l 1
 669.400390625 586.5 l 1
 773 586.5 l 1
 773 272.900390625 l 1
 836 272.900390625 l 1
 836 206.400390625 l 1
 773 206.400390625 l 1
 773 100 l 1
 686.900390625 100 l 1
 686.900390625 206.400390625 l 1
 516.799804688 206.400390625 l 1
590.299804688 272.900390625 m 1
 689.700195312 272.900390625 l 1
 689.700195312 514.400390625 l 1
 679.900390625 469.599609375 658.900390625 426.200195312 590.299804688 272.900390625 c 1
166.799804688 206.400390625 m 1
 166.799804688 272.900390625 l 1
 166.799804688 272.900390625 l 1
 319.400390625 586.5 l 1
 423 586.5 l 1
 423 272.900390625 l 1
 486 272.900390625 l 1
 486 206.400390625 l 1
 423 206.400390625 l 1
 423 100 l 1
 336.900390625 100 l 1
 336.900390625 206.400390625 l 1
 166.799804688 206.400390625 l 1
240.299804688 272.900390625 m 1
 339.700195312 272.900390625 l 1
 339.700195312 514.400390625 l 1
 329.900390625 469.599609375 308.900390625 426.200195312 240.299804688 272.900390625 c 1
EndSplineSet
EndChar
StartChar: uF26BE
Encoding: 992958 992958 1074
Width: 1000
Flags: MW
LayerCount: 2
Fore
SplineSet
700 -184 m 1
 720 -160 743 -130 766 -88 c 0
 807 -12 864 104 864 303 c 0
 864 663 713 764 700 789 c 1
 753 789 l 1
 898 672 960 495 960 302 c 0
 960 109 898 -67 753 -184 c 1
 700 -184 l 1
40 302 m 0
 40 497 102 672 248 789 c 1
 300 789 l 1
 278 762 251 727 226 676 c 0
 189 600 137 486 137 303 c 0
 137 -59 287 -157 300 -184 c 1
 248 -184 l 1
 102 -66 40 111 40 302 c 0
520.299804688 157.400390625 m 1
 557.400390625 218.299804688 l 1
 561.599609375 211.299804688 565.099609375 205 570 198 c 0
 581.200195312 182.599609375 595.200195312 171.400390625 608.5 163.700195312 c 0
 622.5 154.599609375 638.599609375 150.400390625 652.599609375 150.400390625 c 0
 677.099609375 150.400390625 691.099609375 159.5 699.5 175.599609375 c 0
 709.299804688 194.5 710.700195312 222.5 710.700195312 254 c 2
 710.700195312 273.599609375 l 2
 710.700195312 301.599609375 709.299804688 330.299804688 700.900390625 347.799804688 c 0
 696 358.299804688 687.599609375 365.299804688 675 365.299804688 c 0
 634.400390625 365.299804688 620.400390625 307.200195312 619.700195312 307.200195312 c 2
 552.5 307.200195312 l 1
 552.5 586.5 l 1
 788.400390625 586.5 l 1
 788.400390625 515.799804688 l 1
 635.799804688 515.799804688 l 1
 635.799804688 404.5 l 1
 647 410.799804688 658.200195312 416.400390625 677.799804688 416.400390625 c 0
 710 416.400390625 743.599609375 406.599609375 768.799804688 384.200195312 c 4
 797.5 358.299804688 814.299804688 316.299804688 814.299804688 253.299804688 c 0
 814.299804688 193.799804688 797.5 154.599609375 770.900390625 128.700195312 c 0
 737.299804688 95.7998046875 692.5 84.599609375 654.700195312 84.599609375 c 0
 631.599609375 84.599609375 612 90.2001953125 594.5 98.599609375 c 0
 553.200195312 115.400390625 530.099609375 143.400390625 520.299804688 157.400390625 c 1
166.799804688 206.400390625 m 1
 166.799804688 272.900390625 l 1
 166.799804688 272.900390625 l 1
 319.400390625 586.5 l 1
 423 586.5 l 1
 423 272.900390625 l 1
 486 272.900390625 l 1
 486 206.400390625 l 1
 423 206.400390625 l 1
 423 100 l 1
 336.900390625 100 l 1
 336.900390625 206.400390625 l 1
 166.799804688 206.400390625 l 1
240.299804688 272.900390625 m 1
 339.700195312 272.900390625 l 1
 339.700195312 514.400390625 l 1
 329.900390625 469.599609375 308.900390625 426.200195312 240.299804688 272.900390625 c 1
EndSplineSet
EndChar
StartChar: uF26C0
Encoding: 992960 992960 1076
Width: 1000
Flags: MW
LayerCount: 2
Fore
SplineSet
700 -184 m 1
 720 -160 743 -130 766 -88 c 0
 807 -12 864 104 864 303 c 0
 864 663 713 764 700 789 c 1
 753 789 l 1
 898 672 960 495 960 302 c 0
 960 109 898 -67 753 -184 c 1
 700 -184 l 1
40 302 m 0
 40 497 102 672 248 789 c 1
 300 789 l 1
 278 762 251 727 226 676 c 0
 189 600 137 486 137 303 c 0
 137 -59 287 -157 300 -184 c 1
 248 -184 l 1
 102 -66 40 111 40 302 c 0
525.200195312 510.900390625 m 1
 525.200195312 586.5 l 1
 831.799804688 586.5 l 1
 831.799804688 515.799804688 l 1
 731.700195312 395.400390625 692.5 240 692.5 92.2998046875 c 1
 593.099609375 92.2998046875 l 1
 593.099609375 249.799804688 655.400390625 403.099609375 776.5 511.599609375 c 1
 525.200195312 510.900390625 l 1
166.799804688 206.400390625 m 1
 166.799804688 272.900390625 l 1
 166.799804688 272.900390625 l 1
 319.400390625 586.5 l 1
 423 586.5 l 1
 423 272.900390625 l 1
 486 272.900390625 l 1
 486 206.400390625 l 1
 423 206.400390625 l 1
 423 100 l 1
 336.900390625 100 l 1
 336.900390625 206.400390625 l 1
 166.799804688 206.400390625 l 1
240.299804688 272.900390625 m 1
 339.700195312 272.900390625 l 1
 339.700195312 514.400390625 l 1
 329.900390625 469.599609375 308.900390625 426.200195312 240.299804688 272.900390625 c 1
EndSplineSet
EndChar
StartChar: uF26C9
Encoding: 992969 992969 1085
Width: 1000
Flags: MW
LayerCount: 2
Fore
SplineSet
700 -184 m 1
 720 -160 743 -130 766 -88 c 0
 807 -12 864 104 864 303 c 0
 864 663 713 764 700 789 c 1
 753 789 l 1
 898 672 960 495 960 302 c 0
 960 109 898 -67 753 -184 c 1
 700 -184 l 1
40 302 m 0
 40 497 102 672 248 789 c 1
 300 789 l 1
 278 762 251 727 226 676 c 0
 189 600 137 486 137 303 c 0
 137 -59 287 -157 300 -184 c 1
 248 -184 l 1
 102 -66 40 111 40 302 c 0
525.200195312 339.400390625 m 0
 525.200195312 450.700195312 547.599609375 496.200195312 567.200195312 525.599609375 c 0
 601.5 577.400390625 652.599609375 601.900390625 707.200195312 601.900390625 c 0
 729.599609375 601.900390625 746.400390625 598.400390625 771.599609375 587.200195312 c 1
 771.599609375 522.799804688 l 1
 749.900390625 533.299804688 733.099609375 539.599609375 709.299804688 539.599609375 c 0
 668.700195312 539.599609375 648.400390625 513 641.400390625 497.599609375 c 0
 631.599609375 477.299804688 623.900390625 442.299804688 623.900390625 373.700195312 c 1
 635.799804688 408.700195312 658.200195312 445.099609375 699.5 445.099609375 c 0
 752.700195312 445.099609375 776.5 418.5 791.900390625 396.799804688 c 0
 818.5 357.599609375 821.299804688 319.799804688 821.299804688 275 c 2
 821.299804688 270.799804688 l 2
 821.299804688 232.299804688 820.599609375 188.900390625 796.099609375 149.700195312 c 0
 754.799804688 86 701.599609375 84.599609375 675 84.599609375 c 0
 632.299804688 84.599609375 598.700195312 103.5 574.900390625 132.200195312 c 0
 527.299804688 188.900390625 525.200195312 283.400390625 525.200195312 339.400390625 c 0
624.599609375 277.099609375 m 0
 624.599609375 271.5 624.599609375 265.900390625 624.599609375 260.299804688 c 4
 625.299804688 203.599609375 631.599609375 150.400390625 676.400390625 150.400390625 c 0
 712.099609375 150.400390625 721.200195312 181.900390625 722.599609375 219 c 0
 723.299804688 235.099609375 722.599609375 251.900390625 723.299804688 268 c 2
 723.299804688 291.799804688 l 2
 722.599609375 319.099609375 723.299804688 345.700195312 717 364.599609375 c 0
 711.400390625 382.099609375 700.200195312 394 677.799804688 394 c 0
 641.400390625 394 628.099609375 349.200195312 625.299804688 301.599609375 c 0
 624.599609375 293.200195312 624.599609375 285.5 624.599609375 277.099609375 c 0
170.299804688 157.400390625 m 1
 207.400390625 218.299804688 l 1
 211.599609375 211.299804688 215.099609375 205 220 198 c 0
 231.200195312 182.599609375 245.200195312 171.400390625 258.5 163.700195312 c 0
 272.5 154.599609375 288.599609375 150.400390625 302.599609375 150.400390625 c 0
 327.099609375 150.400390625 341.099609375 159.5 349.5 175.599609375 c 0
 359.299804688 194.5 360.700195312 222.5 360.700195312 254 c 2
 360.700195312 273.599609375 l 2
 360.700195312 301.599609375 359.299804688 330.299804688 350.900390625 347.799804688 c 0
 346 358.299804688 337.599609375 365.299804688 325 365.299804688 c 0
 284.400390625 365.299804688 270.400390625 307.200195312 269.700195312 307.200195312 c 2
 202.5 307.200195312 l 1
 202.5 586.5 l 1
 438.400390625 586.5 l 1
 438.400390625 515.799804688 l 1
 285.799804688 515.799804688 l 1
 285.799804688 404.5 l 1
 297 410.799804688 308.200195312 416.400390625 327.799804688 416.400390625 c 0
 360 416.400390625 393.599609375 406.599609375 418.799804688 384.200195312 c 4
 447.5 358.299804688 464.299804688 316.299804688 464.299804688 253.299804688 c 0
 464.299804688 193.799804688 447.5 154.599609375 420.900390625 128.700195312 c 0
 387.299804688 95.7998046875 342.5 84.599609375 304.700195312 84.599609375 c 0
 281.599609375 84.599609375 262 90.2001953125 244.5 98.599609375 c 0
 203.200195312 115.400390625 180.099609375 143.400390625 170.299804688 157.400390625 c 1
EndSplineSet
EndChar
StartChar: uF26CA
Encoding: 992970 992970 1086
Width: 1000
Flags: MW
LayerCount: 2
Fore
SplineSet
700 -184 m 1
 720 -160 743 -130 766 -88 c 0
 807 -12 864 104 864 303 c 0
 864 663 713 764 700 789 c 1
 753 789 l 1
 898 672 960 495 960 302 c 0
 960 109 898 -67 753 -184 c 1
 700 -184 l 1
40 302 m 0
 40 497 102 672 248 789 c 1
 300 789 l 1
 278 762 251 727 226 676 c 0
 189 600 137 486 137 303 c 0
 137 -59 287 -157 300 -184 c 1
 248 -184 l 1
 102 -66 40 111 40 302 c 0
525.200195312 510.900390625 m 1
 525.200195312 586.5 l 1
 831.799804688 586.5 l 1
 831.799804688 515.799804688 l 1
 731.700195312 395.400390625 692.5 240 692.5 92.2998046875 c 1
 593.099609375 92.2998046875 l 1
 593.099609375 249.799804688 655.400390625 403.099609375 776.5 511.599609375 c 1
 525.200195312 510.900390625 l 1
170.299804688 157.400390625 m 1
 207.400390625 218.299804688 l 1
 211.599609375 211.299804688 215.099609375 205 220 198 c 0
 231.200195312 182.599609375 245.200195312 171.400390625 258.5 163.700195312 c 0
 272.5 154.599609375 288.599609375 150.400390625 302.599609375 150.400390625 c 0
 327.099609375 150.400390625 341.099609375 159.5 349.5 175.599609375 c 0
 359.299804688 194.5 360.700195312 222.5 360.700195312 254 c 2
 360.700195312 273.599609375 l 2
 360.700195312 301.599609375 359.299804688 330.299804688 350.900390625 347.799804688 c 0
 346 358.299804688 337.599609375 365.299804688 325 365.299804688 c 0
 284.400390625 365.299804688 270.400390625 307.200195312 269.700195312 307.200195312 c 2
 202.5 307.200195312 l 1
 202.5 586.5 l 1
 438.400390625 586.5 l 1
 438.400390625 515.799804688 l 1
 285.799804688 515.799804688 l 1
 285.799804688 404.5 l 1
 297 410.799804688 308.200195312 416.400390625 327.799804688 416.400390625 c 0
 360 416.400390625 393.599609375 406.599609375 418.799804688 384.200195312 c 4
 447.5 358.299804688 464.299804688 316.299804688 464.299804688 253.299804688 c 0
 464.299804688 193.799804688 447.5 154.599609375 420.900390625 128.700195312 c 0
 387.299804688 95.7998046875 342.5 84.599609375 304.700195312 84.599609375 c 0
 281.599609375 84.599609375 262 90.2001953125 244.5 98.599609375 c 0
 203.200195312 115.400390625 180.099609375 143.400390625 170.299804688 157.400390625 c 1
EndSplineSet
EndChar
StartChar: uF26CB
Encoding: 992971 992971 1087
Width: 1000
Flags: MW
LayerCount: 2
Fore
SplineSet
700 -184 m 1
 720 -160 743 -130 766 -88 c 0
 807 -12 864 104 864 303 c 0
 864 663 713 764 700 789 c 1
 753 789 l 1
 898 672 960 495 960 302 c 0
 960 109 898 -67 753 -184 c 1
 700 -184 l 1
40 302 m 0
 40 497 102 672 248 789 c 1
 300 789 l 1
 278 762 251 727 226 676 c 0
 189 600 137 486 137 303 c 0
 137 -59 287 -157 300 -184 c 1
 248 -184 l 1
 102 -66 40 111 40 302 c 0
525.200195312 240.700195312 m 0xf2
 525.200195312 300.900390625 551.099609375 345.700195312 612 362.5 c 1
 596.599609375 368.799804688 535.700195312 384.200195312 535.700195312 466.099609375 c 0
 535.700195312 534 565.799804688 601.900390625 672.900390625 601.900390625 c 2
 673.599609375 601.900390625 l 2
 780.700195312 601.900390625 810.099609375 534 810.099609375 465.400390625 c 0xec
 810.099609375 375.799804688 734.5 365.299804688 733.799804688 362.5 c 1
 794.700195312 345.700195312 820.599609375 300.900390625 820.599609375 240.700195312 c 0
 820.599609375 162.299804688 788.400390625 84.599609375 672.900390625 84.599609375 c 0
 557.400390625 84.599609375 525.200195312 163 525.200195312 240.700195312 c 0xf2
623.200195312 233 m 2
 623.900390625 206.400390625 623.900390625 181.200195312 635.799804688 165.799804688 c 0
 642.799804688 156.700195312 654 151.099609375 672.200195312 151.099609375 c 0
 687.599609375 151.099609375 699.5 156 706.5 163 c 4
 725.400390625 181.200195312 722.599609375 216.200195312 723.299804688 238.599609375 c 2
 723.299804688 253.299804688 l 2xf2
 722.599609375 282 720.5 306.5 710 321.200195312 c 0
 703 331.700195312 691.099609375 337.299804688 672.900390625 337.299804688 c 0
 654.700195312 337.299804688 643.5 331 636.5 321.200195312 c 0
 621.099609375 300.900390625 623.900390625 267.299804688 623.200195312 249.099609375 c 2
 623.200195312 233 l 2
624.599609375 457.700195312 m 2xec
 624.599609375 432.5 627.400390625 414.299804688 635.799804688 402.400390625 c 0
 642.799804688 392.599609375 654.700195312 387.700195312 672.200195312 387.700195312 c 0
 690.400390625 387.700195312 702.299804688 393.299804688 709.299804688 402.400390625 c 0
 719.799804688 416.400390625 721.200195312 437.400390625 721.200195312 458.400390625 c 2
 721.200195312 471 l 2
 721.200195312 493.400390625 719.099609375 510.200195312 712.799804688 521.400390625 c 0
 705.799804688 534 693.900390625 539.599609375 673.599609375 539.599609375 c 0
 655.400390625 539.599609375 644.200195312 534.700195312 637.200195312 527 c 0
 624.599609375 513 625.299804688 489.900390625 624.599609375 470.299804688 c 2
 624.599609375 457.700195312 l 2xec
170.299804688 157.400390625 m 1
 207.400390625 218.299804688 l 1
 211.599609375 211.299804688 215.099609375 205 220 198 c 0
 231.200195312 182.599609375 245.200195312 171.400390625 258.5 163.700195312 c 0
 272.5 154.599609375 288.599609375 150.400390625 302.599609375 150.400390625 c 0
 327.099609375 150.400390625 341.099609375 159.5 349.5 175.599609375 c 0
 359.299804688 194.5 360.700195312 222.5 360.700195312 254 c 2
 360.700195312 273.599609375 l 2
 360.700195312 301.599609375 359.299804688 330.299804688 350.900390625 347.799804688 c 0
 346 358.299804688 337.599609375 365.299804688 325 365.299804688 c 0
 284.400390625 365.299804688 270.400390625 307.200195312 269.700195312 307.200195312 c 2
 202.5 307.200195312 l 1
 202.5 586.5 l 1
 438.400390625 586.5 l 1
 438.400390625 515.799804688 l 1
 285.799804688 515.799804688 l 1
 285.799804688 404.5 l 1
 297 410.799804688 308.200195312 416.400390625 327.799804688 416.400390625 c 0
 360 416.400390625 393.599609375 406.599609375 418.799804688 384.200195312 c 4
 447.5 358.299804688 464.299804688 316.299804688 464.299804688 253.299804688 c 0
 464.299804688 193.799804688 447.5 154.599609375 420.900390625 128.700195312 c 0
 387.299804688 95.7998046875 342.5 84.599609375 304.700195312 84.599609375 c 0
 281.599609375 84.599609375 262 90.2001953125 244.5 98.599609375 c 0
 203.200195312 115.400390625 180.099609375 143.400390625 170.299804688 157.400390625 c 1
EndSplineSet
EndChar
StartChar: uF26CD
Encoding: 992973 992973 1089
Width: 1000
Flags: MW
LayerCount: 2
Fore
SplineSet
700 -184 m 1
 720 -160 743 -130 766 -88 c 0
 807 -12 864 104 864 303 c 0
 864 663 713 764 700 789 c 1
 753 789 l 1
 898 672 960 495 960 302 c 0
 960 109 898 -67 753 -184 c 1
 700 -184 l 1
40 302 m 0
 40 497 102 672 248 789 c 1
 300 789 l 1
 278 762 251 727 226 676 c 0
 189 600 137 486 137 303 c 0
 137 -59 287 -157 300 -184 c 1
 248 -184 l 1
 102 -66 40 111 40 302 c 0
523.799804688 340.799804688 m 0
 523.799804688 349.200195312 523.799804688 357.599609375 523.799804688 366 c 0
 525.200195312 456.299804688 536.400390625 564.799804688 626 594.200195312 c 0
 638.599609375 599.099609375 653.299804688 601.900390625 670.099609375 601.900390625 c 0
 702.299804688 601.900390625 738 590 767.400390625 557.799804688 c 0
 817.099609375 503.200195312 817.099609375 401.700195312 817.099609375 353.400390625 c 2
 817.099609375 346.400390625 l 2
 817.099609375 249.099609375 815.700195312 122.400390625 713.5 91.599609375 c 4
 700.900390625 87.400390625 686.200195312 84.599609375 669.400390625 84.599609375 c 0
 530.099609375 84.599609375 523.799804688 226 523.799804688 340.799804688 c 0
616.900390625 346.400390625 m 0
 616.900390625 208.5 620.400390625 163.700195312 649.799804688 142 c 0
 655.400390625 138.5 662.400390625 135 670.099609375 135 c 0
 673.599609375 135 688.299804688 135.700195312 700.900390625 153.200195312 c 0
 724 184 721.900390625 240 723.299804688 349.900390625 c 0
 723.299804688 357.599609375 724 366 724 375.099609375 c 0
 724 427.599609375 721.200195312 491.299804688 711.400390625 516.5 c 0
 703.700195312 536.099609375 688.299804688 550.799804688 670.099609375 550.799804688 c 0
 617.599609375 550.799804688 616.900390625 461.200195312 616.900390625 377.200195312 c 0
 616.900390625 366.700195312 616.900390625 356.200195312 616.900390625 346.400390625 c 0
175.200195312 339.400390625 m 0
 175.200195312 450.700195312 197.599609375 496.200195312 217.200195312 525.599609375 c 0
 251.5 577.400390625 302.599609375 601.900390625 357.200195312 601.900390625 c 0
 379.599609375 601.900390625 396.400390625 598.400390625 421.599609375 587.200195312 c 1
 421.599609375 522.799804688 l 1
 399.900390625 533.299804688 383.099609375 539.599609375 359.299804688 539.599609375 c 0
 318.700195312 539.599609375 298.400390625 513 291.400390625 497.599609375 c 0
 281.599609375 477.299804688 273.900390625 442.299804688 273.900390625 373.700195312 c 1
 285.799804688 408.700195312 308.200195312 445.099609375 349.5 445.099609375 c 0
 402.700195312 445.099609375 426.5 418.5 441.900390625 396.799804688 c 0
 468.5 357.599609375 471.299804688 319.799804688 471.299804688 275 c 2
 471.299804688 270.799804688 l 2
 471.299804688 232.299804688 470.599609375 188.900390625 446.099609375 149.700195312 c 0
 404.799804688 86 351.599609375 84.599609375 325 84.599609375 c 0
 282.299804688 84.599609375 248.700195312 103.5 224.900390625 132.200195312 c 0
 177.299804688 188.900390625 175.200195312 283.400390625 175.200195312 339.400390625 c 0
274.599609375 277.099609375 m 0
 274.599609375 271.5 274.599609375 265.900390625 274.599609375 260.299804688 c 4
 275.299804688 203.599609375 281.599609375 150.400390625 326.400390625 150.400390625 c 0
 362.099609375 150.400390625 371.200195312 181.900390625 372.599609375 219 c 0
 373.299804688 235.099609375 372.599609375 251.900390625 373.299804688 268 c 2
 373.299804688 291.799804688 l 2
 372.599609375 319.099609375 373.299804688 345.700195312 367 364.599609375 c 0
 361.400390625 382.099609375 350.200195312 394 327.799804688 394 c 0
 291.400390625 394 278.099609375 349.200195312 275.299804688 301.599609375 c 0
 274.599609375 293.200195312 274.599609375 285.5 274.599609375 277.099609375 c 0
EndSplineSet
EndChar
StartChar: uF26D0
Encoding: 992976 992976 1092
Width: 1000
Flags: MW
LayerCount: 2
Fore
SplineSet
700 -184 m 1
 720 -160 743 -130 766 -88 c 0
 807 -12 864 104 864 303 c 0
 864 663 713 764 700 789 c 1
 753 789 l 1
 898 672 960 495 960 302 c 0
 960 109 898 -67 753 -184 c 1
 700 -184 l 1
40 302 m 0
 40 497 102 672 248 789 c 1
 300 789 l 1
 278 762 251 727 226 676 c 0
 189 600 137 486 137 303 c 0
 137 -59 287 -157 300 -184 c 1
 248 -184 l 1
 102 -66 40 111 40 302 c 0
525.200195312 140.599609375 m 1
 537.099609375 205.700195312 l 1
 559.5 186.799804688 583.299804688 171.400390625 610.599609375 161.599609375 c 0
 626 155.299804688 642.799804688 151.099609375 661 151.099609375 c 0
 680.599609375 151.099609375 693.200195312 158.099609375 701.599609375 169.299804688 c 0
 714.200195312 186.799804688 715.599609375 213.400390625 715.599609375 237.900390625 c 2
 715.599609375 251.200195312 l 2xe8
 715.599609375 282.700195312 710 302.299804688 703 314.900390625 c 0
 687.599609375 341.5 663.099609375 335.900390625 652.599609375 337.299804688 c 2
 619 337.299804688 l 1
 619 387.700195312 l 1
 639.299804688 389.799804688 646.299804688 389.799804688 653.299804688 391.900390625 c 0
 677.799804688 398.200195312 703 429 703 482.900390625 c 0
 703 500.400390625 700.900390625 517.200195312 692.5 527.700195312 c 0
 686.200195312 535.400390625 677.799804688 539.599609375 663.099609375 539.599609375 c 0xf0
 645.599609375 539.599609375 631.599609375 534.700195312 619.700195312 527 c 0
 607.099609375 519.299804688 595.900390625 508.799804688 587.5 499.700195312 c 0
 579.799804688 491.299804688 574.900390625 483.599609375 572.799804688 480.099609375 c 1
 535.700195312 533.299804688 l 1
 554.599609375 556.400390625 578.400390625 576 608.5 588.599609375 c 0
 624.599609375 597 643.5 601.900390625 664.5 601.900390625 c 0
 707.900390625 601.900390625 740.799804688 588.599609375 762.5 569 c 0
 791.200195312 543.799804688 797.5 508.099609375 797.5 480.799804688 c 0xf0
 797.5 450.700195312 787.700195312 427.599609375 774.400390625 410.099609375 c 0
 756.900390625 386.299804688 733.099609375 372.299804688 719.799804688 364.599609375 c 1
 733.799804688 361.099609375 768.799804688 352.700195312 793.299804688 323.299804688 c 0
 808.700195312 305.099609375 819.200195312 279.200195312 819.200195312 242.099609375 c 0
 819.200195312 193.099609375 805.900390625 143.400390625 762.5 113.299804688 c 4
 737.299804688 95.7998046875 703.700195312 84.599609375 663.799804688 84.599609375 c 0
 641.400390625 84.599609375 621.799804688 88.7998046875 601.5 96.5 c 0
 573.5 106.299804688 548.299804688 121 525.200195312 140.599609375 c 1
175.200195312 339.400390625 m 0
 175.200195312 450.700195312 197.599609375 496.200195312 217.200195312 525.599609375 c 0
 251.5 577.400390625 302.599609375 601.900390625 357.200195312 601.900390625 c 0
 379.599609375 601.900390625 396.400390625 598.400390625 421.599609375 587.200195312 c 1
 421.599609375 522.799804688 l 1
 399.900390625 533.299804688 383.099609375 539.599609375 359.299804688 539.599609375 c 0
 318.700195312 539.599609375 298.400390625 513 291.400390625 497.599609375 c 0
 281.599609375 477.299804688 273.900390625 442.299804688 273.900390625 373.700195312 c 1
 285.799804688 408.700195312 308.200195312 445.099609375 349.5 445.099609375 c 0
 402.700195312 445.099609375 426.5 418.5 441.900390625 396.799804688 c 0
 468.5 357.599609375 471.299804688 319.799804688 471.299804688 275 c 2
 471.299804688 270.799804688 l 2
 471.299804688 232.299804688 470.599609375 188.900390625 446.099609375 149.700195312 c 0
 404.799804688 86 351.599609375 84.599609375 325 84.599609375 c 0
 282.299804688 84.599609375 248.700195312 103.5 224.900390625 132.200195312 c 0
 177.299804688 188.900390625 175.200195312 283.400390625 175.200195312 339.400390625 c 0
274.599609375 277.099609375 m 0
 274.599609375 271.5 274.599609375 265.900390625 274.599609375 260.299804688 c 4
 275.299804688 203.599609375 281.599609375 150.400390625 326.400390625 150.400390625 c 0
 362.099609375 150.400390625 371.200195312 181.900390625 372.599609375 219 c 0
 373.299804688 235.099609375 372.599609375 251.900390625 373.299804688 268 c 2
 373.299804688 291.799804688 l 2
 372.599609375 319.099609375 373.299804688 345.700195312 367 364.599609375 c 0
 361.400390625 382.099609375 350.200195312 394 327.799804688 394 c 0
 291.400390625 394 278.099609375 349.200195312 275.299804688 301.599609375 c 0
 274.599609375 293.200195312 274.599609375 285.5 274.599609375 277.099609375 c 0
EndSplineSet
EndChar
StartChar: uF26D5
Encoding: 992981 992981 1097
Width: 1000
Flags: MW
LayerCount: 2
Fore
SplineSet
700 -184 m 1
 720 -160 743 -130 766 -88 c 0
 807 -12 864 104 864 303 c 0
 864 663 713 764 700 789 c 1
 753 789 l 1
 898 672 960 495 960 302 c 0
 960 109 898 -67 753 -184 c 1
 700 -184 l 1
40 302 m 0
 40 497 102 672 248 789 c 1
 300 789 l 1
 278 762 251 727 226 676 c 0
 189 600 137 486 137 303 c 0
 137 -59 287 -157 300 -184 c 1
 248 -184 l 1
 102 -66 40 111 40 302 c 0
525.200195312 240.700195312 m 0xf2
 525.200195312 300.900390625 551.099609375 345.700195312 612 362.5 c 1
 596.599609375 368.799804688 535.700195312 384.200195312 535.700195312 466.099609375 c 0
 535.700195312 534 565.799804688 601.900390625 672.900390625 601.900390625 c 2
 673.599609375 601.900390625 l 2
 780.700195312 601.900390625 810.099609375 534 810.099609375 465.400390625 c 0xec
 810.099609375 375.799804688 734.5 365.299804688 733.799804688 362.5 c 1
 794.700195312 345.700195312 820.599609375 300.900390625 820.599609375 240.700195312 c 0
 820.599609375 162.299804688 788.400390625 84.599609375 672.900390625 84.599609375 c 0
 557.400390625 84.599609375 525.200195312 163 525.200195312 240.700195312 c 0xf2
623.200195312 233 m 2
 623.900390625 206.400390625 623.900390625 181.200195312 635.799804688 165.799804688 c 0
 642.799804688 156.700195312 654 151.099609375 672.200195312 151.099609375 c 0
 687.599609375 151.099609375 699.5 156 706.5 163 c 4
 725.400390625 181.200195312 722.599609375 216.200195312 723.299804688 238.599609375 c 2
 723.299804688 253.299804688 l 2xf2
 722.599609375 282 720.5 306.5 710 321.200195312 c 0
 703 331.700195312 691.099609375 337.299804688 672.900390625 337.299804688 c 0
 654.700195312 337.299804688 643.5 331 636.5 321.200195312 c 0
 621.099609375 300.900390625 623.900390625 267.299804688 623.200195312 249.099609375 c 2
 623.200195312 233 l 2
624.599609375 457.700195312 m 2xec
 624.599609375 432.5 627.400390625 414.299804688 635.799804688 402.400390625 c 0
 642.799804688 392.599609375 654.700195312 387.700195312 672.200195312 387.700195312 c 0
 690.400390625 387.700195312 702.299804688 393.299804688 709.299804688 402.400390625 c 0
 719.799804688 416.400390625 721.200195312 437.400390625 721.200195312 458.400390625 c 2
 721.200195312 471 l 2
 721.200195312 493.400390625 719.099609375 510.200195312 712.799804688 521.400390625 c 0
 705.799804688 534 693.900390625 539.599609375 673.599609375 539.599609375 c 0
 655.400390625 539.599609375 644.200195312 534.700195312 637.200195312 527 c 0
 624.599609375 513 625.299804688 489.900390625 624.599609375 470.299804688 c 2
 624.599609375 457.700195312 l 2xec
175.200195312 339.400390625 m 0
 175.200195312 450.700195312 197.599609375 496.200195312 217.200195312 525.599609375 c 0
 251.5 577.400390625 302.599609375 601.900390625 357.200195312 601.900390625 c 0
 379.599609375 601.900390625 396.400390625 598.400390625 421.599609375 587.200195312 c 1
 421.599609375 522.799804688 l 1
 399.900390625 533.299804688 383.099609375 539.599609375 359.299804688 539.599609375 c 0
 318.700195312 539.599609375 298.400390625 513 291.400390625 497.599609375 c 0
 281.599609375 477.299804688 273.900390625 442.299804688 273.900390625 373.700195312 c 1
 285.799804688 408.700195312 308.200195312 445.099609375 349.5 445.099609375 c 0
 402.700195312 445.099609375 426.5 418.5 441.900390625 396.799804688 c 0
 468.5 357.599609375 471.299804688 319.799804688 471.299804688 275 c 2
 471.299804688 270.799804688 l 2
 471.299804688 232.299804688 470.599609375 188.900390625 446.099609375 149.700195312 c 0
 404.799804688 86 351.599609375 84.599609375 325 84.599609375 c 0
 282.299804688 84.599609375 248.700195312 103.5 224.900390625 132.200195312 c 0
 177.299804688 188.900390625 175.200195312 283.400390625 175.200195312 339.400390625 c 0
274.599609375 277.099609375 m 0
 274.599609375 271.5 274.599609375 265.900390625 274.599609375 260.299804688 c 4
 275.299804688 203.599609375 281.599609375 150.400390625 326.400390625 150.400390625 c 0
 362.099609375 150.400390625 371.200195312 181.900390625 372.599609375 219 c 0
 373.299804688 235.099609375 372.599609375 251.900390625 373.299804688 268 c 2
 373.299804688 291.799804688 l 2
 372.599609375 319.099609375 373.299804688 345.700195312 367 364.599609375 c 0
 361.400390625 382.099609375 350.200195312 394 327.799804688 394 c 0
 291.400390625 394 278.099609375 349.200195312 275.299804688 301.599609375 c 0
 274.599609375 293.200195312 274.599609375 285.5 274.599609375 277.099609375 c 0
EndSplineSet
EndChar
StartChar: uF26D7
Encoding: 992983 992983 1099
Width: 1000
Flags: MW
LayerCount: 2
Fore
SplineSet
700 -184 m 1
 720 -160 743 -130 766 -88 c 0
 807 -12 864 104 864 303 c 0
 864 663 713 764 700 789 c 1
 753 789 l 1
 898 672 960 495 960 302 c 0
 960 109 898 -67 753 -184 c 1
 700 -184 l 1
40 302 m 0
 40 497 102 672 248 789 c 1
 300 789 l 1
 278 762 251 727 226 676 c 0
 189 600 137 486 137 303 c 0
 137 -59 287 -157 300 -184 c 1
 248 -184 l 1
 102 -66 40 111 40 302 c 0
523.799804688 340.799804688 m 0
 523.799804688 349.200195312 523.799804688 357.599609375 523.799804688 366 c 0
 525.200195312 456.299804688 536.400390625 564.799804688 626 594.200195312 c 0
 638.599609375 599.099609375 653.299804688 601.900390625 670.099609375 601.900390625 c 0
 702.299804688 601.900390625 738 590 767.400390625 557.799804688 c 0
 817.099609375 503.200195312 817.099609375 401.700195312 817.099609375 353.400390625 c 2
 817.099609375 346.400390625 l 2
 817.099609375 249.099609375 815.700195312 122.400390625 713.5 91.599609375 c 4
 700.900390625 87.400390625 686.200195312 84.599609375 669.400390625 84.599609375 c 0
 530.099609375 84.599609375 523.799804688 226 523.799804688 340.799804688 c 0
616.900390625 346.400390625 m 0
 616.900390625 208.5 620.400390625 163.700195312 649.799804688 142 c 0
 655.400390625 138.5 662.400390625 135 670.099609375 135 c 0
 673.599609375 135 688.299804688 135.700195312 700.900390625 153.200195312 c 0
 724 184 721.900390625 240 723.299804688 349.900390625 c 0
 723.299804688 357.599609375 724 366 724 375.099609375 c 0
 724 427.599609375 721.200195312 491.299804688 711.400390625 516.5 c 0
 703.700195312 536.099609375 688.299804688 550.799804688 670.099609375 550.799804688 c 0
 617.599609375 550.799804688 616.900390625 461.200195312 616.900390625 377.200195312 c 0
 616.900390625 366.700195312 616.900390625 356.200195312 616.900390625 346.400390625 c 0
175.200195312 510.900390625 m 1
 175.200195312 586.5 l 1
 481.799804688 586.5 l 1
 481.799804688 515.799804688 l 1
 381.700195312 395.400390625 342.5 240 342.5 92.2998046875 c 1
 243.099609375 92.2998046875 l 1
 243.099609375 249.799804688 305.400390625 403.099609375 426.5 511.599609375 c 1
 175.200195312 510.900390625 l 1
EndSplineSet
EndChar
StartChar: uF26DD
Encoding: 992989 992989 1105
Width: 1000
Flags: MW
LayerCount: 2
Fore
SplineSet
700 -184 m 1
 720 -160 743 -130 766 -88 c 0
 807 -12 864 104 864 303 c 0
 864 663 713 764 700 789 c 1
 753 789 l 1
 898 672 960 495 960 302 c 0
 960 109 898 -67 753 -184 c 1
 700 -184 l 1
40 302 m 0
 40 497 102 672 248 789 c 1
 300 789 l 1
 278 762 251 727 226 676 c 0
 189 600 137 486 137 303 c 0
 137 -59 287 -157 300 -184 c 1
 248 -184 l 1
 102 -66 40 111 40 302 c 0
525.200195312 339.400390625 m 0
 525.200195312 450.700195312 547.599609375 496.200195312 567.200195312 525.599609375 c 0
 601.5 577.400390625 652.599609375 601.900390625 707.200195312 601.900390625 c 0
 729.599609375 601.900390625 746.400390625 598.400390625 771.599609375 587.200195312 c 1
 771.599609375 522.799804688 l 1
 749.900390625 533.299804688 733.099609375 539.599609375 709.299804688 539.599609375 c 0
 668.700195312 539.599609375 648.400390625 513 641.400390625 497.599609375 c 0
 631.599609375 477.299804688 623.900390625 442.299804688 623.900390625 373.700195312 c 1
 635.799804688 408.700195312 658.200195312 445.099609375 699.5 445.099609375 c 0
 752.700195312 445.099609375 776.5 418.5 791.900390625 396.799804688 c 0
 818.5 357.599609375 821.299804688 319.799804688 821.299804688 275 c 2
 821.299804688 270.799804688 l 2
 821.299804688 232.299804688 820.599609375 188.900390625 796.099609375 149.700195312 c 0
 754.799804688 86 701.599609375 84.599609375 675 84.599609375 c 0
 632.299804688 84.599609375 598.700195312 103.5 574.900390625 132.200195312 c 0
 527.299804688 188.900390625 525.200195312 283.400390625 525.200195312 339.400390625 c 0
624.599609375 277.099609375 m 0
 624.599609375 271.5 624.599609375 265.900390625 624.599609375 260.299804688 c 4
 625.299804688 203.599609375 631.599609375 150.400390625 676.400390625 150.400390625 c 0
 712.099609375 150.400390625 721.200195312 181.900390625 722.599609375 219 c 0
 723.299804688 235.099609375 722.599609375 251.900390625 723.299804688 268 c 2
 723.299804688 291.799804688 l 2
 722.599609375 319.099609375 723.299804688 345.700195312 717 364.599609375 c 0
 711.400390625 382.099609375 700.200195312 394 677.799804688 394 c 0
 641.400390625 394 628.099609375 349.200195312 625.299804688 301.599609375 c 0
 624.599609375 293.200195312 624.599609375 285.5 624.599609375 277.099609375 c 0
175.200195312 510.900390625 m 1
 175.200195312 586.5 l 1
 481.799804688 586.5 l 1
 481.799804688 515.799804688 l 1
 381.700195312 395.400390625 342.5 240 342.5 92.2998046875 c 1
 243.099609375 92.2998046875 l 1
 243.099609375 249.799804688 305.400390625 403.099609375 426.5 511.599609375 c 1
 175.200195312 510.900390625 l 1
EndSplineSet
EndChar
StartChar: uF26DE
Encoding: 992990 992990 1106
Width: 1000
Flags: MW
LayerCount: 2
Fore
SplineSet
700 -184 m 1
 720 -160 743 -130 766 -88 c 0
 807 -12 864 104 864 303 c 0
 864 663 713 764 700 789 c 1
 753 789 l 1
 898 672 960 495 960 302 c 0
 960 109 898 -67 753 -184 c 1
 700 -184 l 1
40 302 m 0
 40 497 102 672 248 789 c 1
 300 789 l 1
 278 762 251 727 226 676 c 0
 189 600 137 486 137 303 c 0
 137 -59 287 -157 300 -184 c 1
 248 -184 l 1
 102 -66 40 111 40 302 c 0
525.200195312 510.900390625 m 1
 525.200195312 586.5 l 1
 831.799804688 586.5 l 1
 831.799804688 515.799804688 l 1
 731.700195312 395.400390625 692.5 240 692.5 92.2998046875 c 1
 593.099609375 92.2998046875 l 1
 593.099609375 249.799804688 655.400390625 403.099609375 776.5 511.599609375 c 1
 525.200195312 510.900390625 l 1
175.200195312 510.900390625 m 1
 175.200195312 586.5 l 1
 481.799804688 586.5 l 1
 481.799804688 515.799804688 l 1
 381.700195312 395.400390625 342.5 240 342.5 92.2998046875 c 1
 243.099609375 92.2998046875 l 1
 243.099609375 249.799804688 305.400390625 403.099609375 426.5 511.599609375 c 1
 175.200195312 510.900390625 l 1
EndSplineSet
EndChar
StartChar: uF26E4
Encoding: 992996 992996 1112
Width: 1000
Flags: MW
LayerCount: 2
Fore
SplineSet
700 -184 m 1
 720 -160 743 -130 766 -88 c 0
 807 -12 864 104 864 303 c 0
 864 663 713 764 700 789 c 1
 753 789 l 1
 898 672 960 495 960 302 c 0
 960 109 898 -67 753 -184 c 1
 700 -184 l 1
40 302 m 0
 40 497 102 672 248 789 c 1
 300 789 l 1
 278 762 251 727 226 676 c 0
 189 600 137 486 137 303 c 0
 137 -59 287 -157 300 -184 c 1
 248 -184 l 1
 102 -66 40 111 40 302 c 0
525.200195312 140.599609375 m 1
 537.099609375 205.700195312 l 1
 559.5 186.799804688 583.299804688 171.400390625 610.599609375 161.599609375 c 0
 626 155.299804688 642.799804688 151.099609375 661 151.099609375 c 0
 680.599609375 151.099609375 693.200195312 158.099609375 701.599609375 169.299804688 c 0
 714.200195312 186.799804688 715.599609375 213.400390625 715.599609375 237.900390625 c 2
 715.599609375 251.200195312 l 2xe8
 715.599609375 282.700195312 710 302.299804688 703 314.900390625 c 0
 687.599609375 341.5 663.099609375 335.900390625 652.599609375 337.299804688 c 2
 619 337.299804688 l 1
 619 387.700195312 l 1
 639.299804688 389.799804688 646.299804688 389.799804688 653.299804688 391.900390625 c 0
 677.799804688 398.200195312 703 429 703 482.900390625 c 0
 703 500.400390625 700.900390625 517.200195312 692.5 527.700195312 c 0
 686.200195312 535.400390625 677.799804688 539.599609375 663.099609375 539.599609375 c 0xf0
 645.599609375 539.599609375 631.599609375 534.700195312 619.700195312 527 c 0
 607.099609375 519.299804688 595.900390625 508.799804688 587.5 499.700195312 c 0
 579.799804688 491.299804688 574.900390625 483.599609375 572.799804688 480.099609375 c 1
 535.700195312 533.299804688 l 1
 554.599609375 556.400390625 578.400390625 576 608.5 588.599609375 c 0
 624.599609375 597 643.5 601.900390625 664.5 601.900390625 c 0
 707.900390625 601.900390625 740.799804688 588.599609375 762.5 569 c 0
 791.200195312 543.799804688 797.5 508.099609375 797.5 480.799804688 c 0xf0
 797.5 450.700195312 787.700195312 427.599609375 774.400390625 410.099609375 c 0
 756.900390625 386.299804688 733.099609375 372.299804688 719.799804688 364.599609375 c 1
 733.799804688 361.099609375 768.799804688 352.700195312 793.299804688 323.299804688 c 0
 808.700195312 305.099609375 819.200195312 279.200195312 819.200195312 242.099609375 c 0
 819.200195312 193.099609375 805.900390625 143.400390625 762.5 113.299804688 c 4
 737.299804688 95.7998046875 703.700195312 84.599609375 663.799804688 84.599609375 c 0
 641.400390625 84.599609375 621.799804688 88.7998046875 601.5 96.5 c 0
 573.5 106.299804688 548.299804688 121 525.200195312 140.599609375 c 1
175.200195312 240.700195312 m 0xf2
 175.200195312 300.900390625 201.099609375 345.700195312 262 362.5 c 1
 246.599609375 368.799804688 185.700195312 384.200195312 185.700195312 466.099609375 c 0
 185.700195312 534 215.799804688 601.900390625 322.900390625 601.900390625 c 2
 323.599609375 601.900390625 l 2
 430.700195312 601.900390625 460.099609375 534 460.099609375 465.400390625 c 0xec
 460.099609375 375.799804688 384.5 365.299804688 383.799804688 362.5 c 1
 444.700195312 345.700195312 470.599609375 300.900390625 470.599609375 240.700195312 c 0
 470.599609375 162.299804688 438.400390625 84.599609375 322.900390625 84.599609375 c 0
 207.400390625 84.599609375 175.200195312 163 175.200195312 240.700195312 c 0xf2
273.200195312 233 m 2
 273.900390625 206.400390625 273.900390625 181.200195312 285.799804688 165.799804688 c 0
 292.799804688 156.700195312 304 151.099609375 322.200195312 151.099609375 c 0
 337.599609375 151.099609375 349.5 156 356.5 163 c 4
 375.400390625 181.200195312 372.599609375 216.200195312 373.299804688 238.599609375 c 2
 373.299804688 253.299804688 l 2xf2
 372.599609375 282 370.5 306.5 360 321.200195312 c 0
 353 331.700195312 341.099609375 337.299804688 322.900390625 337.299804688 c 0
 304.700195312 337.299804688 293.5 331 286.5 321.200195312 c 0
 271.099609375 300.900390625 273.900390625 267.299804688 273.200195312 249.099609375 c 2
 273.200195312 233 l 2
274.599609375 457.700195312 m 2xec
 274.599609375 432.5 277.400390625 414.299804688 285.799804688 402.400390625 c 0
 292.799804688 392.599609375 304.700195312 387.700195312 322.200195312 387.700195312 c 0
 340.400390625 387.700195312 352.299804688 393.299804688 359.299804688 402.400390625 c 0
 369.799804688 416.400390625 371.200195312 437.400390625 371.200195312 458.400390625 c 2
 371.200195312 471 l 2
 371.200195312 493.400390625 369.099609375 510.200195312 362.799804688 521.400390625 c 0
 355.799804688 534 343.900390625 539.599609375 323.599609375 539.599609375 c 0
 305.400390625 539.599609375 294.200195312 534.700195312 287.200195312 527 c 0
 274.599609375 513 275.299804688 489.900390625 274.599609375 470.299804688 c 2
 274.599609375 457.700195312 l 2xec
EndSplineSet
EndChar
StartChar: uF26E7
Encoding: 992999 992999 1115
Width: 1000
Flags: MW
LayerCount: 2
Fore
SplineSet
700 -184 m 1
 720 -160 743 -130 766 -88 c 0
 807 -12 864 104 864 303 c 0
 864 663 713 764 700 789 c 1
 753 789 l 1
 898 672 960 495 960 302 c 0
 960 109 898 -67 753 -184 c 1
 700 -184 l 1
40 302 m 0
 40 497 102 672 248 789 c 1
 300 789 l 1
 278 762 251 727 226 676 c 0
 189 600 137 486 137 303 c 0
 137 -59 287 -157 300 -184 c 1
 248 -184 l 1
 102 -66 40 111 40 302 c 0
525.200195312 339.400390625 m 0
 525.200195312 450.700195312 547.599609375 496.200195312 567.200195312 525.599609375 c 0
 601.5 577.400390625 652.599609375 601.900390625 707.200195312 601.900390625 c 0
 729.599609375 601.900390625 746.400390625 598.400390625 771.599609375 587.200195312 c 1
 771.599609375 522.799804688 l 1
 749.900390625 533.299804688 733.099609375 539.599609375 709.299804688 539.599609375 c 0
 668.700195312 539.599609375 648.400390625 513 641.400390625 497.599609375 c 0
 631.599609375 477.299804688 623.900390625 442.299804688 623.900390625 373.700195312 c 1
 635.799804688 408.700195312 658.200195312 445.099609375 699.5 445.099609375 c 0
 752.700195312 445.099609375 776.5 418.5 791.900390625 396.799804688 c 0
 818.5 357.599609375 821.299804688 319.799804688 821.299804688 275 c 2
 821.299804688 270.799804688 l 2
 821.299804688 232.299804688 820.599609375 188.900390625 796.099609375 149.700195312 c 0
 754.799804688 86 701.599609375 84.599609375 675 84.599609375 c 0
 632.299804688 84.599609375 598.700195312 103.5 574.900390625 132.200195312 c 0
 527.299804688 188.900390625 525.200195312 283.400390625 525.200195312 339.400390625 c 0
624.599609375 277.099609375 m 0
 624.599609375 271.5 624.599609375 265.900390625 624.599609375 260.299804688 c 4
 625.299804688 203.599609375 631.599609375 150.400390625 676.400390625 150.400390625 c 0
 712.099609375 150.400390625 721.200195312 181.900390625 722.599609375 219 c 0
 723.299804688 235.099609375 722.599609375 251.900390625 723.299804688 268 c 2
 723.299804688 291.799804688 l 2
 722.599609375 319.099609375 723.299804688 345.700195312 717 364.599609375 c 0
 711.400390625 382.099609375 700.200195312 394 677.799804688 394 c 0
 641.400390625 394 628.099609375 349.200195312 625.299804688 301.599609375 c 0
 624.599609375 293.200195312 624.599609375 285.5 624.599609375 277.099609375 c 0
175.200195312 240.700195312 m 0xf2
 175.200195312 300.900390625 201.099609375 345.700195312 262 362.5 c 1
 246.599609375 368.799804688 185.700195312 384.200195312 185.700195312 466.099609375 c 0
 185.700195312 534 215.799804688 601.900390625 322.900390625 601.900390625 c 2
 323.599609375 601.900390625 l 2
 430.700195312 601.900390625 460.099609375 534 460.099609375 465.400390625 c 0xec
 460.099609375 375.799804688 384.5 365.299804688 383.799804688 362.5 c 1
 444.700195312 345.700195312 470.599609375 300.900390625 470.599609375 240.700195312 c 0
 470.599609375 162.299804688 438.400390625 84.599609375 322.900390625 84.599609375 c 0
 207.400390625 84.599609375 175.200195312 163 175.200195312 240.700195312 c 0xf2
273.200195312 233 m 2
 273.900390625 206.400390625 273.900390625 181.200195312 285.799804688 165.799804688 c 0
 292.799804688 156.700195312 304 151.099609375 322.200195312 151.099609375 c 0
 337.599609375 151.099609375 349.5 156 356.5 163 c 4
 375.400390625 181.200195312 372.599609375 216.200195312 373.299804688 238.599609375 c 2
 373.299804688 253.299804688 l 2xf2
 372.599609375 282 370.5 306.5 360 321.200195312 c 0
 353 331.700195312 341.099609375 337.299804688 322.900390625 337.299804688 c 0
 304.700195312 337.299804688 293.5 331 286.5 321.200195312 c 0
 271.099609375 300.900390625 273.900390625 267.299804688 273.200195312 249.099609375 c 2
 273.200195312 233 l 2
274.599609375 457.700195312 m 2xec
 274.599609375 432.5 277.400390625 414.299804688 285.799804688 402.400390625 c 0
 292.799804688 392.599609375 304.700195312 387.700195312 322.200195312 387.700195312 c 0
 340.400390625 387.700195312 352.299804688 393.299804688 359.299804688 402.400390625 c 0
 369.799804688 416.400390625 371.200195312 437.400390625 371.200195312 458.400390625 c 2
 371.200195312 471 l 2
 371.200195312 493.400390625 369.099609375 510.200195312 362.799804688 521.400390625 c 0
 355.799804688 534 343.900390625 539.599609375 323.599609375 539.599609375 c 0
 305.400390625 539.599609375 294.200195312 534.700195312 287.200195312 527 c 0
 274.599609375 513 275.299804688 489.900390625 274.599609375 470.299804688 c 2
 274.599609375 457.700195312 l 2xec
EndSplineSet
EndChar
StartChar: uF26E8
Encoding: 993000 993000 1116
Width: 1000
Flags: MW
LayerCount: 2
Fore
SplineSet
700 -184 m 1
 720 -160 743 -130 766 -88 c 0
 807 -12 864 104 864 303 c 0
 864 663 713 764 700 789 c 1
 753 789 l 1
 898 672 960 495 960 302 c 0
 960 109 898 -67 753 -184 c 1
 700 -184 l 1
40 302 m 0
 40 497 102 672 248 789 c 1
 300 789 l 1
 278 762 251 727 226 676 c 0
 189 600 137 486 137 303 c 0
 137 -59 287 -157 300 -184 c 1
 248 -184 l 1
 102 -66 40 111 40 302 c 0
525.200195312 510.900390625 m 1
 525.200195312 586.5 l 1
 831.799804688 586.5 l 1
 831.799804688 515.799804688 l 1
 731.700195312 395.400390625 692.5 240 692.5 92.2998046875 c 1
 593.099609375 92.2998046875 l 1
 593.099609375 249.799804688 655.400390625 403.099609375 776.5 511.599609375 c 1
 525.200195312 510.900390625 l 1
175.200195312 240.700195312 m 0xf2
 175.200195312 300.900390625 201.099609375 345.700195312 262 362.5 c 1
 246.599609375 368.799804688 185.700195312 384.200195312 185.700195312 466.099609375 c 0
 185.700195312 534 215.799804688 601.900390625 322.900390625 601.900390625 c 2
 323.599609375 601.900390625 l 2
 430.700195312 601.900390625 460.099609375 534 460.099609375 465.400390625 c 0xec
 460.099609375 375.799804688 384.5 365.299804688 383.799804688 362.5 c 1
 444.700195312 345.700195312 470.599609375 300.900390625 470.599609375 240.700195312 c 0
 470.599609375 162.299804688 438.400390625 84.599609375 322.900390625 84.599609375 c 0
 207.400390625 84.599609375 175.200195312 163 175.200195312 240.700195312 c 0xf2
273.200195312 233 m 2
 273.900390625 206.400390625 273.900390625 181.200195312 285.799804688 165.799804688 c 0
 292.799804688 156.700195312 304 151.099609375 322.200195312 151.099609375 c 0
 337.599609375 151.099609375 349.5 156 356.5 163 c 4
 375.400390625 181.200195312 372.599609375 216.200195312 373.299804688 238.599609375 c 2
 373.299804688 253.299804688 l 2xf2
 372.599609375 282 370.5 306.5 360 321.200195312 c 0
 353 331.700195312 341.099609375 337.299804688 322.900390625 337.299804688 c 0
 304.700195312 337.299804688 293.5 331 286.5 321.200195312 c 0
 271.099609375 300.900390625 273.900390625 267.299804688 273.200195312 249.099609375 c 2
 273.200195312 233 l 2
274.599609375 457.700195312 m 2xec
 274.599609375 432.5 277.400390625 414.299804688 285.799804688 402.400390625 c 0
 292.799804688 392.599609375 304.700195312 387.700195312 322.200195312 387.700195312 c 0
 340.400390625 387.700195312 352.299804688 393.299804688 359.299804688 402.400390625 c 0
 369.799804688 416.400390625 371.200195312 437.400390625 371.200195312 458.400390625 c 2
 371.200195312 471 l 2
 371.200195312 493.400390625 369.099609375 510.200195312 362.799804688 521.400390625 c 0
 355.799804688 534 343.900390625 539.599609375 323.599609375 539.599609375 c 0
 305.400390625 539.599609375 294.200195312 534.700195312 287.200195312 527 c 0
 274.599609375 513 275.299804688 489.900390625 274.599609375 470.299804688 c 2
 274.599609375 457.700195312 l 2xec
EndSplineSet
EndChar
StartChar: uF26EA
Encoding: 993002 993002 1118
Width: 1000
Flags: MW
LayerCount: 2
Fore
SplineSet
700 -184 m 1
 720 -160 743 -130 766 -88 c 0
 807 -12 864 104 864 303 c 0
 864 663 713 764 700 789 c 1
 753 789 l 1
 898 672 960 495 960 302 c 0
 960 109 898 -67 753 -184 c 1
 700 -184 l 1
40 302 m 0
 40 497 102 672 248 789 c 1
 300 789 l 1
 278 762 251 727 226 676 c 0
 189 600 137 486 137 303 c 0
 137 -59 287 -157 300 -184 c 1
 248 -184 l 1
 102 -66 40 111 40 302 c 0
520.299804688 410.099609375 m 0
 520.299804688 459.099609375 520.299804688 501.099609375 550.400390625 542.400390625 c 0
 575.599609375 577.400390625 607.799804688 601.900390625 676.400390625 601.900390625 c 0
 720.5 601.900390625 750.599609375 586.5 773.700195312 563.400390625 c 0
 827.599609375 509.5 829.700195312 410.799804688 829.700195312 351.299804688 c 0
 829.700195312 278.5 823.400390625 186.799804688 766 131.5 c 0
 733.799804688 97.900390625 686.900390625 84.599609375 642.799804688 84.599609375 c 0
 603.599609375 84.599609375 575.599609375 96.5 544.099609375 118.200195312 c 1
 577.700195312 177 l 1
 598.700195312 160.900390625 613.400390625 151.099609375 642.799804688 151.099609375 c 0
 675 151.099609375 703 167.200195312 716.299804688 191.700195312 c 0
 726.099609375 211.299804688 733.799804688 249.099609375 733.799804688 307.200195312 c 2
 733.799804688 313.5 l 1
 723.299804688 284.799804688 698.099609375 241.400390625 643.5 241.400390625 c 0
 588.900390625 241.400390625 563.700195312 268.700195312 549 291.099609375 c 0
 523.099609375 329.599609375 520.299804688 366.700195312 520.299804688 410.099609375 c 0
615.5 415 m 2
 616.900390625 334.5 619.700195312 322.599609375 630.200195312 308.599609375 c 0
 640 296.700195312 654.700195312 292.5 669.400390625 292.5 c 0
 685.5 292.5 706.5 298.799804688 719.799804688 326.799804688 c 0
 728.900390625 345 733.799804688 372.299804688 733.799804688 413.599609375 c 0
 733.799804688 467.5 733.099609375 539.599609375 675 539.599609375 c 0
 659.599609375 539.599609375 647 536.099609375 639.299804688 529.799804688 c 0
 612.700195312 510.200195312 617.599609375 465.400390625 615.5 437.400390625 c 2
 615.5 415 l 2
175.200195312 240.700195312 m 0xf2
 175.200195312 300.900390625 201.099609375 345.700195312 262 362.5 c 1
 246.599609375 368.799804688 185.700195312 384.200195312 185.700195312 466.099609375 c 0
 185.700195312 534 215.799804688 601.900390625 322.900390625 601.900390625 c 2
 323.599609375 601.900390625 l 2
 430.700195312 601.900390625 460.099609375 534 460.099609375 465.400390625 c 0xec
 460.099609375 375.799804688 384.5 365.299804688 383.799804688 362.5 c 1
 444.700195312 345.700195312 470.599609375 300.900390625 470.599609375 240.700195312 c 0
 470.599609375 162.299804688 438.400390625 84.599609375 322.900390625 84.599609375 c 0
 207.400390625 84.599609375 175.200195312 163 175.200195312 240.700195312 c 0xf2
273.200195312 233 m 2
 273.900390625 206.400390625 273.900390625 181.200195312 285.799804688 165.799804688 c 0
 292.799804688 156.700195312 304 151.099609375 322.200195312 151.099609375 c 0
 337.599609375 151.099609375 349.5 156 356.5 163 c 4
 375.400390625 181.200195312 372.599609375 216.200195312 373.299804688 238.599609375 c 2
 373.299804688 253.299804688 l 2xf2
 372.599609375 282 370.5 306.5 360 321.200195312 c 0
 353 331.700195312 341.099609375 337.299804688 322.900390625 337.299804688 c 0
 304.700195312 337.299804688 293.5 331 286.5 321.200195312 c 0
 271.099609375 300.900390625 273.900390625 267.299804688 273.200195312 249.099609375 c 2
 273.200195312 233 l 2
274.599609375 457.700195312 m 2xec
 274.599609375 432.5 277.400390625 414.299804688 285.799804688 402.400390625 c 0
 292.799804688 392.599609375 304.700195312 387.700195312 322.200195312 387.700195312 c 0
 340.400390625 387.700195312 352.299804688 393.299804688 359.299804688 402.400390625 c 0
 369.799804688 416.400390625 371.200195312 437.400390625 371.200195312 458.400390625 c 2
 371.200195312 471 l 2
 371.200195312 493.400390625 369.099609375 510.200195312 362.799804688 521.400390625 c 0
 355.799804688 534 343.900390625 539.599609375 323.599609375 539.599609375 c 0
 305.400390625 539.599609375 294.200195312 534.700195312 287.200195312 527 c 0
 274.599609375 513 275.299804688 489.900390625 274.599609375 470.299804688 c 2
 274.599609375 457.700195312 l 2xec
EndSplineSet
EndChar
StartChar: uF26EE
Encoding: 993006 993006 1122
Width: 1000
Flags: MW
LayerCount: 2
Fore
SplineSet
700 -184 m 1
 720 -160 743 -130 766 -88 c 0
 807 -12 864 104 864 303 c 0
 864 663 713 764 700 789 c 1
 753 789 l 1
 898 672 960 495 960 302 c 0
 960 109 898 -67 753 -184 c 1
 700 -184 l 1
40 302 m 0
 40 497 102 672 248 789 c 1
 300 789 l 1
 278 762 251 727 226 676 c 0
 189 600 137 486 137 303 c 0
 137 -59 287 -157 300 -184 c 1
 248 -184 l 1
 102 -66 40 111 40 302 c 0
525.200195312 140.599609375 m 1
 537.099609375 205.700195312 l 1
 559.5 186.799804688 583.299804688 171.400390625 610.599609375 161.599609375 c 0
 626 155.299804688 642.799804688 151.099609375 661 151.099609375 c 0
 680.599609375 151.099609375 693.200195312 158.099609375 701.599609375 169.299804688 c 0
 714.200195312 186.799804688 715.599609375 213.400390625 715.599609375 237.900390625 c 2
 715.599609375 251.200195312 l 2xe8
 715.599609375 282.700195312 710 302.299804688 703 314.900390625 c 0
 687.599609375 341.5 663.099609375 335.900390625 652.599609375 337.299804688 c 2
 619 337.299804688 l 1
 619 387.700195312 l 1
 639.299804688 389.799804688 646.299804688 389.799804688 653.299804688 391.900390625 c 0
 677.799804688 398.200195312 703 429 703 482.900390625 c 0
 703 500.400390625 700.900390625 517.200195312 692.5 527.700195312 c 0
 686.200195312 535.400390625 677.799804688 539.599609375 663.099609375 539.599609375 c 0xf0
 645.599609375 539.599609375 631.599609375 534.700195312 619.700195312 527 c 0
 607.099609375 519.299804688 595.900390625 508.799804688 587.5 499.700195312 c 0
 579.799804688 491.299804688 574.900390625 483.599609375 572.799804688 480.099609375 c 1
 535.700195312 533.299804688 l 1
 554.599609375 556.400390625 578.400390625 576 608.5 588.599609375 c 0
 624.599609375 597 643.5 601.900390625 664.5 601.900390625 c 0
 707.900390625 601.900390625 740.799804688 588.599609375 762.5 569 c 0
 791.200195312 543.799804688 797.5 508.099609375 797.5 480.799804688 c 0xf0
 797.5 450.700195312 787.700195312 427.599609375 774.400390625 410.099609375 c 0
 756.900390625 386.299804688 733.099609375 372.299804688 719.799804688 364.599609375 c 1
 733.799804688 361.099609375 768.799804688 352.700195312 793.299804688 323.299804688 c 0
 808.700195312 305.099609375 819.200195312 279.200195312 819.200195312 242.099609375 c 0
 819.200195312 193.099609375 805.900390625 143.400390625 762.5 113.299804688 c 4
 737.299804688 95.7998046875 703.700195312 84.599609375 663.799804688 84.599609375 c 0
 641.400390625 84.599609375 621.799804688 88.7998046875 601.5 96.5 c 0
 573.5 106.299804688 548.299804688 121 525.200195312 140.599609375 c 1
170.299804688 410.099609375 m 0
 170.299804688 459.099609375 170.299804688 501.099609375 200.400390625 542.400390625 c 0
 225.599609375 577.400390625 257.799804688 601.900390625 326.400390625 601.900390625 c 0
 370.5 601.900390625 400.599609375 586.5 423.700195312 563.400390625 c 0
 477.599609375 509.5 479.700195312 410.799804688 479.700195312 351.299804688 c 0
 479.700195312 278.5 473.400390625 186.799804688 416 131.5 c 0
 383.799804688 97.900390625 336.900390625 84.599609375 292.799804688 84.599609375 c 0
 253.599609375 84.599609375 225.599609375 96.5 194.099609375 118.200195312 c 1
 227.700195312 177 l 1
 248.700195312 160.900390625 263.400390625 151.099609375 292.799804688 151.099609375 c 0
 325 151.099609375 353 167.200195312 366.299804688 191.700195312 c 0
 376.099609375 211.299804688 383.799804688 249.099609375 383.799804688 307.200195312 c 2
 383.799804688 313.5 l 1
 373.299804688 284.799804688 348.099609375 241.400390625 293.5 241.400390625 c 0
 238.900390625 241.400390625 213.700195312 268.700195312 199 291.099609375 c 0
 173.099609375 329.599609375 170.299804688 366.700195312 170.299804688 410.099609375 c 0
265.5 415 m 2
 266.900390625 334.5 269.700195312 322.599609375 280.200195312 308.599609375 c 0
 290 296.700195312 304.700195312 292.5 319.400390625 292.5 c 0
 335.5 292.5 356.5 298.799804688 369.799804688 326.799804688 c 0
 378.900390625 345 383.799804688 372.299804688 383.799804688 413.599609375 c 0
 383.799804688 467.5 383.099609375 539.599609375 325 539.599609375 c 0
 309.599609375 539.599609375 297 536.099609375 289.299804688 529.799804688 c 0
 262.700195312 510.200195312 267.599609375 465.400390625 265.5 437.400390625 c 2
 265.5 415 l 2
EndSplineSet
EndChar
StartChar: uF26F1
Encoding: 993009 993009 1125
Width: 1000
Flags: MW
LayerCount: 2
Fore
SplineSet
700 -184 m 1
 720 -160 743 -130 766 -88 c 0
 807 -12 864 104 864 303 c 0
 864 663 713 764 700 789 c 1
 753 789 l 1
 898 672 960 495 960 302 c 0
 960 109 898 -67 753 -184 c 1
 700 -184 l 1
40 302 m 0
 40 497 102 672 248 789 c 1
 300 789 l 1
 278 762 251 727 226 676 c 0
 189 600 137 486 137 303 c 0
 137 -59 287 -157 300 -184 c 1
 248 -184 l 1
 102 -66 40 111 40 302 c 0
525.200195312 339.400390625 m 0
 525.200195312 450.700195312 547.599609375 496.200195312 567.200195312 525.599609375 c 0
 601.5 577.400390625 652.599609375 601.900390625 707.200195312 601.900390625 c 0
 729.599609375 601.900390625 746.400390625 598.400390625 771.599609375 587.200195312 c 1
 771.599609375 522.799804688 l 1
 749.900390625 533.299804688 733.099609375 539.599609375 709.299804688 539.599609375 c 0
 668.700195312 539.599609375 648.400390625 513 641.400390625 497.599609375 c 0
 631.599609375 477.299804688 623.900390625 442.299804688 623.900390625 373.700195312 c 1
 635.799804688 408.700195312 658.200195312 445.099609375 699.5 445.099609375 c 0
 752.700195312 445.099609375 776.5 418.5 791.900390625 396.799804688 c 0
 818.5 357.599609375 821.299804688 319.799804688 821.299804688 275 c 2
 821.299804688 270.799804688 l 2
 821.299804688 232.299804688 820.599609375 188.900390625 796.099609375 149.700195312 c 0
 754.799804688 86 701.599609375 84.599609375 675 84.599609375 c 0
 632.299804688 84.599609375 598.700195312 103.5 574.900390625 132.200195312 c 0
 527.299804688 188.900390625 525.200195312 283.400390625 525.200195312 339.400390625 c 0
624.599609375 277.099609375 m 0
 624.599609375 271.5 624.599609375 265.900390625 624.599609375 260.299804688 c 4
 625.299804688 203.599609375 631.599609375 150.400390625 676.400390625 150.400390625 c 0
 712.099609375 150.400390625 721.200195312 181.900390625 722.599609375 219 c 0
 723.299804688 235.099609375 722.599609375 251.900390625 723.299804688 268 c 2
 723.299804688 291.799804688 l 2
 722.599609375 319.099609375 723.299804688 345.700195312 717 364.599609375 c 0
 711.400390625 382.099609375 700.200195312 394 677.799804688 394 c 0
 641.400390625 394 628.099609375 349.200195312 625.299804688 301.599609375 c 0
 624.599609375 293.200195312 624.599609375 285.5 624.599609375 277.099609375 c 0
170.299804688 410.099609375 m 0
 170.299804688 459.099609375 170.299804688 501.099609375 200.400390625 542.400390625 c 0
 225.599609375 577.400390625 257.799804688 601.900390625 326.400390625 601.900390625 c 0
 370.5 601.900390625 400.599609375 586.5 423.700195312 563.400390625 c 0
 477.599609375 509.5 479.700195312 410.799804688 479.700195312 351.299804688 c 0
 479.700195312 278.5 473.400390625 186.799804688 416 131.5 c 0
 383.799804688 97.900390625 336.900390625 84.599609375 292.799804688 84.599609375 c 0
 253.599609375 84.599609375 225.599609375 96.5 194.099609375 118.200195312 c 1
 227.700195312 177 l 1
 248.700195312 160.900390625 263.400390625 151.099609375 292.799804688 151.099609375 c 0
 325 151.099609375 353 167.200195312 366.299804688 191.700195312 c 0
 376.099609375 211.299804688 383.799804688 249.099609375 383.799804688 307.200195312 c 2
 383.799804688 313.5 l 1
 373.299804688 284.799804688 348.099609375 241.400390625 293.5 241.400390625 c 0
 238.900390625 241.400390625 213.700195312 268.700195312 199 291.099609375 c 0
 173.099609375 329.599609375 170.299804688 366.700195312 170.299804688 410.099609375 c 0
265.5 415 m 2
 266.900390625 334.5 269.700195312 322.599609375 280.200195312 308.599609375 c 0
 290 296.700195312 304.700195312 292.5 319.400390625 292.5 c 0
 335.5 292.5 356.5 298.799804688 369.799804688 326.799804688 c 0
 378.900390625 345 383.799804688 372.299804688 383.799804688 413.599609375 c 0
 383.799804688 467.5 383.099609375 539.599609375 325 539.599609375 c 0
 309.599609375 539.599609375 297 536.099609375 289.299804688 529.799804688 c 0
 262.700195312 510.200195312 267.599609375 465.400390625 265.5 437.400390625 c 2
 265.5 415 l 2
EndSplineSet
EndChar
StartChar: uF26F4
Encoding: 993012 993012 1128
Width: 1000
Flags: MW
LayerCount: 2
Fore
SplineSet
700 -184 m 1
 720 -160 743 -130 766 -88 c 0
 807 -12 864 104 864 303 c 0
 864 663 713 764 700 789 c 1
 753 789 l 1
 898 672 960 495 960 302 c 0
 960 109 898 -67 753 -184 c 1
 700 -184 l 1
40 302 m 0
 40 497 102 672 248 789 c 1
 300 789 l 1
 278 762 251 727 226 676 c 0
 189 600 137 486 137 303 c 0
 137 -59 287 -157 300 -184 c 1
 248 -184 l 1
 102 -66 40 111 40 302 c 0
520.299804688 410.099609375 m 0
 520.299804688 459.099609375 520.299804688 501.099609375 550.400390625 542.400390625 c 0
 575.599609375 577.400390625 607.799804688 601.900390625 676.400390625 601.900390625 c 0
 720.5 601.900390625 750.599609375 586.5 773.700195312 563.400390625 c 0
 827.599609375 509.5 829.700195312 410.799804688 829.700195312 351.299804688 c 0
 829.700195312 278.5 823.400390625 186.799804688 766 131.5 c 0
 733.799804688 97.900390625 686.900390625 84.599609375 642.799804688 84.599609375 c 0
 603.599609375 84.599609375 575.599609375 96.5 544.099609375 118.200195312 c 1
 577.700195312 177 l 1
 598.700195312 160.900390625 613.400390625 151.099609375 642.799804688 151.099609375 c 0
 675 151.099609375 703 167.200195312 716.299804688 191.700195312 c 0
 726.099609375 211.299804688 733.799804688 249.099609375 733.799804688 307.200195312 c 2
 733.799804688 313.5 l 1
 723.299804688 284.799804688 698.099609375 241.400390625 643.5 241.400390625 c 0
 588.900390625 241.400390625 563.700195312 268.700195312 549 291.099609375 c 0
 523.099609375 329.599609375 520.299804688 366.700195312 520.299804688 410.099609375 c 0
615.5 415 m 2
 616.900390625 334.5 619.700195312 322.599609375 630.200195312 308.599609375 c 0
 640 296.700195312 654.700195312 292.5 669.400390625 292.5 c 0
 685.5 292.5 706.5 298.799804688 719.799804688 326.799804688 c 0
 728.900390625 345 733.799804688 372.299804688 733.799804688 413.599609375 c 0
 733.799804688 467.5 733.099609375 539.599609375 675 539.599609375 c 0
 659.599609375 539.599609375 647 536.099609375 639.299804688 529.799804688 c 0
 612.700195312 510.200195312 617.599609375 465.400390625 615.5 437.400390625 c 2
 615.5 415 l 2
170.299804688 410.099609375 m 0
 170.299804688 459.099609375 170.299804688 501.099609375 200.400390625 542.400390625 c 0
 225.599609375 577.400390625 257.799804688 601.900390625 326.400390625 601.900390625 c 0
 370.5 601.900390625 400.599609375 586.5 423.700195312 563.400390625 c 0
 477.599609375 509.5 479.700195312 410.799804688 479.700195312 351.299804688 c 0
 479.700195312 278.5 473.400390625 186.799804688 416 131.5 c 0
 383.799804688 97.900390625 336.900390625 84.599609375 292.799804688 84.599609375 c 0
 253.599609375 84.599609375 225.599609375 96.5 194.099609375 118.200195312 c 1
 227.700195312 177 l 1
 248.700195312 160.900390625 263.400390625 151.099609375 292.799804688 151.099609375 c 0
 325 151.099609375 353 167.200195312 366.299804688 191.700195312 c 0
 376.099609375 211.299804688 383.799804688 249.099609375 383.799804688 307.200195312 c 2
 383.799804688 313.5 l 1
 373.299804688 284.799804688 348.099609375 241.400390625 293.5 241.400390625 c 0
 238.900390625 241.400390625 213.700195312 268.700195312 199 291.099609375 c 0
 173.099609375 329.599609375 170.299804688 366.700195312 170.299804688 410.099609375 c 0
265.5 415 m 2
 266.900390625 334.5 269.700195312 322.599609375 280.200195312 308.599609375 c 0
 290 296.700195312 304.700195312 292.5 319.400390625 292.5 c 0
 335.5 292.5 356.5 298.799804688 369.799804688 326.799804688 c 0
 378.900390625 345 383.799804688 372.299804688 383.799804688 413.599609375 c 0
 383.799804688 467.5 383.099609375 539.599609375 325 539.599609375 c 0
 309.599609375 539.599609375 297 536.099609375 289.299804688 529.799804688 c 0
 262.700195312 510.200195312 267.599609375 465.400390625 265.5 437.400390625 c 2
 265.5 415 l 2
EndSplineSet
EndChar
StartChar: uF26F9
Encoding: 993017 993017 1133
Width: 1000
Flags: MW
LayerCount: 2
Fore
SplineSet
700 -184 m 1
 720 -160 743 -130 766 -88 c 0
 807 -12 864 104 864 303 c 0
 864 663 713 764 700 789 c 1
 753 789 l 1
 898 672 960 495 960 302 c 0
 960 109 898 -67 753 -184 c 1
 700 -184 l 1
40 302 m 0
 40 497 102 672 248 789 c 1
 300 789 l 1
 278 762 251 727 226 676 c 0
 189 600 137 486 137 303 c 0
 137 -59 287 -157 300 -184 c 1
 248 -184 l 1
 102 -66 40 111 40 302 c 0
182.200195312 100 m 1
 182.200195312 586.5 l 1
 285.799804688 586.5 l 1
 285.799804688 100 l 1
 182.200195312 100 l 1
326.400390625 586.5 m 5
 434.200195312 586.5 l 5
 515.400390625 366 l 6
 553.900390625 259.599609375 566.5 223.900390625 577 187.5 c 5
 590.299804688 235.099609375 607.799804688 278.5 623.200195312 324 c 6
 719.799804688 586.5 l 5
 817.799804688 586.5 l 5
 638.599609375 100 l 5
 505.599609375 100 l 5
 326.400390625 586.5 l 5
EndSplineSet
EndChar
StartChar: uF26FB
Encoding: 993019 993019 1135
Width: 1000
Flags: MW
LayerCount: 2
Fore
SplineSet
700 -184 m 1
 720 -160 743 -130 766 -88 c 0
 807 -12 864 104 864 303 c 0
 864 663 713 764 700 789 c 1
 753 789 l 1
 898 672 960 495 960 302 c 0
 960 109 898 -67 753 -184 c 1
 700 -184 l 1
40 302 m 0
 40 497 102 672 248 789 c 1
 300 789 l 1
 278 762 251 727 226 676 c 0
 189 600 137 486 137 303 c 0
 137 -59 287 -157 300 -184 c 1
 248 -184 l 1
 102 -66 40 111 40 302 c 0
182.200195312 586.5 m 1
 291.400390625 586.5 l 1
 371.200195312 366 l 2
 409.700195312 259.599609375 423.700195312 223.900390625 434.200195312 187.5 c 1
 447.5 235.099609375 465 278.5 480.400390625 324 c 2
 575.599609375 586.5 l 1
 673.599609375 586.5 l 1
 494.400390625 100 l 1
 361.400390625 100 l 1
 182.200195312 586.5 l 1
714.200195312 100 m 1
 714.200195312 586.5 l 1
 817.799804688 586.5 l 1
 817.799804688 100 l 1
 714.200195312 100 l 1
EndSplineSet
EndChar
StartChar: uF26FC
Encoding: 993020 993020 1136
Width: 1000
Flags: MW
LayerCount: 2
Fore
SplineSet
700 -184 m 1
 720 -160 743 -130 766 -88 c 0
 807 -12 864 104 864 303 c 0
 864 663 713 764 700 789 c 1
 753 789 l 1
 898 672 960 495 960 302 c 0
 960 109 898 -67 753 -184 c 1
 700 -184 l 1
40 302 m 0
 40 497 102 672 248 789 c 1
 300 789 l 1
 278 762 251 727 226 676 c 0
 189 600 137 486 137 303 c 0
 137 -59 287 -157 300 -184 c 1
 248 -184 l 1
 102 -66 40 111 40 302 c 0
539.200195312 100 m 1
 539.200195312 586.5 l 1
 642.799804688 586.5 l 1
 642.799804688 100 l 1
 539.200195312 100 l 1
700.200195312 100 m 1
 700.200195312 586.5 l 1
 803.799804688 586.5 l 1
 803.799804688 100 l 1
 700.200195312 100 l 1
196.200195312 586.5 m 1
 292.799804688 586.5 l 1
 314.5 468.200195312 354.400390625 248.400390625 365.599609375 187.5 c 1
 407.599609375 586.5 l 1
 498.599609375 586.5 l 1
 427.200195312 100 l 1
 294.200195312 100 l 1
 196.200195312 586.5 l 1
EndSplineSet
EndChar
StartChar: uF2703
Encoding: 993027 993027 1143
Width: 1000
Flags: MW
LayerCount: 2
Fore
SplineSet
700 -184 m 1
 720 -160 743 -130 766 -88 c 0
 807 -12 864 104 864 303 c 0
 864 663 713 764 700 789 c 1
 753 789 l 1
 898 672 960 495 960 302 c 0
 960 109 898 -67 753 -184 c 1
 700 -184 l 1
40 302 m 0
 40 497 102 672 248 789 c 1
 300 789 l 1
 278 762 251 727 226 676 c 0
 189 600 137 486 137 303 c 0
 137 -59 287 -157 300 -184 c 1
 248 -184 l 1
 102 -66 40 111 40 302 c 0
161.900390625 100 m 1
 261.299804688 375.799804688 l 1
 261.299804688 375.799804688 l 1
 173.099609375 586.5 l 1
 285.099609375 586.5 l 1
 311.700195312 518.599609375 l 1
 336.200195312 586.5 l 1
 446.099609375 586.5 l 1
 366.299804688 380.700195312 l 1
 366.299804688 380.700195312 l 1
 478.299804688 100 l 1
 376.099609375 100 l 1
 315.200195312 245.599609375 l 1
 313.799804688 245.599609375 l 1
 257.099609375 100 l 1
 161.900390625 100 l 1
448.200195312 100 m 1
 448.200195312 586.5 l 1
 551.799804688 586.5 l 1
 551.799804688 100 l 1
 448.200195312 100 l 1
521.700195312 586.5 m 1
 630.200195312 586.5 l 1
 685.5 250.5 l 1
 740.099609375 586.5 l 1
 838.099609375 586.5 l 1
 746.400390625 100 l 1
 613.400390625 100 l 1
 521.700195312 586.5 l 1
EndSplineSet
EndChar
StartChar: uF2708
Encoding: 993032 993032 1148
Width: 1000
Flags: MW
LayerCount: 2
Fore
SplineSet
700 -184 m 1
 720 -160 743 -130 766 -88 c 0
 807 -12 864 104 864 303 c 0
 864 663 713 764 700 789 c 1
 753 789 l 1
 898 672 960 495 960 302 c 0
 960 109 898 -67 753 -184 c 1
 700 -184 l 1
40 302 m 0
 40 497 102 672 248 789 c 1
 300 789 l 1
 278 762 251 727 226 676 c 0
 189 600 137 486 137 303 c 0
 137 -59 287 -157 300 -184 c 1
 248 -184 l 1
 102 -66 40 111 40 302 c 0
262 501.099609375 m 1
 262 586.5 l 1
 355.799804688 586.5 l 1
 355.799804688 501.099609375 l 1
 262 501.099609375 l 1
262 100 m 1
 262 430.400390625 l 1
 355.799804688 430.400390625 l 1
 355.799804688 100 l 1
 262 100 l 1
409.700195312 430.400390625 m 1
 496.5 430.400390625 l 1
 546.200195312 273.599609375 l 2
 566.5 209.200195312 572.099609375 199.400390625 574.900390625 181.900390625 c 1
 587.5 215.5 644.200195312 405.200195312 653.299804688 430.400390625 c 1
 738 430.400390625 l 1
 633.700195312 100 l 1
 514 100 l 1
 409.700195312 430.400390625 l 1
EndSplineSet
EndChar
StartChar: uF2709
Encoding: 993033 993033 1149
Width: 1000
Flags: MW
LayerCount: 2
Fore
SplineSet
700 -184 m 1
 720 -160 743 -130 766 -88 c 0
 807 -12 864 104 864 303 c 0
 864 663 713 764 700 789 c 1
 753 789 l 1
 898 672 960 495 960 302 c 0
 960 109 898 -67 753 -184 c 1
 700 -184 l 1
40 302 m 0
 40 497 102 672 248 789 c 1
 300 789 l 1
 278 762 251 727 226 676 c 0
 189 600 137 486 137 303 c 0
 137 -59 287 -157 300 -184 c 1
 248 -184 l 1
 102 -66 40 111 40 302 c 0
336.200195312 430.400390625 m 1
 423 430.400390625 l 1
 472 273.599609375 l 2
 492.299804688 209.200195312 498.599609375 199.400390625 501.400390625 181.900390625 c 1
 514 215.5 570.700195312 405.200195312 579.799804688 430.400390625 c 1
 663.799804688 430.400390625 l 1
 560.200195312 100 l 1
 439.799804688 100 l 1
 336.200195312 430.400390625 l 1
EndSplineSet
EndChar
StartChar: uF270D
Encoding: 993037 993037 1153
Width: 1000
Flags: MW
LayerCount: 2
Fore
SplineSet
700 -184 m 1
 720 -160 743 -130 766 -88 c 0
 807 -12 864 104 864 303 c 0
 864 663 713 764 700 789 c 1
 753 789 l 1
 898 672 960 495 960 302 c 0
 960 109 898 -67 753 -184 c 1
 700 -184 l 1
40 302 m 0
 40 497 102 672 248 789 c 1
 300 789 l 1
 278 762 251 727 226 676 c 0
 189 600 137 486 137 303 c 0
 137 -59 287 -157 300 -184 c 1
 248 -184 l 1
 102 -66 40 111 40 302 c 0
256.400390625 501.099609375 m 1
 256.400390625 586.5 l 1
 350.200195312 586.5 l 1
 350.200195312 501.099609375 l 1
 256.400390625 501.099609375 l 1
256.400390625 100 m 1
 256.400390625 430.400390625 l 1
 350.200195312 430.400390625 l 1
 350.200195312 100 l 1
 256.400390625 100 l 1
393.599609375 100 m 1
 528 270.099609375 l 1
 528 272.900390625 l 1
 397.799804688 430.400390625 l 1
 493.700195312 430.400390625 l 1
 565.799804688 335.900390625 l 1
 567.200195312 335.900390625 l 1
 635.099609375 430.400390625 l 1
 730.299804688 430.400390625 l 1
 604.299804688 271.5 l 1
 604.299804688 270.799804688 l 1
 743.599609375 100 l 1
 647 100 l 1
 566.5 219 l 1
 488.799804688 100 l 1
 393.599609375 100 l 1
EndSplineSet
EndChar
StartChar: uF2714
Encoding: 993044 993044 1160
Width: 1000
Flags: MW
LayerCount: 2
Fore
SplineSet
700 -184 m 1
 720 -160 743 -130 766 -88 c 0
 807 -12 864 104 864 303 c 0
 864 663 713 764 700 789 c 1
 753 789 l 1
 898 672 960 495 960 302 c 0
 960 109 898 -67 753 -184 c 1
 700 -184 l 1
40 302 m 0
 40 497 102 672 248 789 c 1
 300 789 l 1
 278 762 251 727 226 676 c 0
 189 600 137 486 137 303 c 0
 137 -59 287 -157 300 -184 c 1
 248 -184 l 1
 102 -66 40 111 40 302 c 0
238.200195312 100 m 1
 423 586.5 l 1
 579.799804688 586.5 l 1
 761.799804688 100 l 1
 654.700195312 100 l 1
 609.900390625 205 l 1
 377.5 205 l 1
 333.400390625 100 l 1
 238.200195312 100 l 1
403.400390625 265.900390625 m 1
 584.700195312 265.900390625 l 1
 504.900390625 464.700195312 l 1
 494.400390625 498.299804688 l 1
 483.200195312 458.400390625 463.599609375 419.900390625 403.400390625 265.900390625 c 1
EndSplineSet
EndChar
StartChar: uF2719
Encoding: 993049 993049 1165
Width: 1000
Flags: MW
LayerCount: 2
Fore
SplineSet
700 -184 m 1
 720 -160 743 -130 766 -88 c 0
 807 -12 864 104 864 303 c 0
 864 663 713 764 700 789 c 1
 753 789 l 1
 898 672 960 495 960 302 c 0
 960 109 898 -67 753 -184 c 1
 700 -184 l 1
40 302 m 0
 40 497 102 672 248 789 c 1
 300 789 l 1
 278 762 251 727 226 676 c 0
 189 600 137 486 137 303 c 0
 137 -59 287 -157 300 -184 c 1
 248 -184 l 1
 102 -66 40 111 40 302 c 0
319.400390625 100 m 1
 319.400390625 584.400390625 l 1xd8
 680.599609375 584.400390625 l 1
 680.599609375 510.900390625 l 1xe8
 423 513 l 1
 423 375.799804688 l 1xd8
 648.400390625 375.799804688 l 1
 648.400390625 309.299804688 l 1
 423 309.299804688 l 1
 423 100 l 1
 319.400390625 100 l 1
EndSplineSet
EndChar
StartChar: uF271A
Encoding: 993050 993050 1166
Width: 1000
Flags: MW
LayerCount: 2
Fore
SplineSet
700 -184 m 1
 720 -160 743 -130 766 -88 c 0
 807 -12 864 104 864 303 c 0
 864 663 713 764 700 789 c 1
 753 789 l 1
 898 672 960 495 960 302 c 0
 960 109 898 -67 753 -184 c 1
 700 -184 l 1
40 302 m 0
 40 497 102 672 248 789 c 1
 300 789 l 1
 278 762 251 727 226 676 c 0
 189 600 137 486 137 303 c 0
 137 -59 287 -157 300 -184 c 1
 248 -184 l 1
 102 -66 40 111 40 302 c 0
268.299804688 343.599609375 m 0
 268.299804688 502.5 341.099609375 601.900390625 556 601.900390625 c 0
 630.900390625 601.900390625 671.5 592.099609375 724.700195312 567.599609375 c 1
 708.599609375 475.900390625 l 1
 686.900390625 493.400390625 651.200195312 531.900390625 556.700195312 531.900390625 c 0
 405.5 531.900390625 371.900390625 438.099609375 371.900390625 343.599609375 c 0
 371.900390625 243.5 409 154.599609375 558.799804688 154.599609375 c 0
 597.299804688 154.599609375 628.099609375 160.900390625 635.799804688 161.599609375 c 1
 635.799804688 263.099609375 l 1
 555.299804688 263.099609375 l 1
 555.299804688 329.599609375 l 1
 731.700195312 329.599609375 l 1
 731.700195312 118.200195312 l 1
 686.200195312 99.2998046875 633.700195312 84.599609375 555.299804688 84.599609375 c 0
 319.400390625 84.599609375 268.299804688 209.200195312 268.299804688 343.599609375 c 0
EndSplineSet
EndChar
StartChar: uF271D
Encoding: 993053 993053 1169
Width: 1000
Flags: MW
LayerCount: 2
Fore
SplineSet
700 -184 m 1
 720 -160 743 -130 766 -88 c 0
 807 -12 864 104 864 303 c 0
 864 663 713 764 700 789 c 1
 753 789 l 1
 898 672 960 495 960 302 c 0
 960 109 898 -67 753 -184 c 1
 700 -184 l 1
40 302 m 0
 40 497 102 672 248 789 c 1
 300 789 l 1
 278 762 251 727 226 676 c 0
 189 600 137 486 137 303 c 0
 137 -59 287 -157 300 -184 c 1
 248 -184 l 1
 102 -66 40 111 40 302 c 0
357.900390625 113.299804688 m 1
 372.599609375 198 l 1
 382.400390625 184.700195312 405.5 152.5 457.299804688 152.5 c 0
 535.700195312 152.5 540.599609375 191 540.599609375 206.400390625 c 2
 540.599609375 586.5 l 1
 642.099609375 586.5 l 1
 642.099609375 208.5 l 2
 642.099609375 109.099609375 570 84.599609375 499.299804688 84.599609375 c 0
 452.400390625 84.599609375 406.200195312 91.599609375 357.900390625 113.299804688 c 1
EndSplineSet
EndChar
StartChar: uF271E
Encoding: 993054 993054 1170
Width: 1000
Flags: MW
LayerCount: 2
Fore
SplineSet
700 -184 m 1
 720 -160 743 -130 766 -88 c 0
 807 -12 864 104 864 303 c 0
 864 663 713 764 700 789 c 1
 753 789 l 1
 898 672 960 495 960 302 c 0
 960 109 898 -67 753 -184 c 1
 700 -184 l 1
40 302 m 0
 40 497 102 672 248 789 c 1
 300 789 l 1
 278 762 251 727 226 676 c 0
 189 600 137 486 137 303 c 0
 137 -59 287 -157 300 -184 c 1
 248 -184 l 1
 102 -66 40 111 40 302 c 0
256.400390625 100 m 1
 256.400390625 586.5 l 1
 347.400390625 586.5 l 1
 347.400390625 363.200195312 l 1
 617.599609375 586.5 l 1
 732.400390625 586.5 l 1
 518.200195312 393.299804688 l 1
 518.200195312 392.599609375 l 1
 743.599609375 100 l 1
 619 100 l 1
 444 331.700195312 l 1
 347.400390625 252.599609375 l 1
 347.400390625 100 l 1
 256.400390625 100 l 1
EndSplineSet
EndChar
StartChar: uF271F
Encoding: 993055 993055 1171
Width: 1000
Flags: MW
LayerCount: 2
Fore
SplineSet
700 -184 m 1
 720 -160 743 -130 766 -88 c 0
 807 -12 864 104 864 303 c 0
 864 663 713 764 700 789 c 1
 753 789 l 1
 898 672 960 495 960 302 c 0
 960 109 898 -67 753 -184 c 1
 700 -184 l 1
40 302 m 0
 40 497 102 672 248 789 c 1
 300 789 l 1
 278 762 251 727 226 676 c 0
 189 600 137 486 137 303 c 0
 137 -59 287 -157 300 -184 c 1
 248 -184 l 1
 102 -66 40 111 40 302 c 0
332.700195312 100 m 1x70
 332.700195312 586.5 l 1
 436.299804688 586.5 l 1
 436.299804688 170.700195312 l 1xb0
 667.299804688 173.5 l 1
 667.299804688 100 l 1x70
 332.700195312 100 l 1x70
EndSplineSet
EndChar
StartChar: uF2720
Encoding: 993056 993056 1172
Width: 1000
Flags: MW
LayerCount: 2
Fore
SplineSet
700 -184 m 1
 720 -160 743 -130 766 -88 c 0
 807 -12 864 104 864 303 c 0
 864 663 713 764 700 789 c 1
 753 789 l 1
 898 672 960 495 960 302 c 0
 960 109 898 -67 753 -184 c 1
 700 -184 l 1
40 302 m 0
 40 497 102 672 248 789 c 1
 300 789 l 1
 278 762 251 727 226 676 c 0
 189 600 137 486 137 303 c 0
 137 -59 287 -157 300 -184 c 1
 248 -184 l 1
 102 -66 40 111 40 302 c 0
221.400390625 100 m 1
 221.400390625 586.5 l 1
 348.799804688 586.5 l 1
 452.400390625 328.900390625 l 2
 468.5 288.299804688 493.700195312 220.400390625 498.599609375 203.599609375 c 1
 500 203.599609375 l 1
 510.5 242.099609375 542 318.400390625 546.200195312 328.900390625 c 2
 649.799804688 586.5 l 1
 778.599609375 586.5 l 1
 778.599609375 100 l 1
 691.799804688 100 l 1
 691.799804688 471.700195312 l 1
 691.799804688 487.099609375 691.799804688 498.299804688 691.799804688 498.299804688 c 1
 689 488.5 686.200195312 480.099609375 683.400390625 472.400390625 c 10
 638.599609375 358.299804688 l 17
 540.599609375 115.400390625 l 1
 458 115.400390625 l 1
 364.200195312 347.099609375 l 2
 334.799804688 422 315.900390625 467.5 308.200195312 498.299804688 c 1
 308.200195312 100 l 1
 221.400390625 100 l 1
EndSplineSet
EndChar
StartChar: uF2722
Encoding: 993058 993058 1174
Width: 1000
Flags: MW
LayerCount: 2
Fore
SplineSet
700 -184 m 1
 720 -160 743 -130 766 -88 c 0
 807 -12 864 104 864 303 c 0
 864 663 713 764 700 789 c 1
 753 789 l 1
 898 672 960 495 960 302 c 0
 960 109 898 -67 753 -184 c 1
 700 -184 l 1
40 302 m 0
 40 497 102 672 248 789 c 1
 300 789 l 1
 278 762 251 727 226 676 c 0
 189 600 137 486 137 303 c 0
 137 -59 287 -157 300 -184 c 1
 248 -184 l 1
 102 -66 40 111 40 302 c 0
238.200195312 341.5 m 0
 238.200195312 540.299804688 344.599609375 601.900390625 499.299804688 601.900390625 c 0
 667.299804688 601.900390625 761.799804688 531.900390625 761.799804688 340.099609375 c 0
 761.799804688 207.799804688 714.200195312 84.599609375 500.700195312 84.599609375 c 0
 280.200195312 84.599609375 238.200195312 212.700195312 238.200195312 341.5 c 0
341.099609375 343.599609375 m 0
 341.099609375 242.799804688 369.799804688 143.400390625 500 143.400390625 c 0
 626 143.400390625 657.5 239.299804688 657.5 342.200195312 c 0
 657.5 492 594.5 546.599609375 499.299804688 546.599609375 c 0
 412.5 546.599609375 341.099609375 499 341.099609375 343.599609375 c 0
EndSplineSet
EndChar
StartChar: uF2723
Encoding: 993059 993059 1175
Width: 1000
Flags: MW
LayerCount: 2
Fore
SplineSet
700 -184 m 1
 720 -160 743 -130 766 -88 c 0
 807 -12 864 104 864 303 c 0
 864 663 713 764 700 789 c 1
 753 789 l 1
 898 672 960 495 960 302 c 0
 960 109 898 -67 753 -184 c 1
 700 -184 l 1
40 302 m 0
 40 497 102 672 248 789 c 1
 300 789 l 1
 278 762 251 727 226 676 c 0
 189 600 137 486 137 303 c 0
 137 -59 287 -157 300 -184 c 1
 248 -184 l 1
 102 -66 40 111 40 302 c 0
289.299804688 100 m 1
 289.299804688 586.5 l 1
 503.5 586.5 l 2
 573.5 586.5 637.900390625 579.5 675 538.200195312 c 0
 700.900390625 510.200195312 710.700195312 471.700195312 710.700195312 434.599609375 c 0
 710.700195312 322.599609375 628.799804688 296 562.299804688 289.700195312 c 0
 544.799804688 288.299804688 528.700195312 287.599609375 516.799804688 287.599609375 c 2
 392.900390625 287.599609375 l 1
 392.900390625 100 l 1
 289.299804688 100 l 1
390.799804688 342.900390625 m 1
 485.299804688 342.900390625 l 2
 565.799804688 342.900390625 612.700195312 355.5 612.700195312 433.900390625 c 0
 612.700195312 514.400390625 565.099609375 525.599609375 485.299804688 525.599609375 c 2
 390.799804688 525.599609375 l 1
 390.799804688 342.900390625 l 1
EndSplineSet
EndChar
StartChar: uF2724
Encoding: 993060 993060 1176
Width: 1000
Flags: MW
LayerCount: 2
Fore
SplineSet
700 -184 m 1
 720 -160 743 -130 766 -88 c 0
 807 -12 864 104 864 303 c 0
 864 663 713 764 700 789 c 1
 753 789 l 1
 898 672 960 495 960 302 c 0
 960 109 898 -67 753 -184 c 1
 700 -184 l 1
40 302 m 0
 40 497 102 672 248 789 c 1
 300 789 l 1
 278 762 251 727 226 676 c 0
 189 600 137 486 137 303 c 0
 137 -59 287 -157 300 -184 c 1
 248 -184 l 1
 102 -66 40 111 40 302 c 0
238.200195312 339.400390625 m 0
 238.200195312 492.700195312 296.299804688 580.200195312 441.200195312 598.400390625 c 0
 460.799804688 600.5 481.099609375 601.900390625 502.799804688 601.900390625 c 0
 594.5 601.900390625 656.799804688 580.200195312 693.200195312 546.599609375 c 0
 745.700195312 496.900390625 761.799804688 419.200195312 761.799804688 340.099609375 c 0
 761.799804688 230.200195312 731 158.799804688 667.299804688 118.200195312 c 1
 740.099609375 22.2998046875 l 1
 609.900390625 22.2998046875 l 1
 558.799804688 87.400390625 l 1
 529.400390625 85.2998046875 523.799804688 84.599609375 500 84.599609375 c 0
 423.700195312 84.599609375 366.299804688 98.599609375 327.099609375 122.400390625 c 0
 258.5 168.599609375 238.200195312 251.900390625 238.200195312 339.400390625 c 0
339.700195312 337.299804688 m 2
 340.400390625 275.700195312 340.400390625 165.099609375 460.799804688 142.700195312 c 0
 473.400390625 139.900390625 486.700195312 139.200195312 500 139.200195312 c 0
 504.900390625 139.200195312 511.200195312 139.200195312 516.799804688 139.900390625 c 1
 439.799804688 236.5 l 1
 560.200195312 236.5 l 1
 613.400390625 178.400390625 l 1
 614.099609375 178.400390625 l 1
 651.200195312 216.900390625 660.299804688 261.700195312 660.299804688 339.400390625 c 0
 660.299804688 411.5 652.599609375 485 593.099609375 522.799804688 c 0
 567.200195312 539.599609375 533.599609375 547.299804688 500.700195312 547.299804688 c 0
 496.5 547.299804688 491.599609375 546.599609375 487.400390625 546.599609375 c 0
 451 544.5 413.200195312 533.299804688 388 508.099609375 c 0
 341.099609375 464.700195312 339.700195312 387.700195312 339.700195312 353.400390625 c 2
 339.700195312 337.299804688 l 2
EndSplineSet
EndChar
StartChar: uF2725
Encoding: 993061 993061 1177
Width: 1000
Flags: MW
LayerCount: 2
Fore
SplineSet
700 -184 m 1
 720 -160 743 -130 766 -88 c 0
 807 -12 864 104 864 303 c 0
 864 663 713 764 700 789 c 1
 753 789 l 1
 898 672 960 495 960 302 c 0
 960 109 898 -67 753 -184 c 1
 700 -184 l 1
40 302 m 0
 40 497 102 672 248 789 c 1
 300 789 l 1
 278 762 251 727 226 676 c 0
 189 600 137 486 137 303 c 0
 137 -59 287 -157 300 -184 c 1
 248 -184 l 1
 102 -66 40 111 40 302 c 0
276.700195312 100 m 1
 276.700195312 586.5 l 1
 467.799804688 586.5 l 2
 522.400390625 586.5 579.099609375 585.799804688 624.599609375 566.200195312 c 0
 688.299804688 537.5 698.799804688 480.799804688 698.799804688 447.900390625 c 0
 698.799804688 380 654.700195312 338 586.099609375 324.700195312 c 1
 723.299804688 100 l 1
 619.700195312 100 l 1
 470.599609375 317.700195312 l 1
 378.200195312 317.700195312 l 1
 378.200195312 100 l 1
 276.700195312 100 l 1
378.200195312 368.799804688 m 1
 478.299804688 368.799804688 l 2
 516.799804688 368.799804688 548.299804688 370.900390625 569.299804688 382.799804688 c 0
 589.599609375 394 600.799804688 413.599609375 600.799804688 447.200195312 c 0
 600.799804688 481.5 588.900390625 501.099609375 567.200195312 512.299804688 c 0
 546.200195312 522.799804688 516.799804688 525.599609375 479 525.599609375 c 2
 378.200195312 525.599609375 l 1
 378.200195312 368.799804688 l 1
EndSplineSet
EndChar
StartChar: uF2727
Encoding: 993063 993063 1179
Width: 1000
Flags: MW
LayerCount: 2
Fore
SplineSet
700 -184 m 1
 720 -160 743 -130 766 -88 c 0
 807 -12 864 104 864 303 c 0
 864 663 713 764 700 789 c 1
 753 789 l 1
 898 672 960 495 960 302 c 0
 960 109 898 -67 753 -184 c 1
 700 -184 l 1
40 302 m 0
 40 497 102 672 248 789 c 1
 300 789 l 1
 278 762 251 727 226 676 c 0
 189 600 137 486 137 303 c 0
 137 -59 287 -157 300 -184 c 1
 248 -184 l 1
 102 -66 40 111 40 302 c 0
252.200195312 508.799804688 m 1
 252.200195312 582.299804688 l 1
 747.799804688 582.299804688 l 1
 747.799804688 508.799804688 l 1
 551.799804688 511.599609375 l 1
 551.799804688 100 l 1
 448.200195312 100 l 1
 448.200195312 511.599609375 l 1
 252.200195312 508.799804688 l 1
EndSplineSet
EndChar
StartChar: uF272A
Encoding: 993066 993066 1182
Width: 1000
Flags: MW
LayerCount: 2
Fore
SplineSet
700 -184 m 1
 720 -160 743 -130 766 -88 c 0
 807 -12 864 104 864 303 c 0
 864 663 713 764 700 789 c 1
 753 789 l 1
 898 672 960 495 960 302 c 0
 960 109 898 -67 753 -184 c 1
 700 -184 l 1
40 302 m 0
 40 497 102 672 248 789 c 1
 300 789 l 1
 278 762 251 727 226 676 c 0
 189 600 137 486 137 303 c 0
 137 -59 287 -157 300 -184 c 1
 248 -184 l 1
 102 -66 40 111 40 302 c 0
157.700195312 586.5 m 1
 250.099609375 586.5 l 1
 250.099609375 586.5 317.299804688 340.799804688 333.400390625 272.900390625 c 2
 353.700195312 187.5 l 1
 360 229.5 358.599609375 215.5 385.900390625 324.700195312 c 2
 451 586.5 l 1
 553.900390625 586.5 l 1
 553.900390625 586.5 596.599609375 416.400390625 614.799804688 350.599609375 c 2
 637.200195312 268 l 2
 647.700195312 228.799804688 654 195.200195312 654.700195312 187.5 c 1
 658.900390625 212.700195312 677.799804688 284.099609375 685.5 312.099609375 c 2
 759 586.5 l 1
 842.299804688 586.5 l 1
 710.700195312 100 l 1
 592.400390625 100 l 1
 537.099609375 326.799804688 l 2
 509.099609375 440.900390625 507.700195312 453.5 497.900390625 498.299804688 c 1
 493 470.299804688 478.299804688 407.299804688 472 381.400390625 c 2
 403.400390625 100 l 1
 289.299804688 100 l 1
 157.700195312 586.5 l 1
EndSplineSet
EndChar
StartChar: uF272D
Encoding: 993069 993069 1185
Width: 1000
Flags: MW
LayerCount: 2
Fore
SplineSet
700 -184 m 1
 720 -160 743 -130 766 -88 c 0
 807 -12 864 104 864 303 c 0
 864 663 713 764 700 789 c 1
 753 789 l 1
 898 672 960 495 960 302 c 0
 960 109 898 -67 753 -184 c 1
 700 -184 l 1
40 302 m 0
 40 497 102 672 248 789 c 1
 300 789 l 1
 278 762 251 727 226 676 c 0
 189 600 137 486 137 303 c 0
 137 -59 287 -157 300 -184 c 1
 248 -184 l 1
 102 -66 40 111 40 302 c 0
283 100 m 1
 283 146.900390625 l 1
 283 146.900390625 l 1
 574.200195312 519.299804688 l 1
 293.5 516.5 l 1
 293.5 586.5 l 1
 712.799804688 586.5 l 1
 712.799804688 541.700195312 l 1
 712.799804688 541.700195312 l 1
 421.599609375 170.700195312 l 1
 717 173.5 l 1
 717 100 l 1
 283 100 l 1
EndSplineSet
EndChar
StartChar: uF27A8
Encoding: 993192 993192 1200
Width: 1000
Flags: MW
LayerCount: 2
Fore
SplineSet
160 263 m 0
 160 458 222 633 368 750 c 1
 440 750 l 1
 418 723 391 688 366 637 c 0
 329 561 297 447 297 264 c 0
 297 -98 427 -196 440 -223 c 1
 368 -223 l 1
 222 -105 160 72 160 263 c 0
534 344 m 0
 534 356 534 368 534 380 c 0
 536 509 552 664 680 706 c 0
 698 713 719 717 743 717 c 0
 789 717 840 700 882 654 c 0
 953 576 953 431 953 362 c 2
 953 352 l 2
 953 213 951 32 805 -12 c 4
 787 -18 766 -22 742 -22 c 0
 543 -22 534 180 534 344 c 0
667 352 m 0
 667 155 672 91 714 60 c 0
 722 55 732 50 743 50 c 0
 748 50 769 51 787 76 c 0
 820 120 817 200 819 357 c 0
 819 368 820 380 820 393 c 0
 820 468 816 559 802 595 c 0
 791 623 769 644 743 644 c 0
 668 644 667 516 667 396 c 0
 667 381 667 366 667 352 c 0
EndSplineSet
EndChar
StartChar: uF27A9
Encoding: 993193 993193 1201
Width: 1000
Flags: MW
LayerCount: 2
Fore
SplineSet
160 263 m 0
 160 458 222 633 368 750 c 1
 440 750 l 1
 418 723 391 688 366 637 c 0
 329 561 297 447 297 264 c 0
 297 -98 427 -196 440 -223 c 1
 368 -223 l 1
 222 -105 160 72 160 263 c 0
561 575 m 1
 561 648 l 1
 677 648 745 670 801 717 c 1
 836 717 l 1
 836 73 l 1
 954 73 l 1
 954 0 l 1
 576 0 l 1
 576 73 l 1
 698 73 l 1
 698 591 l 1
 656 579 609 575 561 575 c 1
EndSplineSet
EndChar
StartChar: uF27AA
Encoding: 993194 993194 1202
Width: 1000
Flags: MW
LayerCount: 2
Fore
SplineSet
160 263 m 0
 160 458 222 633 368 750 c 1
 440 750 l 1
 418 723 391 688 366 637 c 0
 329 561 297 447 297 264 c 0
 297 -98 427 -196 440 -223 c 1
 368 -223 l 1
 222 -105 160 72 160 263 c 0
536 574 m 1
 564 643 621 717 730 717 c 0
 860 717 943 603 943 487 c 0
 943 385 869 333 754 229 c 2
 640 106 l 1
 943 108 l 1
 943 0 l 1
 545 0 l 1
 545 100 l 1
 690 254 l 2
 726 297 806 378 806 485 c 0
 806 552 776 617 718 617 c 0
 654 617 623 551 605 486 c 1
 536 574 l 1
EndSplineSet
EndChar
StartChar: uF27AE
Encoding: 993198 993198 1206
Width: 1000
Flags: MW
LayerCount: 2
Fore
SplineSet
160 263 m 0
 160 458 222 633 368 750 c 1
 440 750 l 1
 418 723 391 688 366 637 c 0
 329 561 297 447 297 264 c 0
 297 -98 427 -196 440 -223 c 1
 368 -223 l 1
 222 -105 160 72 160 263 c 0
536 342 m 0
 536 501 568 566 596 608 c 0
 645 682 718 717 796 717 c 0
 828 717 852 712 888 696 c 1
 888 604 l 1
 857 619 833 628 799 628 c 0
 741 628 712 590 702 568 c 0
 688 539 677 489 677 391 c 1
 694 441 726 493 785 493 c 0
 861 493 895 455 917 424 c 0
 955 368 959 314 959 250 c 2
 959 244 l 2
 959 189 958 127 923 71 c 0
 864 -20 788 -22 750 -22 c 0
 689 -22 641 5 607 46 c 0
 539 127 536 262 536 342 c 0
678 253 m 0
 678 245 678 237 678 229 c 4
 679 148 688 72 752 72 c 0
 803 72 816 117 818 170 c 0
 819 193 818 217 819 240 c 2
 819 274 l 2
 818 313 819 351 810 378 c 0
 802 403 786 420 754 420 c 0
 702 420 683 356 679 288 c 0
 678 276 678 265 678 253 c 0
EndSplineSet
EndChar
StartChar: uF27B4
Encoding: 993204 993204 1212
Width: 1000
Flags: MW
LayerCount: 2
Fore
SplineSet
560 -223 m 1
 580 -199 603 -169 626 -127 c 4
 667 -51 704 65 704 264 c 0
 704 624 573 725 560 750 c 1
 633 750 l 1
 778 633 840 456 840 263 c 0
 840 70 778 -106 633 -223 c 1
 560 -223 l 1
36 574 m 1
 64 643 121 717 230 717 c 0
 360 717 443 603 443 487 c 0
 443 385 369 333 254 229 c 2
 140 106 l 1
 443 108 l 1
 443 0 l 1
 45 0 l 1
 45 100 l 1
 190 254 l 2
 226 297 306 378 306 485 c 0
 306 552 276 617 218 617 c 0
 154 617 123 551 105 486 c 1
 36 574 l 1
EndSplineSet
EndChar
StartChar: uF27B8
Encoding: 993208 993208 1216
Width: 1000
Flags: MW
LayerCount: 2
Fore
SplineSet
560 -223 m 1
 580 -199 603 -169 626 -127 c 4
 667 -51 704 65 704 264 c 0
 704 624 573 725 560 750 c 1
 633 750 l 1
 778 633 840 456 840 263 c 0
 840 70 778 -106 633 -223 c 1
 560 -223 l 1
36 342 m 0
 36 501 68 566 96 608 c 0
 145 682 218 717 296 717 c 0
 328 717 352 712 388 696 c 1
 388 604 l 1
 357 619 333 628 299 628 c 0
 241 628 212 590 202 568 c 0
 188 539 177 489 177 391 c 1
 194 441 226 493 285 493 c 0
 361 493 395 455 417 424 c 0
 455 368 459 314 459 250 c 2
 459 244 l 2
 459 189 458 127 423 71 c 0
 364 -20 288 -22 250 -22 c 0
 189 -22 141 5 107 46 c 0
 39 127 36 262 36 342 c 0
178 253 m 0
 178 245 178 237 178 229 c 4
 179 148 188 72 252 72 c 0
 303 72 316 117 318 170 c 0
 319 193 318 217 319 240 c 2
 319 274 l 2
 318 313 319 351 310 378 c 0
 302 403 286 420 254 420 c 0
 202 420 183 356 179 288 c 0
 178 276 178 265 178 253 c 0
EndSplineSet
EndChar
StartChar: uF2800
Encoding: 993280 993280 38
Width: 1000
Flags: MW
LayerCount: 2
Fore
SplineSet
50 300 m 0
 50 584 236 760 501 760 c 0
 758 760 949 589 950 300 c 0
 950 21 769 -160 499 -160 c 0
 230 -160 50 24 50 300 c 0
112 299 m 0
 112 55 269 -97 498 -97 c 0
 724 -97 887 47 887 301 c 0
 887 547 729 697 502 697 c 0
 276 697 112 553 112 299 c 0
525.200195312 296.150390625 m 0
 525.200195312 407.450195312 547.599609375 452.950195312 567.200195312 482.349609375 c 0
 601.5 534.150390625 652.599609375 558.650390625 707.200195312 558.650390625 c 0
 729.599609375 558.650390625 746.400390625 555.150390625 771.599609375 543.950195312 c 1
 771.599609375 479.549804688 l 1
 749.900390625 490.049804688 733.099609375 496.349609375 709.299804688 496.349609375 c 0
 668.700195312 496.349609375 648.400390625 469.75 641.400390625 454.349609375 c 0
 631.599609375 434.049804688 623.900390625 399.049804688 623.900390625 330.450195312 c 1
 635.799804688 365.450195312 658.200195312 401.849609375 699.5 401.849609375 c 0
 752.700195312 401.849609375 776.5 375.25 791.900390625 353.549804688 c 0
 818.5 314.349609375 821.299804688 276.549804688 821.299804688 231.75 c 2
 821.299804688 227.549804688 l 2
 821.299804688 189.049804688 820.599609375 145.650390625 796.099609375 106.450195312 c 0
 754.799804688 42.75 701.599609375 41.349609375 675 41.349609375 c 0
 632.299804688 41.349609375 598.700195312 60.25 574.900390625 88.9501953125 c 0
 527.299804688 145.650390625 525.200195312 240.150390625 525.200195312 296.150390625 c 0
624.599609375 233.849609375 m 0
 624.599609375 228.25 624.599609375 222.650390625 624.599609375 217.049804688 c 4
 625.299804688 160.349609375 631.599609375 107.150390625 676.400390625 107.150390625 c 0
 712.099609375 107.150390625 721.200195312 138.650390625 722.599609375 175.75 c 0
 723.299804688 191.849609375 722.599609375 208.650390625 723.299804688 224.75 c 2
 723.299804688 248.549804688 l 2
 722.599609375 275.849609375 723.299804688 302.450195312 717 321.349609375 c 0
 711.400390625 338.849609375 700.200195312 350.75 677.799804688 350.75 c 0
 641.400390625 350.75 628.099609375 305.950195312 625.299804688 258.349609375 c 0
 624.599609375 249.950195312 624.599609375 242.25 624.599609375 233.849609375 c 0
173.799804688 297.549804688 m 0
 173.799804688 305.950195312 173.799804688 314.349609375 173.799804688 322.75 c 0
 175.200195312 413.049804688 186.400390625 521.549804688 276 550.950195312 c 0
 288.599609375 555.849609375 303.299804688 558.650390625 320.099609375 558.650390625 c 0
 352.299804688 558.650390625 388 546.75 417.400390625 514.549804688 c 0
 467.099609375 459.950195312 467.099609375 358.450195312 467.099609375 310.150390625 c 2
 467.099609375 303.150390625 l 2
 467.099609375 205.849609375 465.700195312 79.150390625 363.5 48.349609375 c 4
 350.900390625 44.150390625 336.200195312 41.349609375 319.400390625 41.349609375 c 0
 180.099609375 41.349609375 173.799804688 182.75 173.799804688 297.549804688 c 0
266.900390625 303.150390625 m 0
 266.900390625 165.25 270.400390625 120.450195312 299.799804688 98.75 c 0
 305.400390625 95.25 312.400390625 91.75 320.099609375 91.75 c 0
 323.599609375 91.75 338.299804688 92.4501953125 350.900390625 109.950195312 c 0
 374 140.75 371.900390625 196.75 373.299804688 306.650390625 c 0
 373.299804688 314.349609375 374 322.75 374 331.849609375 c 0
 374 384.349609375 371.200195312 448.049804688 361.400390625 473.25 c 0
 353.700195312 492.849609375 338.299804688 507.549804688 320.099609375 507.549804688 c 0
 267.599609375 507.549804688 266.900390625 417.950195312 266.900390625 333.950195312 c 0
 266.900390625 323.450195312 266.900390625 312.950195312 266.900390625 303.150390625 c 0
EndSplineSet
EndChar
StartChar: uF280D
Encoding: 993293 993293 51
Width: 1000
Flags: MW
LayerCount: 2
Fore
SplineSet
50 300 m 0
 50 584 236 760 501 760 c 0
 758 760 949 589 950 300 c 0
 950 21 769 -160 499 -160 c 0
 230 -160 50 24 50 300 c 0
112 299 m 0
 112 55 269 -97 498 -97 c 0
 724 -97 887 47 887 301 c 0
 887 547 729 697 502 697 c 0
 276 697 112 553 112 299 c 0
542.700195312 451.549804688 m 1
 542.700195312 502.649414062 l 1
 623.900390625 502.649414062 671.5 518.049804688 710.700195312 550.950195312 c 1
 735.200195312 550.950195312 l 1
 735.200195312 100.149414062 l 1
 817.799804688 100.149414062 l 1
 817.799804688 49.0498046875 l 1
 553.200195312 49.0498046875 l 1
 553.200195312 100.149414062 l 1
 638.599609375 100.149414062 l 1
 638.599609375 462.75 l 1
 609.200195312 454.349609375 576.299804688 451.549804688 542.700195312 451.549804688 c 1
166.799804688 155.450195312 m 1
 166.799804688 221.950195312 l 1
 166.799804688 221.950195312 l 1
 319.400390625 535.549804688 l 1
 423 535.549804688 l 1
 423 221.950195312 l 1
 486 221.950195312 l 1
 486 155.450195312 l 1
 423 155.450195312 l 1
 423 49.0498046875 l 1
 336.900390625 49.0498046875 l 1
 336.900390625 155.450195312 l 1
 166.799804688 155.450195312 l 1
240.299804688 221.950195312 m 1
 339.700195312 221.950195312 l 1
 339.700195312 463.450195312 l 1
 329.900390625 418.649414062 308.900390625 375.25 240.299804688 221.950195312 c 1
EndSplineSet
EndChar
StartChar: uF2811
Encoding: 993297 993297 55
Width: 1000
Flags: MW
LayerCount: 2
Fore
SplineSet
50 300 m 0
 50 584 236 760 501 760 c 0
 758 760 949 589 950 300 c 0
 950 21 769 -160 499 -160 c 0
 230 -160 50 24 50 300 c 0
112 299 m 0
 112 55 269 -97 498 -97 c 0
 724 -97 887 47 887 301 c 0
 887 547 729 697 502 697 c 0
 276 697 112 553 112 299 c 0
520.299804688 121.850585938 m 1
 557.400390625 182.75 l 1
 561.599609375 175.75 565.099609375 169.450195312 570 162.450195312 c 0
 581.200195312 147.049804688 595.200195312 135.850585938 608.5 128.150390625 c 0
 622.5 119.049804688 638.599609375 114.850585938 652.599609375 114.850585938 c 0
 677.099609375 114.850585938 691.099609375 123.950195312 699.5 140.049804688 c 0
 709.299804688 158.950195312 710.700195312 186.950195312 710.700195312 218.450195312 c 2
 710.700195312 238.049804688 l 2
 710.700195312 266.049804688 709.299804688 294.75 700.900390625 312.25 c 0
 696 322.75 687.599609375 329.75 675 329.75 c 0
 634.400390625 329.75 620.400390625 271.650390625 619.700195312 271.650390625 c 2
 552.5 271.650390625 l 1
 552.5 550.950195312 l 1
 788.400390625 550.950195312 l 1
 788.400390625 480.25 l 1
 635.799804688 480.25 l 1
 635.799804688 368.950195312 l 1
 647 375.25 658.200195312 380.850585938 677.799804688 380.850585938 c 0
 710 380.850585938 743.599609375 371.049804688 768.799804688 348.650390625 c 4
 797.5 322.75 814.299804688 280.75 814.299804688 217.75 c 0
 814.299804688 158.25 797.5 119.049804688 770.900390625 93.150390625 c 0
 737.299804688 60.25 692.5 49.0498046875 654.700195312 49.0498046875 c 0
 631.599609375 49.0498046875 612 54.650390625 594.5 63.0498046875 c 0
 553.200195312 79.8505859375 530.099609375 107.850585938 520.299804688 121.850585938 c 1
166.799804688 170.850585938 m 1
 166.799804688 237.350585938 l 1
 166.799804688 237.350585938 l 1
 319.400390625 550.950195312 l 1
 423 550.950195312 l 1
 423 237.350585938 l 1
 486 237.350585938 l 1
 486 170.850585938 l 1
 423 170.850585938 l 1
 423 64.4501953125 l 1
 336.900390625 64.4501953125 l 1
 336.900390625 170.850585938 l 1
 166.799804688 170.850585938 l 1
240.299804688 237.350585938 m 1
 339.700195312 237.350585938 l 1
 339.700195312 478.850585938 l 1
 329.900390625 434.049804688 308.900390625 390.650390625 240.299804688 237.350585938 c 1
EndSplineSet
EndChar
StartChar: uF282B
Encoding: 993323 993323 81
Width: 1000
Flags: MW
LayerCount: 2
Fore
SplineSet
50 300 m 0
 50 584 236 760 501 760 c 0
 758 760 949 589 950 300 c 0
 950 21 769 -160 499 -160 c 0
 230 -160 50 24 50 300 c 0
112 299 m 0
 112 55 269 -97 498 -97 c 0
 724 -97 887 47 887 301 c 0
 887 547 729 697 502 697 c 0
 276 697 112 553 112 299 c 0
542.700195312 455.400390625 m 1
 542.700195312 506.5 l 1
 623.900390625 506.5 671.5 521.900390625 710.700195312 554.80078125 c 1
 735.200195312 554.80078125 l 1
 735.200195312 104 l 1
 817.799804688 104 l 1
 817.799804688 52.900390625 l 1
 553.200195312 52.900390625 l 1
 553.200195312 104 l 1
 638.599609375 104 l 1
 638.599609375 466.599609375 l 1
 609.200195312 458.19921875 576.299804688 455.400390625 542.700195312 455.400390625 c 1
175.200195312 463.80078125 m 1
 175.200195312 539.400390625 l 1
 481.799804688 539.400390625 l 1
 481.799804688 468.69921875 l 1
 381.700195312 348.30078125 342.5 192.900390625 342.5 45.19921875 c 1
 243.099609375 45.19921875 l 1
 243.099609375 202.69921875 305.400390625 356 426.5 464.5 c 1
 175.200195312 463.80078125 l 1
EndSplineSet
EndChar
StartChar: uF282E
Encoding: 993326 993326 84
Width: 1000
Flags: MW
LayerCount: 2
Fore
SplineSet
50 300 m 0
 50 584 236 760 501 760 c 0
 758 760 949 589 950 300 c 0
 950 21 769 -160 499 -160 c 0
 230 -160 50 24 50 300 c 0
112 299 m 0
 112 55 269 -97 498 -97 c 0
 724 -97 887 47 887 301 c 0
 887 547 729 697 502 697 c 0
 276 697 112 553 112 299 c 0
516.799804688 167 m 1
 516.799804688 233.5 l 1
 516.799804688 233.5 l 1
 669.400390625 547.099609375 l 1
 773 547.099609375 l 1
 773 233.5 l 1
 836 233.5 l 1
 836 167 l 1
 773 167 l 1
 773 60.599609375 l 1
 686.900390625 60.599609375 l 1
 686.900390625 167 l 1
 516.799804688 167 l 1
590.299804688 233.5 m 1
 689.700195312 233.5 l 1
 689.700195312 475 l 1
 679.900390625 430.19921875 658.900390625 386.80078125 590.299804688 233.5 c 1
175.200195312 471.5 m 1
 175.200195312 547.099609375 l 1
 481.799804688 547.099609375 l 1
 481.799804688 476.400390625 l 1
 381.700195312 356 342.5 200.599609375 342.5 52.900390625 c 1
 243.099609375 52.900390625 l 1
 243.099609375 210.400390625 305.400390625 363.69921875 426.5 472.19921875 c 1
 175.200195312 471.5 l 1
EndSplineSet
EndChar
StartChar: uF2831
Encoding: 993329 993329 87
Width: 1000
Flags: MW
LayerCount: 2
Fore
SplineSet
50 300 m 0
 50 584 236 760 501 760 c 0
 758 760 949 589 950 300 c 0
 950 21 769 -160 499 -160 c 0
 230 -160 50 24 50 300 c 0
112 299 m 0
 112 55 269 -97 498 -97 c 0
 724 -97 887 47 887 301 c 0
 887 547 729 697 502 697 c 0
 276 697 112 553 112 299 c 0
525.200195312 471.5 m 1
 525.200195312 547.099609375 l 1
 831.799804688 547.099609375 l 1
 831.799804688 476.400390625 l 1
 731.700195312 356 692.5 200.599609375 692.5 52.900390625 c 1
 593.099609375 52.900390625 l 1
 593.099609375 210.400390625 655.400390625 363.69921875 776.5 472.19921875 c 1
 525.200195312 471.5 l 1
175.200195312 471.5 m 1
 175.200195312 547.099609375 l 1
 481.799804688 547.099609375 l 1
 481.799804688 476.400390625 l 1
 381.700195312 356 342.5 200.599609375 342.5 52.900390625 c 1
 243.099609375 52.900390625 l 1
 243.099609375 210.400390625 305.400390625 363.69921875 426.5 472.19921875 c 1
 175.200195312 471.5 l 1
EndSplineSet
EndChar
StartChar: uF284C
Encoding: 993356 993356 114
Width: 1000
Flags: MW
LayerCount: 2
Fore
SplineSet
50 300 m 0
 50 584 236 760 501 760 c 0
 758 760 949 589 950 300 c 0
 950 21 769 -160 499 -160 c 0
 230 -160 50 24 50 300 c 0
112 299 m 0
 112 55 269 -97 498 -97 c 0
 724 -97 887 47 887 301 c 0
 887 547 729 697 502 697 c 0
 276 697 112 553 112 299 c 0
304.700195312 227.19921875 m 0
 304.700195312 281.80078125 313.099609375 339.19921875 353 372.099609375 c 0
 374.700195312 391 406.200195312 398.69921875 450.299804688 398.69921875 c 0xbc
 516.099609375 398.69921875 565.799804688 381.19921875 601.5 360.19921875 c 1
 601.5 547.099609375 l 1
 695.299804688 547.099609375 l 1xba
 695.299804688 60.599609375 l 1
 599.400390625 60.599609375 l 1
 599.400390625 97 l 1
 560.200195312 71.099609375 514.700195312 52.900390625 448.900390625 52.900390625 c 0
 416.700195312 52.900390625 357.200195312 57.099609375 327.099609375 111 c 0
 309.599609375 143.19921875 304.700195312 181 304.700195312 227.19921875 c 0
400.599609375 235.599609375 m 0
 400.599609375 178.900390625 402 147.400390625 425.799804688 126.400390625 c 0
 444.700195312 111 476.200195312 103.30078125 505.599609375 103.30078125 c 0
 568.599609375 103.30078125 596.599609375 132 599.400390625 132.69921875 c 1
 599.400390625 328 l 1xbc
 593.099609375 331.5 586.799804688 333.599609375 580.5 336.400390625 c 4
 565.799804688 342.69921875 551.099609375 346.19921875 532.900390625 347.599609375 c 0
 528.700195312 347.599609375 523.799804688 348.30078125 518.200195312 348.30078125 c 0
 406.900390625 348.30078125 400.599609375 290.19921875 400.599609375 235.599609375 c 0
EndSplineSet
EndChar
StartChar: uF284D
Encoding: 993357 993357 115
Width: 1000
Flags: MW
LayerCount: 2
Fore
SplineSet
50 300 m 0
 50 584 236 760 501 760 c 0
 758 760 949 589 950 300 c 0
 950 21 769 -160 499 -160 c 0
 230 -160 50 24 50 300 c 0
112 299 m 0
 112 55 269 -97 498 -97 c 0
 724 -97 887 47 887 301 c 0
 887 547 729 697 502 697 c 0
 276 697 112 553 112 299 c 0
307.5 300.700195312 m 0
 307.5 390.299804688 341.799804688 475 514 475 c 0
 677.099609375 475 692.5 384.700195312 692.5 307.700195312 c 1
 692.5 307.700195312 l 1
 397.099609375 307.700195312 l 1
 397.099609375 274.100585938 399.200195312 237 430 208.299804688 c 0
 442.599609375 196.400390625 472 176.100585938 535 176.100585938 c 0
 619 176.100585938 660.299804688 204.799804688 683.400390625 223 c 1
 688.299804688 159.299804688 l 1
 665.200195312 146 621.099609375 125 527.299804688 125 c 0
 393.599609375 125 307.5 160 307.5 300.700195312 c 0
401.299804688 345.5 m 1
 613.400390625 345.5 l 1
 605 410.600585938 554.599609375 423.900390625 514.700195312 423.900390625 c 0
 424.400390625 423.900390625 406.900390625 364.400390625 401.299804688 345.5 c 1
EndSplineSet
EndChar
StartChar: uF2850
Encoding: 993360 993360 118
Width: 1000
Flags: MW
LayerCount: 2
Fore
SplineSet
50 300 m 0
 50 584 236 760 501 760 c 0
 758 760 949 589 950 300 c 0
 950 21 769 -160 499 -160 c 0
 230 -160 50 24 50 300 c 0
112 299 m 0
 112 55 269 -97 498 -97 c 0
 724 -97 887 47 887 301 c 0
 887 547 729 697 502 697 c 0
 276 697 112 553 112 299 c 0
315.200195312 56.75 m 1
 315.200195312 543.25 l 1
 409 543.25 l 1
 409 322.049804688 l 1
 427.900390625 348.650390625 476.200195312 394.849609375 578.400390625 394.849609375 c 0
 679.200195312 394.849609375 684.799804688 339.549804688 684.799804688 276.549804688 c 0
 684.799804688 266.75 684.099609375 256.950195312 684.099609375 247.849609375 c 2
 684.099609375 56.75 l 1
 588.900390625 56.75 l 1
 588.900390625 285.650390625 l 2
 588.900390625 318.549804688 579.099609375 344.450195312 517.5 344.450195312 c 0
 446.099609375 344.450195312 416.700195312 295.450195312 412.5 260.450195312 c 2
 412.5 56.75 l 1
 315.200195312 56.75 l 1
EndSplineSet
EndChar
StartChar: uF2852
Encoding: 993362 993362 120
Width: 1000
Flags: MW
LayerCount: 2
Fore
SplineSet
50 300 m 0
 50 584 236 760 501 760 c 0
 758 760 949 589 950 300 c 0
 950 21 769 -160 499 -160 c 0
 230 -160 50 24 50 300 c 0
112 299 m 0
 112 55 269 -97 498 -97 c 0
 724 -97 887 47 887 301 c 0
 887 547 729 697 502 697 c 0
 276 697 112 553 112 299 c 0
378.200195312 15.4501953125 m 1
 392.900390625 65.849609375 l 1
 412.5 57.4501953125 424.400390625 53.9501953125 445.400390625 53.9501953125 c 0
 473.400390625 53.9501953125 485.299804688 59.5498046875 489.5 68.6494140625 c 0
 490.900390625 72.1494140625 491.599609375 76.349609375 491.599609375 80.5498046875 c 2
 491.599609375 449.450195312 l 1
 585.400390625 449.450195312 l 1
 585.400390625 95.25 l 2
 584.700195312 74.9501953125 586.099609375 42.0498046875 563 18.9501953125 c 0
 548.299804688 4.25 523.799804688 -5.5498046875 482.5 -5.5498046875 c 0
 440.5 -5.5498046875 406.900390625 3.5498046875 378.200195312 15.4501953125 c 1
491.599609375 520.149414062 m 1
 491.599609375 605.549804688 l 1
 585.400390625 605.549804688 l 1
 585.400390625 520.149414062 l 1
 491.599609375 520.149414062 l 1
EndSplineSet
EndChar
StartChar: uF2855
Encoding: 993365 993365 123
Width: 1000
Flags: MW
LayerCount: 2
Fore
SplineSet
50 300 m 0
 50 584 236 760 501 760 c 0
 758 760 949 589 950 300 c 0
 950 21 769 -160 499 -160 c 0
 230 -160 50 24 50 300 c 0
112 299 m 0
 112 55 269 -97 498 -97 c 0
 724 -97 887 47 887 301 c 0
 887 547 729 697 502 697 c 0
 276 697 112 553 112 299 c 0
238.200195312 130.599609375 m 1xdc
 238.200195312 465.19921875 l 1
 329.900390625 465.19921875 l 1
 329.900390625 421.099609375 l 1
 330.599609375 391.69921875 l 1
 343.200195312 420.400390625 376.099609375 468.69921875 444.700195312 468.69921875 c 0xec
 538.5 468.69921875 539.200195312 417.599609375 546.200195312 395.900390625 c 1
 558.799804688 422.5 591 469.400390625 658.200195312 469.400390625 c 0
 689 469.400390625 710 463.80078125 725.400390625 454.69921875 c 4
 759.700195312 433.69921875 761.799804688 393.80078125 761.799804688 350.400390625 c 0
 761.799804688 340.599609375 761.099609375 330.80078125 761.099609375 321.69921875 c 2
 761.099609375 130.599609375 l 1
 665.900390625 130.599609375 l 1
 665.900390625 359.5 l 2
 665.900390625 393.099609375 658.900390625 418.30078125 618.299804688 418.30078125 c 0
 570 418.30078125 550.400390625 369.30078125 547.599609375 334.30078125 c 2
 547.599609375 130.599609375 l 1
 451.700195312 130.599609375 l 1
 451.700195312 359.5 l 2
 451.700195312 393.099609375 445.400390625 418.30078125 404.099609375 418.30078125 c 0
 356.5 418.30078125 336.900390625 369.30078125 334.099609375 334.30078125 c 2
 334.099609375 130.599609375 l 1
 238.200195312 130.599609375 l 1xdc
EndSplineSet
EndChar
StartChar: uF2856
Encoding: 993366 993366 124
Width: 1000
Flags: MW
LayerCount: 2
Fore
SplineSet
50 300 m 0
 50 584 236 760 501 760 c 0
 758 760 949 589 950 300 c 0
 950 21 769 -160 499 -160 c 0
 230 -160 50 24 50 300 c 0
112 299 m 0
 112 55 269 -97 498 -97 c 0
 724 -97 887 47 887 301 c 0
 887 547 729 697 502 697 c 0
 276 697 112 553 112 299 c 0
315.900390625 130.950195312 m 1xd8
 315.900390625 465.549804688 l 1
 407.599609375 465.549804688 l 1
 407.599609375 421.450195312 l 1
 408.299804688 392.049804688 l 1
 425.099609375 421.450195312 474.799804688 469.049804688 577.700195312 469.049804688 c 0
 618.299804688 469.049804688 642.099609375 460.650390625 657.5 447.350585938 c 4
 682 425.650390625 684.099609375 389.950195312 684.099609375 351.450195312 c 0
 684.099609375 341.650390625 683.400390625 332.549804688 683.400390625 322.75 c 2
 683.400390625 130.950195312 l 1
 588.200195312 130.950195312 l 1
 588.200195312 359.850585938 l 2xe8
 588.200195312 392.75 578.400390625 418.650390625 516.799804688 418.650390625 c 0
 445.400390625 418.650390625 416 369.650390625 411.799804688 334.650390625 c 2
 411.799804688 130.950195312 l 1
 315.900390625 130.950195312 l 1xd8
EndSplineSet
EndChar
StartChar: uF2857
Encoding: 993367 993367 125
Width: 1000
Flags: MW
LayerCount: 2
Fore
SplineSet
50 300 m 0
 50 584 236 760 501 760 c 0
 758 760 949 589 950 300 c 0
 950 21 769 -160 499 -160 c 0
 230 -160 50 24 50 300 c 0
112 299 m 0
 112 55 269 -97 498 -97 c 0
 724 -97 887 47 887 301 c 0
 887 547 729 697 502 697 c 0
 276 697 112 553 112 299 c 0
291.400390625 300 m 0
 291.400390625 437.900390625 375.400390625 475 500 475 c 0
 624.599609375 475 708.599609375 437.900390625 708.599609375 300 c 0
 708.599609375 152.299804688 624.599609375 125 500 125 c 0
 375.400390625 125 291.400390625 152.299804688 291.400390625 300 c 0
386.599609375 301.400390625 m 0
 386.599609375 247.5 388 179.600585938 501.400390625 179.600585938 c 0
 614.799804688 179.600585938 613.400390625 247.5 613.400390625 301.400390625 c 0
 613.400390625 358.799804688 613.400390625 423.900390625 500 423.900390625 c 0
 386.599609375 423.900390625 386.599609375 358.799804688 386.599609375 301.400390625 c 0
EndSplineSet
EndChar
StartChar: uF2858
Encoding: 993368 993368 126
Width: 1000
Flags: MW
LayerCount: 2
Fore
SplineSet
50 300 m 0
 50 584 236 760 501 760 c 0
 758 760 949 589 950 300 c 0
 950 21 769 -160 499 -160 c 0
 230 -160 50 24 50 300 c 0
112 299 m 0
 112 55 269 -97 498 -97 c 0
 724 -97 887 47 887 301 c 0
 887 547 729 697 502 697 c 0
 276 697 112 553 112 299 c 0
304.700195312 72.5 m 1
 304.700195312 519.80078125 l 1
 398.5 519.80078125 l 1
 398.5 484.80078125 l 1
 413.200195312 493.200195312 432.799804688 501.600585938 452.400390625 508.600585938 c 0
 487.400390625 519.80078125 528 527.5 576.299804688 527.5 c 0
 620.400390625 527.5 650.5 513.5 670.099609375 480.600585938 c 0
 686.200195312 453.30078125 695.299804688 412.700195312 695.299804688 356 c 0
 695.299804688 300.700195312 684.799804688 260.80078125 665.900390625 232.80078125 c 0
 641.400390625 197.100585938 603.599609375 181.700195312 536.400390625 181.700195312 c 0
 498.599609375 181.700195312 469.200195312 188 444 197.80078125 c 0
 428.599609375 204.100585938 413.200195312 211.80078125 400.599609375 220.200195312 c 1
 400.599609375 72.5 l 1
 304.700195312 72.5 l 1
400.599609375 256.600585938 m 1
 404.799804688 254.5 417.400390625 244.700195312 439.799804688 238.400390625 c 0
 451 234.900390625 465 232.80078125 480.400390625 232.80078125 c 0
 520.299804688 232.80078125 553.900390625 245.400390625 572.799804688 266.400390625 c 0
 600.799804688 298.600585938 598 332.900390625 599.400390625 362.30078125 c 2
 598 379.100585938 l 2
 595.900390625 395.900390625 591.700195312 423.200195312 572.099609375 444.200195312 c 4
 556.700195312 460.30078125 531.5 472.900390625 490.900390625 472.900390625 c 0
 471.299804688 472.900390625 453.799804688 470.100585938 439.799804688 466.600585938 c 0
 416 460.30078125 402 451.200195312 400.599609375 451.200195312 c 1
 400.599609375 256.600585938 l 1
EndSplineSet
EndChar
StartChar: uF285D
Encoding: 993373 993373 131
Width: 1000
Flags: MW
LayerCount: 2
Fore
SplineSet
50 300 m 0
 50 584 236 760 501 760 c 0
 758 760 949 589 950 300 c 0
 950 21 769 -160 499 -160 c 0
 230 -160 50 24 50 300 c 0
112 299 m 0
 112 55 269 -97 498 -97 c 0
 724 -97 887 47 887 301 c 0
 887 547 729 697 502 697 c 0
 276 697 112 553 112 299 c 0
316.599609375 229.650390625 m 2
 316.599609375 469.05078125 l 1
 411.799804688 469.05078125 l 1
 411.799804688 229.650390625 l 2
 413.200195312 203.75 412.5 188.349609375 427.200195312 180.650390625 c 0
 437 175.75 451.700195312 173.650390625 478.299804688 173.650390625 c 0
 501.400390625 173.650390625 528 178.55078125 549 191.150390625 c 0
 565.799804688 200.94921875 579.099609375 215.650390625 585.400390625 236.650390625 c 0
 587.5 244.349609375 588.200195312 252.05078125 588.200195312 261.150390625 c 2
 588.200195312 469.05078125 l 1
 683.400390625 469.05078125 l 1
 683.400390625 138.650390625 l 1
 591 138.650390625 l 1
 591 170.849609375 l 1
 590.299804688 185.55078125 l 1
 580.5 172.94921875 575.599609375 161.75 553.200195312 151.94921875 c 0
 527.299804688 140.75 486 130.94921875 423 130.94921875 c 0
 385.900390625 130.94921875 362.799804688 135.849609375 347.400390625 145.650390625 c 0
 320.099609375 162.44921875 316.599609375 192.55078125 316.599609375 229.650390625 c 2
EndSplineSet
EndChar
StartChar: uF2860
Encoding: 993376 993376 134
Width: 1000
Flags: MW
LayerCount: 2
Fore
SplineSet
50 300 m 0
 50 584 236 760 501 760 c 0
 758 760 949 589 950 300 c 0
 950 21 769 -160 499 -160 c 0
 230 -160 50 24 50 300 c 0
112 299 m 0
 112 55 269 -97 498 -97 c 0
 724 -97 887 47 887 301 c 0
 887 547 729 697 502 697 c 0
 276 697 112 553 112 299 c 0
285.799804688 134.799804688 m 1
 439.799804688 304.899414062 l 1
 439.799804688 307.700195312 l 1
 290 465.200195312 l 1
 388 465.200195312 l 1
 495.799804688 370.700195312 l 1
 498.599609375 370.700195312 l 1
 600.099609375 465.200195312 l 1
 701.599609375 465.200195312 l 1
 553.900390625 306.299804688 l 1
 553.900390625 305.599609375 l 1
 714.200195312 134.799804688 l 1
 617.599609375 134.799804688 l 1
 497.200195312 253.799804688 l 1
 381 134.799804688 l 1
 285.799804688 134.799804688 l 1
EndSplineSet
EndChar
StartChar: uF2862
Encoding: 993378 993378 136
Width: 1000
Flags: MW
LayerCount: 2
Fore
SplineSet
50 300 m 0
 50 584 236 760 501 760 c 0
 758 760 949 589 950 300 c 0
 950 21 769 -160 499 -160 c 0
 230 -160 50 24 50 300 c 0
112 299 m 0
 112 55 269 -97 498 -97 c 0
 724 -97 887 47 887 301 c 0
 887 547 729 697 502 697 c 0
 276 697 112 553 112 299 c 0
325.700195312 134.799804688 m 1
 325.700195312 169.099609375 l 1
 552.5 417.599609375 l 1
 336.200195312 416.200195312 l 1
 336.200195312 465.200195312 l 1
 672.200195312 465.200195312 l 1
 672.200195312 433.700195312 l 1
 446.799804688 186.599609375 l 1
 674.299804688 188 l 1
 674.299804688 134.799804688 l 1
 325.700195312 134.799804688 l 1
EndSplineSet
EndChar
StartChar: uF2865
Encoding: 993381 993381 139
Width: 1000
Flags: MW
LayerCount: 2
Fore
SplineSet
50 300 m 0
 50 584 236 760 501 760 c 0
 758 760 949 589 950 300 c 0
 950 21 769 -160 499 -160 c 0
 230 -160 50 24 50 300 c 0
112 299 m 0
 112 55 269 -97 498 -97 c 0
 724 -97 887 47 887 301 c 0
 887 547 729 697 502 697 c 0
 276 697 112 553 112 299 c 0
272.5 299.299804688 m 0
 272.5 507.19921875 398.5 559 563.700195312 559 c 0
 631.599609375 559 671.5 550.599609375 719.099609375 534.5 c 1
 703 442.799804688 l 1
 677.099609375 461 644.900390625 488.299804688 561.599609375 488.299804688 c 0
 418.799804688 488.299804688 376.099609375 405 376.099609375 301.399414062 c 0
 376.099609375 199.19921875 413.200195312 111.69921875 563.700195312 111.69921875 c 0
 649.099609375 111.69921875 671.5 125.69921875 721.200195312 157.899414062 c 1
 727.5 80.19921875 l 1
 668 48 638.599609375 41 561.599609375 41 c 0
 393.599609375 41 272.5 98.3994140625 272.5 299.299804688 c 0
EndSplineSet
EndChar
StartChar: uF2866
Encoding: 993382 993382 140
Width: 1000
Flags: MW
LayerCount: 2
Fore
SplineSet
50 300 m 0
 50 584 236 760 501 760 c 0
 758 760 949 589 950 300 c 0
 950 21 769 -160 499 -160 c 0
 230 -160 50 24 50 300 c 0
112 299 m 0
 112 55 269 -97 498 -97 c 0
 724 -97 887 47 887 301 c 0
 887 547 729 697 502 697 c 0
 276 697 112 553 112 299 c 0
250.799804688 56.75 m 1
 250.799804688 543.25 l 1
 474.099609375 543.25 l 2
 530.099609375 543.25 583.299804688 537.650390625 628.799804688 521.549804688 c 0
 701.599609375 491.450195312 749.200195312 426.349609375 749.200195312 294.75 c 0
 749.200195312 119.049804688 655.400390625 70.0498046875 539.200195312 59.5498046875 c 0
 518.200195312 57.4501953125 496.5 56.75 475.5 56.75 c 2
 250.799804688 56.75 l 1
352.299804688 117.650390625 m 1
 439.099609375 117.650390625 l 2
 502.099609375 117.650390625 575.599609375 119.75 616.900390625 172.950195312 c 0
 642.099609375 205.150390625 647 243.650390625 647.700195312 280.75 c 0
 647.700195312 323.450195312 647.700195312 358.450195312 633.700195312 394.150390625 c 0
 619.700195312 429.849609375 594.5 451.549804688 565.799804688 464.150390625 c 0
 527.299804688 480.950195312 481.799804688 482.349609375 446.799804688 482.349609375 c 2
 352.299804688 482.349609375 l 1
 352.299804688 117.650390625 l 1
EndSplineSet
EndChar
StartChar: uF2868
Encoding: 993384 993384 142
Width: 1000
Flags: MW
LayerCount: 2
Fore
SplineSet
50 300 m 0
 50 584 236 760 501 760 c 0
 758 760 949 589 950 300 c 0
 950 21 769 -160 499 -160 c 0
 230 -160 50 24 50 300 c 0
112 299 m 0
 112 55 269 -97 498 -97 c 0
 724 -97 887 47 887 301 c 0
 887 547 729 697 502 697 c 0
 276 697 112 553 112 299 c 0
319.400390625 57.7998046875 m 1
 319.400390625 542.200195312 l 1xd8
 680.599609375 542.200195312 l 1
 680.599609375 468.700195312 l 1xe8
 423 470.799804688 l 1
 423 333.599609375 l 1xd8
 648.400390625 333.599609375 l 1
 648.400390625 267.099609375 l 1
 423 267.099609375 l 1
 423 57.7998046875 l 1
 319.400390625 57.7998046875 l 1
EndSplineSet
EndChar
